<svg width="181" height="64" viewBox="0 0 181 64" fill="none" xmlns="http://www.w3.org/2000/svg">
<path d="M101.649 24.1027H102.578L105.553 19.7344H109.301L105.212 25.4349L109.642 31.3523H105.8L102.578 26.7981H101.649V31.3523H98.5508V19.7344H101.649V24.1027Z" fill="white"/>
<path d="M128.974 24.1027H133.28V19.7344H136.379V31.3523H133.28V26.7981H128.974V31.3523H125.876V19.7344H128.974V24.1027Z" fill="white"/>
<path d="M142.172 24.1027H146.478V19.7344H149.546V31.3523H146.478V26.7981H142.172V31.3523H139.074V19.7344H142.172V24.1027Z" fill="white"/>
<path d="M175.26 19.7344L171.635 27.3867H171.542V19.7344H168.599V31.3523H172.813L176.282 23.7H176.406V31.3523H179.35V19.7344H175.26Z" fill="white"/>
<path d="M171.573 16.7295V17.6899C171.573 18.0927 171.573 18.4335 171.573 18.4335H176.406C176.406 18.4335 176.406 18.0927 176.406 17.6899V16.7295H171.573Z" fill="white"/>
<path d="M162.743 19.7344V31.3523H165.842V19.7344H162.743ZM161.163 24.3196H155.494V19.7344H152.396V31.3523H161.163C161.163 31.3523 161.163 30.6397 161.163 29.7722V27.9444V27.7585V25.9306C161.163 25.0321 161.163 24.3196 161.163 24.3196ZM158.065 27.7585V27.9444V28.9358C158.065 28.9358 157.848 28.9358 157.601 28.9358H155.463V26.7671H157.601C157.848 26.7671 158.065 26.7671 158.065 26.7671V27.7585Z" fill="white"/>
<path d="M95.8555 19.7656H83.9587C83.9587 19.7656 83.9587 20.4782 83.9587 21.3457V24.5367V26.5815V29.7725C83.9587 30.64 83.9587 31.3525 83.9587 31.3525H95.8245C95.8245 31.3525 95.8245 30.64 95.8245 29.7725V26.5815V24.5367V21.3457C95.8555 20.4782 95.8555 19.7656 95.8555 19.7656ZM92.7574 28.936C92.7574 28.936 92.5405 28.936 92.2926 28.936H87.5216C87.2737 28.936 87.0568 28.936 87.0568 28.936V22.6159C87.0568 22.368 87.0568 22.1512 87.0568 22.1512H92.7264C92.7264 22.1512 92.7264 22.368 92.7264 22.6159V28.936H92.7574Z" fill="white"/>
<path d="M123.212 19.7656H111.346C111.346 19.7656 111.346 20.4782 111.346 21.3457V24.5367V26.5815V29.7725C111.346 30.64 111.346 31.3525 111.346 31.3525H123.212C123.212 31.3525 123.212 30.64 123.212 29.7725V26.5815V24.5367V21.3457C123.212 20.4782 123.212 19.7656 123.212 19.7656ZM120.114 28.936C120.114 28.936 119.897 28.936 119.649 28.936H114.909C114.661 28.936 114.444 28.936 114.444 28.936V22.6159C114.444 22.368 114.444 22.1512 114.444 22.1512H120.114C120.114 22.1512 120.114 22.368 120.114 22.6159V28.936Z" fill="white"/>
<path d="M93.346 35.3496H90.9914L86.4372 40.1517H85.7247V35.3496H83.9587V46.7506H85.7247V41.7317H86.4372L91.5491 46.7506H93.9656L88.0173 40.8642L93.346 35.3496Z" fill="white"/>
<path d="M114.785 40.2134H108.96V35.3184H107.195V46.7504H108.96V41.7314H114.785V46.7504H116.582V35.3184H114.785V40.2134Z" fill="white"/>
<path d="M167.824 40.2134H162V35.3184H160.234V46.7504H162V41.7314H167.824V46.7504H169.59V35.3184H167.824V40.2134Z" fill="white"/>
<path d="M146.912 40.2134H141.088V35.3184H139.322V46.7504H141.088V41.7314H146.912V46.7504H148.709V35.3184H146.912V40.2134Z" fill="white"/>
<path d="M129.78 44.7679V35.3496H128.014V46.7506H130.368L135.759 37.3944V46.7506H137.494V35.3496H135.109L129.78 44.7679Z" fill="white"/>
<path d="M150.506 46.7506H158.437V45.2636H152.272V41.7317H158.22V40.2136H152.272V36.8367H158.468V35.3496H150.506V46.7506Z" fill="white"/>
<path d="M118.255 35.3184V36.8364H121.353V46.7504H123.212V36.8364H126.31V35.3184H118.255Z" fill="white"/>
<path d="M171.294 35.3184V36.8364H174.393V46.7504H176.251V36.8364H179.35V35.3184H171.294Z" fill="white"/>
<path d="M103.818 35.3496H96.5061C95.6386 35.3496 94.926 35.3496 94.926 35.3496V45.1706C94.926 46.0381 94.926 46.7197 94.926 46.7197H105.429C105.429 46.7197 105.429 46.0071 105.429 45.1706V35.3496C105.429 35.3496 104.716 35.3496 103.818 35.3496ZM103.694 44.7679C103.694 45.0157 103.694 45.2326 103.694 45.2326H96.661C96.661 45.2326 96.661 45.0157 96.661 44.7679V37.3014C96.661 37.0536 96.661 36.8367 96.661 36.8367H103.694C103.694 36.8367 103.694 37.0536 103.694 37.3014V44.7679Z" fill="white"/>
<path d="M133.639 56.4929L132.628 58.3291H131.535C132.305 56.9399 133.054 55.6607 133.783 54.4916C134.519 53.3225 135.245 52.2187 135.96 51.1802H136.94C137.043 51.696 137.136 52.2187 137.219 52.7482C137.308 53.2709 137.394 53.8211 137.477 54.3988C137.559 54.9764 137.638 55.5885 137.714 56.235C137.789 56.8814 137.869 57.5795 137.951 58.3291H136.94C136.906 58.0196 136.875 57.7102 136.847 57.4007C136.82 57.0843 136.789 56.7817 136.754 56.4929H133.639ZM136.662 55.6882C136.607 55.1312 136.541 54.5776 136.466 54.0274C136.397 53.4772 136.314 52.9098 136.218 52.3253C135.977 52.676 135.678 53.1299 135.321 53.687C134.963 54.2371 134.557 54.9042 134.103 55.6882H136.662ZM140.097 55.9668C140.062 56.1181 140.028 56.2659 139.994 56.4104C139.959 56.5548 139.942 56.6923 139.942 56.823C139.942 57.0568 139.997 57.2425 140.107 57.38C140.224 57.5176 140.437 57.6036 140.747 57.6379L140.53 58.4219C140.248 58.4151 140.007 58.3738 139.808 58.2982C139.615 58.2156 139.457 58.109 139.333 57.9784C139.216 57.8477 139.131 57.693 139.075 57.5141C139.02 57.3353 138.993 57.1393 138.993 56.9261C138.993 56.768 139.007 56.6029 139.034 56.431C139.062 56.2591 139.1 56.0802 139.148 55.8946L140.448 50.489L141.448 50.324L140.097 55.9668ZM143.423 58.4632C143.121 58.4632 142.866 58.4185 142.66 58.3291C142.461 58.2397 142.296 58.1193 142.165 57.968C142.041 57.8167 141.952 57.6379 141.897 57.4316C141.842 57.2253 141.814 57.0052 141.814 56.7714C141.814 56.5926 141.828 56.4172 141.855 56.2453C141.89 56.0665 141.928 55.8877 141.969 55.7089L142.629 52.9649H143.589L142.98 55.5026C142.946 55.6607 142.901 55.8464 142.846 56.0596C142.791 56.2728 142.763 56.486 142.763 56.6992C142.763 56.823 142.774 56.9433 142.794 57.0603C142.822 57.1703 142.866 57.27 142.928 57.3594C142.997 57.4419 143.086 57.5107 143.197 57.5657C143.307 57.6139 143.444 57.6379 143.609 57.6379C143.905 57.6379 144.163 57.576 144.383 57.4523C144.61 57.3216 144.799 57.1703 144.95 56.9984C144.957 56.8883 144.967 56.7748 144.981 56.6579C144.995 56.541 145.019 56.4138 145.053 56.2762L145.848 52.9649H146.807L145.992 56.3588C145.958 56.5169 145.927 56.6717 145.899 56.823C145.879 56.9674 145.868 57.1187 145.868 57.2769C145.868 57.4351 145.882 57.5932 145.91 57.7514C145.937 57.9096 145.985 58.0815 146.054 58.2672L145.208 58.391C145.174 58.3153 145.139 58.2294 145.105 58.1331C145.071 58.0368 145.043 57.9337 145.022 57.8236C144.947 57.8924 144.857 57.9646 144.754 58.0403C144.651 58.1159 144.531 58.1847 144.393 58.2466C144.262 58.3085 144.115 58.36 143.95 58.4013C143.791 58.4426 143.616 58.4632 143.423 58.4632ZM153.345 52.8514C153.648 52.8514 153.902 52.8995 154.109 52.9958C154.322 53.0852 154.49 53.209 154.614 53.3672C154.745 53.5254 154.838 53.711 154.893 53.9242C154.948 54.1305 154.975 54.3506 154.975 54.5844C154.975 54.7357 154.961 54.9008 154.934 55.0796C154.913 55.2515 154.882 55.42 154.841 55.5851L154.181 58.3291H153.222L153.83 55.7914C153.865 55.6332 153.902 55.4579 153.944 55.2653C153.992 55.0659 154.016 54.8699 154.016 54.6773C154.016 54.5466 153.999 54.4194 153.964 54.2956C153.937 54.1718 153.885 54.0652 153.81 53.9758C153.741 53.8864 153.641 53.8142 153.51 53.7592C153.38 53.7042 153.218 53.6766 153.026 53.6766C152.805 53.6766 152.592 53.7214 152.386 53.8108C152.18 53.8933 152.008 53.9792 151.87 54.0687C151.884 54.1649 151.894 54.2612 151.901 54.3575C151.915 54.4469 151.922 54.5363 151.922 54.6257C151.922 54.7839 151.908 54.9455 151.88 55.1106C151.86 55.2687 151.832 55.4269 151.798 55.5851L151.138 58.3291H150.178L150.787 55.7914C150.821 55.6332 150.859 55.4544 150.9 55.255C150.942 55.0555 150.962 54.8561 150.962 54.6567C150.962 54.526 150.949 54.4022 150.921 54.2853C150.894 54.1615 150.845 54.0549 150.777 53.9655C150.715 53.8761 150.629 53.8073 150.519 53.7592C150.409 53.7042 150.268 53.6766 150.096 53.6766C149.924 53.6766 149.755 53.687 149.59 53.7076C149.432 53.7282 149.298 53.7557 149.188 53.7901L148.095 58.3291H147.135L148.373 53.1712C148.683 53.0749 149.02 52.9992 149.384 52.9442C149.755 52.8823 150.085 52.8514 150.374 52.8514C150.663 52.8514 150.907 52.903 151.107 53.0061C151.306 53.1024 151.464 53.2331 151.581 53.3981C151.65 53.35 151.743 53.295 151.86 53.2331C151.984 53.1712 152.121 53.1127 152.272 53.0577C152.431 53.0027 152.599 52.9545 152.778 52.9133C152.964 52.872 153.153 52.8514 153.345 52.8514ZM156.637 58.3291H155.678L156.967 52.9649H157.927L156.637 58.3291ZM157.751 51.9952C157.593 51.9952 157.459 51.947 157.349 51.8507C157.246 51.7545 157.194 51.6204 157.194 51.4484C157.194 51.2284 157.263 51.0564 157.401 50.9326C157.538 50.802 157.693 50.7366 157.865 50.7366C158.023 50.7366 158.157 50.7882 158.267 50.8914C158.377 50.9876 158.432 51.1252 158.432 51.304C158.432 51.5103 158.36 51.6788 158.216 51.8095C158.071 51.9333 157.917 51.9952 157.751 51.9952ZM159.206 58.3291H158.247L159.485 53.1712C159.801 53.0749 160.142 52.9992 160.506 52.9442C160.877 52.8823 161.208 52.8514 161.496 52.8514C161.806 52.8514 162.071 52.8961 162.291 52.9855C162.518 53.068 162.7 53.1849 162.837 53.3362C162.975 53.4806 163.075 53.6595 163.137 53.8727C163.205 54.079 163.24 54.3059 163.24 54.5535C163.24 54.7117 163.226 54.8802 163.198 55.059C163.171 55.2309 163.137 55.4063 163.095 55.5851L162.435 58.3291H161.476L162.084 55.7914C162.133 55.5988 162.177 55.4028 162.218 55.2034C162.267 55.004 162.291 54.8148 162.291 54.636C162.291 54.3609 162.215 54.134 162.064 53.9552C161.912 53.7695 161.63 53.6766 161.218 53.6766C161.046 53.6766 160.877 53.687 160.712 53.7076C160.547 53.7282 160.41 53.7557 160.3 53.7901L159.206 58.3291ZM164.888 58.3291H163.929L165.218 52.9649H166.178L164.888 58.3291ZM166.002 51.9952C165.844 51.9952 165.71 51.947 165.6 51.8507C165.497 51.7545 165.445 51.6204 165.445 51.4484C165.445 51.2284 165.514 51.0564 165.651 50.9326C165.789 50.802 165.944 50.7366 166.116 50.7366C166.274 50.7366 166.408 50.7882 166.518 50.8914C166.628 50.9876 166.683 51.1252 166.683 51.304C166.683 51.5103 166.611 51.6788 166.466 51.8095C166.322 51.9333 166.167 51.9952 166.002 51.9952ZM168.458 58.4632C168.155 58.4632 167.901 58.4185 167.694 58.3291C167.495 58.2397 167.33 58.1193 167.199 57.968C167.075 57.8167 166.986 57.6379 166.931 57.4316C166.876 57.2253 166.848 57.0052 166.848 56.7714C166.848 56.5926 166.862 56.4172 166.89 56.2453C166.924 56.0665 166.962 55.8877 167.003 55.7089L167.663 52.9649H168.623L168.014 55.5026C167.98 55.6607 167.935 55.8464 167.88 56.0596C167.825 56.2728 167.797 56.486 167.797 56.6992C167.797 56.823 167.808 56.9433 167.828 57.0603C167.856 57.1703 167.901 57.27 167.962 57.3594C168.031 57.4419 168.121 57.5107 168.231 57.5657C168.341 57.6139 168.478 57.6379 168.643 57.6379C168.939 57.6379 169.197 57.576 169.417 57.4523C169.644 57.3216 169.833 57.1703 169.984 56.9984C169.991 56.8883 170.001 56.7748 170.015 56.6579C170.029 56.541 170.053 56.4138 170.087 56.2762L170.882 52.9649H171.841L171.026 56.3588C170.992 56.5169 170.961 56.6717 170.933 56.823C170.913 56.9674 170.902 57.1187 170.902 57.2769C170.902 57.4351 170.916 57.5932 170.944 57.7514C170.971 57.9096 171.019 58.0815 171.088 58.2672L170.242 58.391C170.208 58.3153 170.173 58.2294 170.139 58.1331C170.105 58.0368 170.077 57.9337 170.057 57.8236C169.981 57.8924 169.891 57.9646 169.788 58.0403C169.685 58.1159 169.565 58.1847 169.427 58.2466C169.297 58.3085 169.149 58.36 168.984 58.4013C168.825 58.4426 168.65 58.4632 168.458 58.4632ZM178.379 52.8514C178.682 52.8514 178.936 52.8995 179.143 52.9958C179.356 53.0852 179.524 53.209 179.648 53.3672C179.779 53.5254 179.872 53.711 179.927 53.9242C179.982 54.1305 180.009 54.3506 180.009 54.5844C180.009 54.7357 179.996 54.9008 179.968 55.0796C179.947 55.2515 179.916 55.42 179.875 55.5851L179.215 58.3291H178.256L178.864 55.7914C178.899 55.6332 178.936 55.4579 178.978 55.2653C179.026 55.0659 179.05 54.8699 179.05 54.6773C179.05 54.5466 179.033 54.4194 178.998 54.2956C178.971 54.1718 178.919 54.0652 178.844 53.9758C178.775 53.8864 178.675 53.8142 178.544 53.7592C178.414 53.7042 178.252 53.6766 178.06 53.6766C177.84 53.6766 177.626 53.7214 177.42 53.8108C177.214 53.8933 177.042 53.9792 176.904 54.0687C176.918 54.1649 176.928 54.2612 176.935 54.3575C176.949 54.4469 176.956 54.5363 176.956 54.6257C176.956 54.7839 176.942 54.9455 176.915 55.1106C176.894 55.2687 176.866 55.4269 176.832 55.5851L176.172 58.3291H175.212L175.821 55.7914C175.855 55.6332 175.893 55.4544 175.935 55.255C175.976 55.0555 175.996 54.8561 175.996 54.6567C175.996 54.526 175.983 54.4022 175.955 54.2853C175.928 54.1615 175.88 54.0549 175.811 53.9655C175.749 53.8761 175.663 53.8073 175.553 53.7592C175.443 53.7042 175.302 53.6766 175.13 53.6766C174.958 53.6766 174.789 53.687 174.624 53.7076C174.466 53.7282 174.332 53.7557 174.222 53.7901L173.129 58.3291H172.169L173.407 53.1712C173.717 53.0749 174.054 52.9992 174.418 52.9442C174.789 52.8823 175.12 52.8514 175.408 52.8514C175.697 52.8514 175.941 52.903 176.141 53.0061C176.34 53.1024 176.498 53.2331 176.615 53.3981C176.684 53.35 176.777 53.295 176.894 53.2331C177.018 53.1712 177.155 53.1127 177.307 53.0577C177.465 53.0027 177.633 52.9545 177.812 52.9133C177.998 52.872 178.187 52.8514 178.379 52.8514Z" fill="#999999"/>
<path d="M15.9552 12.2684C15.5834 12.3923 15.2426 12.5162 14.9018 12.6402C14.5611 12.7641 14.1893 12.888 13.8485 13.0429C13.5077 13.1668 13.1669 13.3218 12.8261 13.4457C12.4853 13.5696 12.1755 13.7245 11.8347 13.8484C11.8657 13.5696 11.9277 13.2908 11.9586 13.0429C11.9896 12.7951 12.0516 12.5162 12.1135 12.2684C12.1755 12.0205 12.2065 11.7727 12.2685 11.5249C12.3304 11.277 12.3924 11.0601 12.4543 10.8123C12.7641 10.6884 13.074 10.5644 13.3838 10.4405C13.6936 10.3166 14.0034 10.1927 14.3442 10.0687C14.654 9.94482 14.9948 9.82089 15.3356 9.69697C15.6764 9.57305 15.9862 9.44912 16.327 9.3252C16.296 9.54206 16.265 9.78991 16.234 10.0068C16.203 10.2546 16.1721 10.4715 16.1411 10.7193C16.1101 10.9672 16.0791 11.215 16.0481 11.4629C15.9862 11.7417 15.9552 12.0205 15.9552 12.2684Z" fill="white"/>
<path d="M23.5456 10.0383C23.1428 10.1312 22.7401 10.2242 22.3683 10.3481C21.9656 10.441 21.5938 10.565 21.191 10.6579C20.7883 10.7509 20.4165 10.8748 20.0447 10.9987C19.673 11.1226 19.2702 11.2156 18.8984 11.3395C18.8984 11.0917 18.8984 10.8128 18.9294 10.565C18.9294 10.3171 18.9604 10.0693 18.9604 9.82143C18.9604 9.57358 18.9914 9.35671 18.9914 9.10886C19.0224 8.892 19.0224 8.64415 19.0533 8.42728C19.3941 8.33434 19.7659 8.21041 20.1067 8.11747C20.4785 8.02453 20.8193 7.9006 21.191 7.80766C21.5628 7.71472 21.9346 7.62177 22.2754 7.52883C22.6471 7.43589 23.0189 7.34294 23.3907 7.25C23.3907 7.46687 23.3907 7.68373 23.4217 7.9006C23.4217 8.11747 23.4527 8.33434 23.4527 8.58219C23.4527 8.83003 23.4836 9.0469 23.4836 9.29475C23.5146 9.51162 23.5146 9.75947 23.5456 10.0383Z" fill="white"/>
<path d="M24.2582 15.8928C23.8245 16.0167 23.3907 16.1097 22.957 16.2336C22.5232 16.3575 22.0895 16.4814 21.6868 16.6054C21.253 16.7293 20.8503 16.8532 20.4165 16.9771C20.0138 17.1011 19.58 17.225 19.1773 17.3489C19.1463 17.0081 19.1153 16.6673 19.0843 16.3575C19.0534 16.0167 19.0224 15.7069 19.0224 15.3971C18.9914 15.0873 18.9914 14.7775 18.9604 14.4677C18.9294 14.1579 18.9294 13.879 18.9294 13.5692C19.3322 13.4453 19.704 13.3214 20.1067 13.1974C20.5095 13.0735 20.9122 12.9806 21.315 12.8567C21.7177 12.7327 22.1205 12.6398 22.5232 12.5159C22.926 12.3919 23.3288 12.299 23.7625 12.2061C23.7935 12.4849 23.8245 12.7947 23.8554 13.0735C23.8864 13.3833 23.9174 13.6622 23.9794 13.972C24.0103 14.2818 24.0723 14.5916 24.1033 14.9324C24.1343 15.2422 24.1962 15.552 24.2582 15.8928Z" fill="white"/>
<path d="M15.9551 18.4032C15.5524 18.5271 15.1806 18.682 14.7778 18.8059C14.4061 18.9608 14.0033 19.0848 13.6315 19.2397C13.2598 19.3946 12.888 19.5185 12.5162 19.6734C12.1444 19.8283 11.8037 19.9522 11.4319 20.1071C11.4319 19.7663 11.4319 19.4256 11.4319 19.0848C11.4319 18.744 11.4319 18.4032 11.4629 18.0934C11.4629 17.7526 11.4938 17.4428 11.4938 17.133C11.5248 16.8231 11.5248 16.5133 11.5558 16.2035C11.8966 16.0486 12.2374 15.9247 12.5782 15.7698C12.919 15.6149 13.2907 15.491 13.6315 15.367C14.0033 15.2431 14.3441 15.0882 14.7159 14.9643C15.0877 14.8404 15.4594 14.6854 15.8312 14.5615C15.8312 14.8713 15.8312 15.1811 15.8312 15.46C15.8312 15.7698 15.8312 16.0796 15.8622 16.4204C15.8622 16.7302 15.8932 17.071 15.8932 17.4118C15.9241 17.7216 15.9241 18.0624 15.9551 18.4032Z" fill="white"/>
<path d="M9.3254 14.9943C9.01559 15.1492 8.73676 15.2732 8.42695 15.4281C8.14812 15.583 7.83831 15.7069 7.55948 15.8618C7.28065 16.0167 7.00182 16.1716 6.72299 16.2955C6.44416 16.4504 6.19631 16.6053 5.91748 16.7293C5.97944 16.4504 6.0414 16.1716 6.13435 15.8928C6.19631 15.6139 6.28925 15.3351 6.35122 15.0873C6.44416 14.8394 6.50612 14.5606 6.59906 14.3127C6.69201 14.0649 6.78495 13.817 6.84691 13.5692C7.09476 13.4143 7.34261 13.2904 7.59046 13.1355C7.83831 12.9806 8.11714 12.8566 8.36499 12.7017C8.64381 12.5468 8.89166 12.4229 9.17049 12.268C9.44932 12.1441 9.72815 11.9892 10.007 11.8652C9.94502 12.1131 9.85208 12.3299 9.79011 12.5778C9.72815 12.8256 9.66619 13.0735 9.60423 13.3213C9.54227 13.5692 9.4803 13.848 9.41834 14.0959C9.41834 14.4367 9.35638 14.7155 9.3254 14.9943Z" fill="white"/>
<path d="M16.8536 26.0553C16.4509 26.2102 16.0172 26.3341 15.6144 26.489C15.2117 26.6439 14.8089 26.7988 14.4061 26.9227C14.0034 27.0776 13.6006 27.2325 13.2289 27.3875C12.8261 27.5424 12.4543 27.6973 12.0826 27.8522C12.0206 27.5114 11.9896 27.2016 11.9586 26.8608C11.9277 26.551 11.8657 26.2102 11.8347 25.9004C11.8037 25.5905 11.7728 25.2498 11.7418 24.9399C11.7108 24.6301 11.6798 24.3203 11.6488 24.0105C11.6488 23.9176 11.6488 23.8556 11.6178 23.7627C11.6178 23.6697 11.6178 23.6078 11.5869 23.5148C11.5869 23.4219 11.5869 23.3599 11.5559 23.267C11.5559 23.174 11.5559 23.1121 11.5249 23.0191C11.8967 22.8642 12.2684 22.7093 12.6402 22.5854C13.012 22.4305 13.3838 22.2756 13.7865 22.1517C14.1583 21.9967 14.561 21.8728 14.9638 21.7179C15.3666 21.563 15.7693 21.4391 16.1721 21.2842C16.1721 21.3461 16.203 21.4391 16.203 21.501C16.203 21.594 16.234 21.656 16.234 21.7489C16.234 21.8418 16.265 21.9038 16.265 21.9967C16.265 22.0897 16.296 22.1517 16.296 22.2446C16.327 22.5544 16.3579 22.8642 16.4199 23.174C16.4509 23.4838 16.5129 23.7936 16.5438 24.1344C16.5748 24.4442 16.6368 24.785 16.6987 25.0949C16.7607 25.4047 16.7917 25.7145 16.8536 26.0553Z" fill="white"/>
<path d="M25.6213 23.2976C25.1566 23.4215 24.7229 23.5454 24.2581 23.6693C23.7934 23.7932 23.3597 23.9172 22.895 24.0721C22.4612 24.196 21.9965 24.3509 21.5628 24.4748C21.1291 24.5988 20.6953 24.7537 20.2616 24.8776C20.1996 24.5678 20.1377 24.227 20.0757 23.9172C20.0137 23.6074 19.9518 23.2666 19.9208 22.9568C19.8588 22.6469 19.8279 22.3371 19.7659 22.0273C19.7039 21.7175 19.6729 21.4077 19.611 21.0979C19.611 21.005 19.58 20.943 19.58 20.85C19.58 20.7571 19.549 20.6951 19.549 20.6022C19.549 20.5402 19.518 20.4473 19.518 20.3853C19.518 20.3234 19.4871 20.2304 19.4871 20.1685C19.9208 20.0445 20.3235 19.8896 20.7573 19.7657C21.191 19.6418 21.6248 19.5179 22.0585 19.3939C22.4922 19.27 22.926 19.1461 23.3597 19.0222C23.7934 18.8982 24.2272 18.7743 24.6919 18.6504C24.6919 18.7124 24.7229 18.8053 24.7229 18.8673C24.7229 18.9292 24.7538 19.0222 24.7538 19.0841C24.7538 19.1461 24.7848 19.239 24.7848 19.301C24.7848 19.363 24.8158 19.4559 24.8158 19.5179C24.8778 19.8277 24.9397 20.1065 25.0017 20.4163C25.0637 20.7261 25.1256 21.0359 25.1876 21.3457C25.2495 21.6556 25.3115 21.9654 25.3735 22.2752C25.4974 22.6779 25.5594 22.9877 25.6213 23.2976Z" fill="white"/>
<path d="M27.697 31.6932C27.2323 31.8171 26.7676 31.972 26.3029 32.1269C25.8381 32.2818 25.3734 32.4058 24.9087 32.5607C24.444 32.7156 24.0103 32.8395 23.5455 32.9944C23.0808 33.1493 22.6471 33.2732 22.2134 33.4281C22.0894 32.9944 21.9965 32.5607 21.8726 32.1269C21.7486 31.6932 21.6557 31.2595 21.5628 30.8257C21.4698 30.392 21.3459 29.9583 21.2529 29.5245C21.16 29.0908 21.0671 28.6571 20.9741 28.2543C21.4079 28.0994 21.8726 27.9755 22.3063 27.8206C22.74 27.6657 23.2048 27.5417 23.6695 27.4178C24.1342 27.2939 24.5679 27.139 25.0326 27.0151C25.4974 26.8911 25.9621 26.7362 26.4268 26.6123C26.5197 27.0151 26.6437 27.4488 26.7366 27.8825C26.8295 28.3163 26.9535 28.719 27.0464 29.1528C27.1703 29.5865 27.2633 30.0202 27.3872 30.454C27.4492 30.8257 27.5731 31.2595 27.697 31.6932Z" fill="white"/>
<path d="M18.7127 34.6057C18.2789 34.7607 17.8762 34.9156 17.4424 35.0705C17.0397 35.2254 16.606 35.3803 16.2032 35.5352C15.8004 35.6901 15.3977 35.845 14.9949 35.9999C14.5922 36.1548 14.1894 36.3097 13.8177 36.4646C13.6937 36.0309 13.6008 35.5971 13.4769 35.1634C13.3839 34.7297 13.26 34.2959 13.1671 33.8622C13.0741 33.4285 12.9812 32.9947 12.8882 32.561C12.7953 32.1273 12.7023 31.6935 12.6404 31.2908C13.0122 31.1359 13.4149 30.981 13.8177 30.8261C14.2204 30.6712 14.6232 30.5162 15.0259 30.3613C15.4287 30.2064 15.8314 30.0515 16.2652 29.8966C16.6679 29.7417 17.1017 29.5868 17.5044 29.4629C17.5974 29.8966 17.6903 30.3304 17.7832 30.7331C17.8762 31.1668 17.9691 31.6006 18.0931 32.0343C18.186 32.4681 18.3099 32.9018 18.4029 33.3355C18.4958 33.7073 18.5887 34.141 18.7127 34.6057Z" fill="white"/>
<path d="M3.00516 32.1582C2.72633 32.3131 2.47848 32.4681 2.23064 32.623C1.98279 32.7779 1.73494 32.9328 1.48709 33.0877C1.23924 33.2426 1.02238 33.3975 0.774527 33.5214C0.557659 33.6763 0.340792 33.8312 0.123925 33.9551C0.0929437 33.6453 0.0619612 33.3045 0.0619612 32.9947C0.0309801 32.6849 0.0309806 32.3751 0.0309806 32.0343C0.0309806 31.7245 0 31.4147 0 31.1049C0 30.7951 0 30.4853 0 30.1755C0 30.0825 0 30.0206 0 29.9276C0 29.8347 0 29.7727 0 29.6798C0 29.5868 0 29.5249 0 29.4319C0 29.339 0 29.277 0 29.1841C0.216867 29.0292 0.433734 28.8742 0.650602 28.7193C0.867469 28.5644 1.08434 28.4095 1.33218 28.2546C1.58003 28.0997 1.7969 27.9448 2.04475 27.7899C2.2926 27.635 2.54045 27.4801 2.7883 27.3252C2.7883 27.4181 2.7883 27.4801 2.7883 27.573C2.7883 27.666 2.7883 27.728 2.7883 27.8209C2.7883 27.9138 2.7883 27.9758 2.7883 28.0687C2.7883 28.1617 2.7883 28.2236 2.7883 28.3166C2.7883 28.6264 2.7883 28.9362 2.81928 29.246C2.81928 29.5558 2.85026 29.8656 2.85026 30.2064C2.88124 30.5162 2.88124 30.857 2.91222 31.1669C2.97418 31.5076 2.97418 31.8484 3.00516 32.1582Z" fill="white"/>
<path d="M9.17026 29.0606C8.82947 29.2155 8.48868 29.3704 8.14789 29.5253C7.80709 29.6802 7.4663 29.8351 7.15649 29.99C6.84668 30.1449 6.50589 30.2998 6.19608 30.4547C5.88627 30.6096 5.57646 30.7645 5.26665 30.9195C5.23567 30.5787 5.20469 30.2688 5.1737 29.9281C5.14272 29.6182 5.11174 29.2775 5.11174 28.9676C5.08076 28.6578 5.08076 28.317 5.04978 28.0072C5.0188 27.6974 5.0188 27.3876 5.0188 27.0778C5.0188 26.9849 5.0188 26.9229 5.0188 26.8299C5.0188 26.737 5.0188 26.675 5.0188 26.5821C5.0188 26.4892 5.0188 26.4272 5.0188 26.3343C5.0188 26.2413 5.0188 26.1793 5.0188 26.0864C5.29763 25.9315 5.60744 25.7766 5.91725 25.6217C6.22706 25.4668 6.53687 25.3119 6.84668 25.157C7.15649 25.0021 7.49728 24.8472 7.80709 24.6923C8.14789 24.5373 8.4577 24.3824 8.79849 24.2275C8.79849 24.3205 8.79849 24.3824 8.79849 24.4754C8.79849 24.5683 8.79849 24.6303 8.79849 24.7232C8.79849 24.8162 8.79849 24.8781 8.79849 24.9711C8.79849 25.064 8.79849 25.126 8.79849 25.2189C8.82947 25.5287 8.82947 25.8386 8.86045 26.1484C8.89143 26.4582 8.92241 26.799 8.9534 27.1088C8.98438 27.4186 9.01536 27.7594 9.04634 28.0692C9.1083 28.41 9.13928 28.7508 9.17026 29.0606Z" fill="white"/>
<path d="M10.8433 37.6108C10.4716 37.7657 10.1308 37.9206 9.78999 38.0755C9.4492 38.2304 9.10841 38.3853 8.76761 38.5093C8.42682 38.6642 8.11701 38.8191 7.77622 38.943C7.46641 39.0979 7.12562 39.2528 6.81581 39.3767C6.69188 38.943 6.59894 38.5092 6.506 38.0755C6.41305 37.6418 6.32011 37.208 6.22717 36.7743C6.13422 36.3406 6.04128 35.9068 5.97932 35.5041C5.88637 35.0704 5.82441 34.6676 5.76245 34.2339C6.07226 34.079 6.38207 33.9241 6.69188 33.7691C7.00169 33.6142 7.34249 33.4593 7.6523 33.3044C7.99309 33.1495 8.33388 32.9946 8.67467 32.8397C9.01546 32.6848 9.35626 32.5299 9.72803 32.375C9.78999 32.8087 9.88293 33.2425 9.97588 33.6452C10.0688 34.079 10.1618 34.5127 10.2547 34.9464C10.3476 35.3802 10.4406 35.8139 10.5645 36.2476C10.6265 36.7433 10.7194 37.1771 10.8433 37.6108Z" fill="white"/>
<path d="M4.49219 40.5538C4.21336 40.7087 3.93453 40.8326 3.68668 40.9876C3.43883 41.1425 3.16 41.2664 2.91215 41.3903C2.66431 41.5142 2.41646 41.6691 2.19959 41.7931C1.95174 41.917 1.73487 42.0719 1.51801 42.1958C1.42506 41.7931 1.30114 41.3593 1.2082 40.9566C1.11525 40.5538 1.02231 40.1201 0.929366 39.7173C0.836423 39.3146 0.774459 38.8808 0.712497 38.4781C0.650535 38.0753 0.588573 37.6416 0.526611 37.2388C0.743479 37.0839 0.960348 36.96 1.2082 36.8051C1.42506 36.6502 1.67291 36.5263 1.92076 36.3714C2.16861 36.2165 2.41646 36.0925 2.66431 35.9376C2.91215 35.7827 3.19098 35.6278 3.46981 35.5039C3.53177 35.9376 3.59374 36.3404 3.68668 36.7741C3.74864 37.2079 3.84159 37.6106 3.93453 38.0444C4.02747 38.4781 4.12042 38.8808 4.21336 39.3146C4.27532 39.7173 4.36826 40.1201 4.49219 40.5538Z" fill="white"/>
<path d="M16.6369 7.6519C16.3271 7.77583 15.9863 7.86877 15.6765 7.99269C15.3667 8.11662 15.0569 8.24054 14.7471 8.33349C14.4373 8.45741 14.1275 8.58133 13.8486 8.70526C13.5388 8.82918 13.26 8.95311 12.9502 9.07703C13.0122 8.86016 13.1051 8.67428 13.1671 8.48839C13.229 8.30251 13.322 8.11662 13.3839 7.93073C13.4769 7.74485 13.5388 7.55896 13.6318 7.40406C13.7247 7.21817 13.7867 7.06326 13.8796 6.90836C14.1585 6.78443 14.4373 6.69149 14.6851 6.56757C14.964 6.44364 15.2428 6.3507 15.5216 6.22677C15.8005 6.10285 16.0793 6.00991 16.3891 5.88598C16.6679 5.79304 16.9777 5.66912 17.2566 5.57617C17.1946 5.73108 17.1326 5.88598 17.0707 6.07187C17.0087 6.22677 16.9468 6.41266 16.9158 6.59855C16.8538 6.78443 16.7918 6.97032 16.7609 7.12523C16.7299 7.28013 16.6679 7.46602 16.6369 7.6519Z" fill="white"/>
<path d="M10.6885 10.0999C10.4097 10.2239 10.1618 10.3788 9.88298 10.5027C9.63513 10.6266 9.3563 10.7815 9.10846 10.9055C8.86061 11.0294 8.61276 11.1843 8.36491 11.3082C8.11706 11.4321 7.86921 11.587 7.65234 11.711C7.74529 11.4941 7.86921 11.2772 7.96215 11.0604C8.0551 10.8435 8.17902 10.6576 8.27197 10.4407C8.39589 10.2549 8.48883 10.038 8.61276 9.8521C8.73668 9.66621 8.82963 9.48033 8.95355 9.29444C9.17042 9.17052 9.38728 9.04659 9.63513 8.89169C9.852 8.76776 10.0998 8.64384 10.3167 8.51991C10.5646 8.39599 10.7814 8.27206 11.0293 8.14814C11.2771 8.02422 11.525 7.90029 11.7728 7.77637C11.6799 7.96225 11.5869 8.11716 11.494 8.30305C11.4011 8.48893 11.3081 8.67482 11.2152 8.8607C11.1222 9.04659 11.0293 9.23248 10.9363 9.44935C10.8744 9.69719 10.7814 9.91406 10.6885 10.0999Z" fill="white"/>
<path d="M48.7643 4.24424C48.5164 4.21326 48.2686 4.18228 48.0207 4.12031C47.7729 4.08933 47.525 4.05835 47.2462 4.02737C46.9983 3.99639 46.7195 3.96541 46.4717 3.93443C46.1928 3.90345 45.945 3.87247 45.6661 3.84148C45.5422 3.68658 45.4183 3.53167 45.3254 3.40775C45.2014 3.25284 45.1085 3.12892 44.9846 3.005C44.8606 2.88107 44.7677 2.72617 44.6438 2.60224C44.5198 2.47832 44.4269 2.35439 44.303 2.23047C44.5508 2.26145 44.8297 2.29243 45.0775 2.32341C45.3254 2.35439 45.5732 2.38537 45.8211 2.41635C46.0689 2.44734 46.3167 2.47832 46.5646 2.5093C46.8124 2.54028 47.0293 2.57126 47.2772 2.63322C47.4011 2.75715 47.525 2.88107 47.6489 3.005C47.7729 3.12892 47.8968 3.25284 48.0207 3.40775C48.1446 3.53167 48.2686 3.68658 48.3925 3.8105C48.5164 3.93443 48.6403 4.08933 48.7643 4.24424Z" fill="white"/>
<path d="M29.9277 1.58016C29.6179 1.61114 29.3081 1.67311 28.9983 1.70409C28.6884 1.73507 28.3786 1.79703 28.0688 1.85899C27.759 1.92095 27.4492 1.95193 27.1394 2.0139C26.8296 2.07586 26.5198 2.13782 26.21 2.1688C26.21 2.04488 26.21 1.95194 26.2409 1.82801C26.2409 1.73507 26.2719 1.61114 26.2719 1.5182C26.2719 1.42526 26.3029 1.33231 26.3029 1.23937C26.3029 1.14643 26.3339 1.05348 26.3339 0.991522C26.6127 0.92956 26.8915 0.898579 27.1704 0.836617C27.4492 0.774655 27.728 0.743673 28.0069 0.712692C28.2857 0.681711 28.5645 0.61975 28.8434 0.588768C29.1222 0.557787 29.401 0.526806 29.6798 0.464844C29.6798 0.526806 29.7108 0.619749 29.7108 0.712692C29.7108 0.805635 29.7418 0.898579 29.7418 0.991522C29.7418 1.08447 29.7728 1.17741 29.8038 1.27035C29.8967 1.36329 29.8967 1.45624 29.9277 1.58016Z" fill="white"/>
<path d="M35.876 1.08434C35.5972 1.08434 35.2874 1.11532 35.0086 1.11532C34.7297 1.11532 34.4199 1.1463 34.1411 1.1463C33.8313 1.17728 33.5524 1.17728 33.2426 1.20826C32.9328 1.23924 32.654 1.27022 32.3442 1.27022C32.3132 1.17728 32.2822 1.05336 32.2512 0.960413C32.2203 0.867469 32.1893 0.774527 32.1583 0.681584C32.1273 0.588641 32.0963 0.495698 32.0654 0.433735C32.0344 0.340792 32.0034 0.278829 31.9724 0.185886C32.2512 0.154905 32.5301 0.154906 32.8089 0.123925C33.0877 0.0929437 33.3666 0.0929434 33.6144 0.0619624C33.8932 0.0619624 34.1411 0.0309806 34.4199 0.0309806C34.6987 0.0309806 34.9466 0 35.2254 0C35.2874 0.0619621 35.3184 0.154906 35.3803 0.216868C35.4423 0.309811 35.5043 0.371773 35.5352 0.464716C35.5972 0.557659 35.6592 0.650603 35.7211 0.743546C35.7521 0.898451 35.8141 0.991394 35.876 1.08434Z" fill="white"/>
<path d="M37.2393 3.71736C36.9294 3.71736 36.5886 3.74834 36.2479 3.77932C35.9071 3.8103 35.5973 3.8103 35.2565 3.84129C34.9157 3.87227 34.5749 3.90325 34.2651 3.93423C33.9243 3.96521 33.5835 3.99619 33.2427 4.02717C33.1807 3.87227 33.1497 3.68638 33.0878 3.53148C33.0258 3.37657 32.9948 3.22166 32.9329 3.06676C32.8709 2.91185 32.8399 2.78793 32.778 2.63302C32.747 2.5091 32.685 2.35419 32.6541 2.23027C32.9639 2.19929 33.2737 2.16831 33.6145 2.13733C33.9243 2.10635 34.2341 2.07536 34.5439 2.07536C34.8537 2.04438 35.1635 2.04438 35.4733 2.0134C35.7831 1.98242 36.0929 1.98242 36.4028 1.98242C36.4647 2.10635 36.5267 2.23027 36.6196 2.35419C36.6816 2.47812 36.7436 2.63302 36.8365 2.75695C36.8985 2.91185 36.9914 3.03578 37.0534 3.19068C37.0843 3.40755 37.1773 3.56246 37.2393 3.71736Z" fill="white"/>
<path d="M30.4853 4.33694C30.1446 4.3989 29.7728 4.42988 29.432 4.49185C29.0912 4.55381 28.7194 4.61577 28.3786 4.67773C28.0378 4.73969 27.6661 4.80166 27.3253 4.86362C26.9845 4.92558 26.6127 4.98754 26.2719 5.08049C26.2719 4.8946 26.2409 4.73969 26.2409 4.55381C26.2409 4.3989 26.21 4.21302 26.21 4.05811C26.21 3.90321 26.21 3.7483 26.21 3.59339C26.21 3.43849 26.21 3.31457 26.21 3.15966C26.5508 3.0977 26.8606 3.03574 27.2014 2.97377C27.5421 2.91181 27.852 2.84985 28.1927 2.81887C28.5335 2.75691 28.8434 2.72592 29.1841 2.66396C29.494 2.602 29.8347 2.57102 30.1446 2.54004C30.1755 2.66396 30.2065 2.81887 30.2375 2.94279C30.2685 3.0977 30.2995 3.22162 30.3304 3.37653C30.3614 3.53143 30.3924 3.68634 30.4234 3.84124C30.4234 3.99615 30.4544 4.18204 30.4853 4.33694Z" fill="white"/>
<path d="M53.2564 5.20454C53.0395 5.14258 52.8536 5.08061 52.6368 5.04963C52.4199 4.98767 52.203 4.95669 51.9862 4.89473C51.7693 4.83277 51.5524 4.80178 51.3356 4.73982C51.1187 4.67786 50.8709 4.64688 50.654 4.58492C50.5301 4.43001 50.3752 4.30609 50.2512 4.15118C50.1273 4.02726 49.9724 3.87235 49.8485 3.74843C49.7246 3.6245 49.5696 3.50058 49.4457 3.37666C49.3218 3.25273 49.1669 3.12881 49.043 3.00488C49.2598 3.06684 49.4767 3.09783 49.6936 3.15979C49.9104 3.22175 50.1273 3.25273 50.3132 3.31469C50.5301 3.37666 50.7159 3.40764 50.9328 3.4696C51.1187 3.53156 51.3356 3.59352 51.5215 3.6245C51.6764 3.74843 51.8003 3.87235 51.9552 3.99628C52.1101 4.1202 52.234 4.24412 52.3889 4.36805C52.5438 4.49197 52.6678 4.64688 52.8227 4.7708C52.9776 4.89473 53.1325 5.04963 53.2564 5.20454Z" fill="white"/>
<path d="M21.4698 43.4976C21.0361 43.6525 20.6333 43.8074 20.2305 43.9313C19.8278 44.0862 19.425 44.2411 19.0223 44.3651C18.6195 44.52 18.2168 44.6439 17.814 44.7988C17.4113 44.9537 17.0395 45.0776 16.6367 45.2325C16.4818 44.7988 16.296 44.3651 16.141 43.9003C15.9861 43.4666 15.8312 43.0329 15.6763 42.5682C15.5214 42.1344 15.3665 41.6697 15.2426 41.236C15.0877 40.8022 14.9638 40.3375 14.8398 39.9038C15.2426 39.7489 15.6144 39.594 16.0171 39.4391C16.4199 39.2842 16.8226 39.1293 17.2254 38.9744C17.6281 38.8194 18.0309 38.6645 18.4646 38.5096C18.8674 38.3547 19.3011 38.1998 19.7349 38.0449C19.8588 38.4787 20.0137 38.9434 20.1376 39.3771C20.2925 39.8108 20.4164 40.2756 20.5713 40.7093C20.7262 41.143 20.8811 41.6077 21.0051 42.0415C21.16 42.5991 21.3149 43.0329 21.4698 43.4976Z" fill="white"/>
<path d="M30.2995 40.5231C29.8348 40.678 29.3701 40.8019 28.9363 40.9568C28.4716 41.1117 28.0379 41.2356 27.5732 41.3905C27.1084 41.5455 26.6747 41.7004 26.241 41.8243C25.8072 41.9792 25.3425 42.1341 24.9088 42.258C24.7539 41.8243 24.599 41.3596 24.4751 40.9258C24.3201 40.4921 24.1962 40.0274 24.0413 39.5936C23.8864 39.1599 23.7625 38.6952 23.6076 38.2615C23.4837 37.8277 23.3288 37.363 23.2048 36.9293C23.6386 36.7744 24.1033 36.6195 24.537 36.4955C25.0017 36.3406 25.4355 36.2167 25.9002 36.0618C26.3649 35.9069 26.8296 35.783 27.2634 35.6281C27.7281 35.4732 28.1928 35.3492 28.6575 35.1943C28.7814 35.6281 28.9053 36.0928 29.0603 36.5265C29.1842 36.9603 29.3391 37.425 29.463 37.8587C29.5869 38.2924 29.7418 38.7572 29.8658 39.1909C30.0207 39.6556 30.1446 40.0893 30.2995 40.5231Z" fill="white"/>
<path d="M33.3046 49.2288C32.8709 49.3837 32.4371 49.5076 32.0034 49.6625C31.5697 49.8174 31.1359 49.9414 30.7332 50.0963C30.2994 50.2512 29.8967 50.3751 29.4629 50.53C29.0292 50.6849 28.6265 50.8088 28.2237 50.9637C28.0378 50.53 27.8829 50.1272 27.697 49.6935C27.5111 49.2598 27.3562 48.826 27.1704 48.4233C27.0154 47.9896 26.8296 47.5558 26.6747 47.1221C26.5197 46.6883 26.3339 46.2546 26.179 45.8209C26.6127 45.666 27.0464 45.5111 27.4802 45.3871C27.9139 45.2322 28.3476 45.0773 28.8123 44.9534C29.2461 44.7985 29.7108 44.6436 30.1445 44.5197C30.5783 44.3648 31.043 44.2408 31.4767 44.0859C31.6316 44.5197 31.7865 44.9534 31.9414 45.3871C32.0963 45.8209 32.2512 46.2546 32.4062 46.6883C32.5611 47.1221 32.716 47.5558 32.8709 47.9895C32.9948 48.3923 33.1497 48.7951 33.3046 49.2288Z" fill="white"/>
<path d="M24.9398 52.1099C24.537 52.2648 24.1343 52.3888 23.7625 52.5437C23.3597 52.6986 22.988 52.8225 22.5852 52.9464C22.2134 53.0703 21.8107 53.2252 21.4389 53.3492C21.0671 53.4731 20.6954 53.628 20.3236 53.7519C20.1067 53.3492 19.9208 52.9154 19.704 52.5127C19.5181 52.1099 19.3012 51.6762 19.1153 51.2734C18.9294 50.8397 18.7435 50.4369 18.5577 50.0032C18.3718 49.5695 18.1859 49.1357 18 48.733C18.3718 48.5781 18.7745 48.4542 19.1463 48.2993C19.5491 48.1443 19.9208 48.0204 20.3236 47.8655C20.7263 47.7106 21.1291 47.5867 21.5318 47.4318C21.9346 47.2769 22.3373 47.153 22.7711 46.998C22.957 47.4318 23.1119 47.8655 23.2978 48.2993C23.4837 48.733 23.6386 49.1667 23.8244 49.6005C24.0103 50.0342 24.1962 50.4369 24.3821 50.8707C24.568 51.2734 24.7539 51.7072 24.9398 52.1099Z" fill="white"/>
<path d="M17.5044 54.8366C17.1636 54.9605 16.8228 55.0844 16.482 55.2084C16.1412 55.3323 15.8314 55.4562 15.4906 55.5801C15.1808 55.7041 14.84 55.828 14.5302 55.9519C14.2204 56.0758 13.9106 56.1998 13.6008 56.2927C13.3839 55.8899 13.167 55.5182 12.9502 55.1154C12.7333 54.7127 12.5164 54.3099 12.2996 53.9072C12.0827 53.5044 11.8968 53.1016 11.6799 52.6679C11.4631 52.2652 11.2772 51.8314 11.0913 51.4287C11.4011 51.3047 11.7109 51.1808 12.0207 51.0569C12.3306 50.933 12.6713 50.809 12.9812 50.6541C13.3219 50.5302 13.6627 50.3753 14.0035 50.2514C14.3443 50.1275 14.6851 49.9726 15.0569 49.8486C15.2428 50.2824 15.4287 50.6851 15.6455 51.1189C15.8314 51.5526 16.0483 51.9553 16.2342 52.3891C16.4201 52.7918 16.6369 53.2256 16.8538 53.6283C17.0707 54.0001 17.2875 54.4338 17.5044 54.8366Z" fill="white"/>
<path d="M54.8985 33.8619C54.5577 33.9239 54.2169 34.0168 53.8761 34.0788C53.5353 34.1407 53.1945 34.2337 52.8227 34.3266C52.4819 34.4196 52.1102 34.4815 51.7694 34.5745C51.3976 34.6674 51.0568 34.7604 50.685 34.8223C50.5921 34.4196 50.4682 33.9858 50.3752 33.5831C50.2823 33.1803 50.1584 32.7466 50.0654 32.3438C49.9725 31.9411 49.8486 31.5383 49.7556 31.1046C49.6627 30.7018 49.5387 30.2991 49.4458 29.8963C49.8176 29.8344 50.1893 29.7414 50.5611 29.6795C50.9329 29.6175 51.3047 29.5246 51.6455 29.4626C52.0172 29.4006 52.358 29.3387 52.6988 29.2767C53.0396 29.2147 53.3804 29.1528 53.7212 29.0908C53.8141 29.4936 53.9381 29.8653 54.031 30.2681C54.1239 30.6709 54.2169 31.0426 54.3408 31.4454C54.4338 31.8481 54.5267 32.2509 54.6196 32.6227C54.7126 33.0564 54.8055 33.4592 54.8985 33.8619Z" fill="white"/>
<path d="M60.9087 32.6537C60.6299 32.7156 60.3511 32.7466 60.0722 32.8086C59.7934 32.8705 59.5146 32.9015 59.2358 32.9635C58.9569 33.0254 58.6471 33.0874 58.3683 33.1184C58.0585 33.1803 57.7796 33.2423 57.4698 33.3043C57.3769 32.9015 57.284 32.5297 57.222 32.127C57.129 31.7242 57.0361 31.3524 56.9432 30.9497C56.8502 30.5779 56.7573 30.1752 56.6643 29.8034C56.5714 29.4316 56.4784 29.0289 56.3855 28.6571C56.6953 28.5951 57.0051 28.5642 57.3149 28.5332C57.6247 28.5022 57.9036 28.4402 58.2134 28.4092C58.4922 28.3783 58.802 28.3163 59.0809 28.2853C59.3597 28.2543 59.6385 28.2234 59.9173 28.1924C60.0103 28.5642 60.1032 28.9359 60.1962 29.3077C60.2891 29.6795 60.3821 30.0512 60.475 30.423C60.5679 30.7948 60.6299 31.1666 60.7228 31.5383C60.7538 31.9101 60.8468 32.2819 60.9087 32.6537Z" fill="white"/>
<path d="M62.1791 40.2446C61.9313 40.3066 61.6524 40.3996 61.4046 40.4615C61.1257 40.5235 60.8779 40.6164 60.5991 40.6784C60.3202 40.7403 60.0414 40.8333 59.7626 40.9262C59.4837 41.0192 59.2049 41.0811 58.8951 41.1741C58.8331 40.7713 58.7712 40.3996 58.7092 39.9968C58.6473 39.594 58.5853 39.2223 58.5233 38.8195C58.4614 38.4168 58.3994 38.045 58.3065 37.6422C58.2445 37.2395 58.1516 36.8677 58.0896 36.465C58.3994 36.403 58.6782 36.3101 58.988 36.2481C59.2669 36.1861 59.5767 36.1242 59.8555 36.0622C60.1344 36.0002 60.4132 35.9383 60.692 35.8763C60.9708 35.8144 61.2187 35.7524 61.4975 35.6904C61.5595 36.0622 61.6214 36.465 61.6834 36.8367C61.7454 37.2085 61.8073 37.6113 61.8693 37.983C61.9313 38.3548 61.9932 38.7266 62.0242 39.1293C62.0552 39.4701 62.1171 39.8729 62.1791 40.2446Z" fill="white"/>
<path d="M56.4784 41.8558C56.1686 41.9487 55.8588 42.0417 55.518 42.1346C55.2082 42.2275 54.8674 42.3205 54.5266 42.4134C54.1858 42.5064 53.845 42.5993 53.5352 42.7232C53.1944 42.8162 52.8536 42.9401 52.5128 43.0331C52.4199 42.6303 52.3579 42.2275 52.265 41.8248C52.172 41.422 52.0791 41.0193 52.0171 40.5856C51.9242 40.1828 51.8312 39.7491 51.7383 39.3463C51.6454 38.9436 51.5524 38.5098 51.4595 38.1071C51.8312 38.0141 52.172 37.9212 52.5438 37.8282C52.8846 37.7353 53.2564 37.6423 53.5972 37.5494C53.938 37.4565 54.2787 37.3635 54.6195 37.3016C54.9603 37.2086 55.2701 37.1467 55.6109 37.0537C55.7039 37.4565 55.7658 37.8592 55.8588 38.262C55.9517 38.6647 56.0137 39.0675 56.0756 39.4702C56.1376 39.873 56.2306 40.2757 56.2925 40.6785C56.3545 41.0503 56.4164 41.453 56.4784 41.8558Z" fill="white"/>
<path d="M39.315 37.8276C38.8813 37.9515 38.4475 38.0754 37.9828 38.1994C37.5491 38.3233 37.0844 38.4472 36.6506 38.6021C36.2169 38.7261 35.7522 38.881 35.3184 39.0049C34.8537 39.1288 34.42 39.2837 33.9553 39.4076C33.8314 38.9739 33.6764 38.5402 33.5525 38.0754C33.4286 37.6417 33.2737 37.208 33.1498 36.7433C33.0258 36.3095 32.9019 35.8758 32.747 35.4111C32.6231 34.9773 32.4992 34.5436 32.3752 34.0789C32.84 33.955 33.3047 33.831 33.7694 33.6761C34.2341 33.5522 34.6988 33.4283 35.1326 33.3044C35.5973 33.1804 36.031 33.0565 36.4957 32.9326C36.9604 32.8087 37.3942 32.6847 37.8279 32.5918C37.9518 33.0255 38.0758 33.4593 38.1997 33.893C38.3236 34.3267 38.4475 34.7605 38.5715 35.1942C38.6954 35.6279 38.8193 36.0617 38.9432 36.4954C39.0672 36.9291 39.1911 37.3939 39.315 37.8276Z" fill="white"/>
<path d="M47.6178 35.5658C47.2151 35.6588 46.8433 35.7517 46.4405 35.8756C46.0378 35.9686 45.635 36.0925 45.2323 36.1854C44.8295 36.2784 44.4268 36.4023 43.993 36.5262C43.5903 36.6501 43.1565 36.7431 42.7538 36.867C42.6299 36.4333 42.5059 35.9995 42.413 35.5658C42.2891 35.1321 42.1652 34.6983 42.0722 34.2646C41.9483 33.8309 41.8244 33.3971 41.7314 32.9944C41.6075 32.5606 41.4836 32.1579 41.3906 31.7242C41.8244 31.6312 42.2581 31.5073 42.6609 31.4143C43.0946 31.3214 43.4973 31.2285 43.9311 31.1045C44.3338 31.0116 44.7676 30.9186 45.1703 30.8257C45.5731 30.7328 45.9758 30.6398 46.3786 30.5469C46.5025 30.9496 46.5954 31.3834 46.7194 31.7861C46.8433 32.1889 46.9362 32.6226 47.0602 33.0254C47.1841 33.4281 47.277 33.8618 47.4009 34.2646C47.4009 34.7293 47.5249 35.1631 47.6178 35.5658Z" fill="white"/>
<path d="M49.6317 43.9316C49.2599 44.0555 48.8882 44.1484 48.5164 44.2724C48.1446 44.3963 47.7729 44.5202 47.3701 44.6441C46.9983 44.7681 46.5956 44.892 46.2238 45.0159C45.821 45.1398 45.4493 45.2638 45.0465 45.3877C44.9226 44.9849 44.8297 44.5512 44.7057 44.1175C44.5818 43.6837 44.4889 43.281 44.3649 42.8472C44.241 42.4135 44.1481 42.0108 44.0241 41.577C43.9002 41.1433 43.8073 40.7096 43.6833 40.3068C44.0861 40.1829 44.5198 40.0589 44.9226 39.966C45.3253 39.8421 45.7281 39.7491 46.1309 39.6252C46.5336 39.5013 46.9364 39.4083 47.3081 39.2844C47.7109 39.1605 48.0827 39.0676 48.4854 38.9746C48.5784 39.4083 48.7023 39.8111 48.7952 40.2448C48.8882 40.6786 48.9811 41.0813 49.105 41.4841C49.198 41.8868 49.2909 42.3206 49.3839 42.7233C49.4458 43.0951 49.5388 43.5288 49.6317 43.9316Z" fill="white"/>
<path d="M41.7934 46.4095C41.3906 46.5334 40.9569 46.6883 40.5542 46.8122C40.1514 46.9361 39.7177 47.091 39.2839 47.215C38.8502 47.3389 38.4474 47.4938 38.0137 47.6177C37.58 47.7726 37.1462 47.8966 36.7435 48.0515C36.5886 47.6177 36.4647 47.215 36.3098 46.7812C36.1548 46.3475 36.0309 45.9138 35.876 45.48C35.7211 45.0463 35.5972 44.6126 35.4423 44.1788C35.2874 43.7451 35.1635 43.3114 35.0085 42.8776C35.4423 42.7227 35.907 42.5988 36.3407 42.4749C36.7745 42.3509 37.2082 42.196 37.6729 42.0721C38.1067 41.9482 38.5404 41.7933 38.9741 41.6694C39.4079 41.5454 39.8416 41.4215 40.2753 41.2666C40.3993 41.7003 40.5232 42.1341 40.6471 42.5678C40.771 43.0015 40.895 43.4353 41.0189 43.869C41.1428 44.3027 41.2667 44.7365 41.3906 45.1392C41.5456 45.573 41.6695 46.0067 41.7934 46.4095Z" fill="white"/>
<path d="M66.6403 39.0359C66.4544 39.0978 66.2375 39.1288 66.0517 39.1908C65.8348 39.2527 65.6489 39.2837 65.432 39.3457C65.2152 39.4076 64.9983 39.4696 64.7814 39.5316C64.5646 39.5935 64.3477 39.6555 64.0998 39.7174C64.0689 39.3457 64.0069 38.9739 63.9759 38.6021C63.9449 38.2304 63.883 37.8586 63.821 37.4868C63.7591 37.115 63.7281 36.7433 63.6661 36.3715C63.6042 35.9997 63.5422 35.6279 63.4802 35.2562C63.7281 35.1942 63.9449 35.1632 64.1928 35.1013C64.4097 35.0703 64.6575 35.0083 64.8744 34.9773C65.0912 34.9464 65.3081 34.8844 65.525 34.8534C65.7418 34.8224 65.9277 34.7915 66.1446 34.7295C66.2066 35.0703 66.2375 35.4421 66.2995 35.7828C66.3615 36.1546 66.3924 36.4954 66.4234 36.8672C66.4544 37.239 66.5164 37.5797 66.5474 37.9515C66.5783 38.3233 66.6093 38.6951 66.6403 39.0359Z" fill="white"/>
<path d="M28.9054 59.9485C28.5336 60.0724 28.1928 60.1963 27.821 60.3203C27.4493 60.4442 27.1085 60.5681 26.7677 60.692C26.4269 60.8159 26.0551 60.9399 25.7143 61.0638C25.3735 61.1877 25.0328 61.3116 24.692 61.4356C24.4751 61.0948 24.2272 60.723 24.0104 60.3512C23.7935 59.9795 23.5457 59.6077 23.3288 59.2359C23.1119 58.8641 22.8951 58.4924 22.6782 58.1206C22.4613 57.7488 22.2445 57.3461 22.0276 56.9743C22.3994 56.8504 22.7402 56.7265 23.1119 56.5715C23.4837 56.4476 23.8555 56.3237 24.2272 56.1688C24.599 56.0449 24.9708 55.89 25.3426 55.766C25.7143 55.6421 26.1171 55.4872 26.4889 55.3633C26.6747 55.766 26.8916 56.1378 27.0775 56.5406C27.2634 56.9433 27.4803 57.3151 27.6661 57.6869C27.852 58.0586 28.0689 58.4304 28.2858 58.8022C28.5026 59.2049 28.6885 59.5767 28.9054 59.9485Z" fill="white"/>
<path d="M22.0585 62.3339C21.7487 62.4578 21.4389 62.5508 21.1291 62.6747C20.8192 62.7676 20.5094 62.8915 20.2306 62.9845C19.9208 63.0774 19.642 63.2014 19.3631 63.2943C19.0843 63.3872 18.7745 63.4802 18.4957 63.6041C18.2478 63.2633 17.969 62.9225 17.7211 62.5817C17.4733 62.2409 17.2254 61.9001 16.9776 61.5284C16.7297 61.1876 16.4819 60.8158 16.234 60.444C15.9862 60.0723 15.7384 59.7005 15.5215 59.3287C15.8003 59.2048 16.1101 59.1118 16.4199 58.9879C16.7297 58.864 17.0396 58.7711 17.3494 58.6471C17.6592 58.5232 17.969 58.4303 18.3098 58.3063C18.6196 58.1824 18.9604 58.0585 19.3012 57.9346C19.518 58.3063 19.7659 58.7091 19.9828 59.0809C20.1996 59.4526 20.4475 59.8244 20.6953 60.1962C20.9432 60.568 21.16 60.9088 21.4079 61.2805C21.5938 61.6523 21.8416 61.9931 22.0585 62.3339Z" fill="white"/>
<path d="M62.7678 47.649C62.5199 47.742 62.303 47.8349 62.0552 47.9279C61.8073 48.0208 61.5595 48.1138 61.3116 48.2067C61.0638 48.2996 60.8159 48.3926 60.5371 48.4855C60.2893 48.5785 60.0104 48.6714 59.7626 48.7644C59.7316 48.3926 59.7006 48.0208 59.6697 47.649C59.6387 47.2773 59.6077 46.9055 59.5767 46.5337C59.5457 46.162 59.5147 45.7902 59.4528 45.3874C59.4218 45.0157 59.3598 44.6129 59.3289 44.2411C59.6077 44.1482 59.8865 44.0552 60.1654 43.9623C60.4442 43.8694 60.692 43.7764 60.9709 43.7144C61.2187 43.6215 61.4975 43.5595 61.7454 43.4666C61.9932 43.3737 62.2411 43.3117 62.4889 43.2188C62.5199 43.5905 62.5509 43.9623 62.5819 44.3341C62.6129 44.7058 62.6438 45.0776 62.6438 45.4494C62.6748 45.8212 62.6748 46.1929 62.7058 46.5337C62.7368 46.9365 62.7368 47.2773 62.7678 47.649Z" fill="white"/>
<path d="M44.2101 54.4644C43.8383 54.5884 43.4665 54.7433 43.0947 54.8672C42.723 54.9911 42.3512 55.146 41.9484 55.27C41.5767 55.3939 41.1739 55.5488 40.8021 55.6727C40.4304 55.7966 40.0276 55.9515 39.6558 56.0755C39.5009 55.7037 39.377 55.3319 39.2221 54.9292C39.0672 54.5574 38.9433 54.1546 38.7884 53.7519C38.6335 53.3491 38.5095 52.9774 38.3546 52.5746C38.1997 52.1718 38.0758 51.7691 37.9209 51.3663C38.3237 51.2114 38.7574 51.0875 39.1601 50.9326C39.5629 50.7777 39.9656 50.6538 40.3994 50.4989C40.8021 50.3749 41.2049 50.22 41.6076 50.0961C42.0104 49.9722 42.4132 49.8173 42.8159 49.6934C42.9398 50.0961 43.0638 50.4989 43.1877 50.9016C43.3116 51.3044 43.4355 51.7071 43.5595 52.0789C43.6834 52.4817 43.8073 52.8534 43.9002 53.2562C43.9622 53.6899 44.0861 54.0617 44.2101 54.4644Z" fill="white"/>
<path d="M51.3047 51.8627C50.964 51.9866 50.6232 52.1106 50.2824 52.2345C49.9416 52.3584 49.6008 52.4823 49.26 52.6063C48.9192 52.7302 48.5474 52.8541 48.2066 52.978C47.8658 53.102 47.4941 53.2259 47.1223 53.3808C47.0294 53.009 46.9364 52.6063 46.8125 52.2345C46.7195 51.8317 46.5956 51.46 46.5027 51.0572C46.4097 50.6544 46.2858 50.2517 46.1929 49.8799C46.0999 49.4772 45.976 49.0744 45.8831 48.6717C46.2548 48.5477 46.6576 48.4238 47.0294 48.2999C47.4011 48.176 47.7729 48.052 48.1447 47.9281C48.5164 47.8042 48.8882 47.6803 49.26 47.5563C49.6318 47.4324 49.9726 47.3085 50.3443 47.1846C50.4373 47.5873 50.5302 47.9901 50.5922 48.3928C50.6851 48.7956 50.7471 49.1674 50.84 49.5701C50.933 49.9729 50.9949 50.3446 51.0879 50.7474C51.1808 51.1192 51.2428 51.4909 51.3047 51.8627Z" fill="white"/>
<path d="M52.5749 58.9574C52.296 59.0813 51.9862 59.2052 51.6764 59.3292C51.3666 59.4531 51.0878 59.577 50.778 59.7009C50.4682 59.8249 50.1583 59.9488 49.8485 60.0727C49.5387 60.1966 49.2289 60.3206 48.9191 60.4445C48.8262 60.1347 48.7642 59.7939 48.6713 59.4531C48.5783 59.1123 48.5163 58.7715 48.4234 58.4307C48.3305 58.0899 48.2375 57.7491 48.1756 57.4083C48.0826 57.0676 47.9897 56.6958 47.8967 56.355C48.2375 56.2311 48.5783 56.1071 48.9191 55.9522C49.2599 55.8283 49.6007 55.7044 49.9105 55.5805C50.2513 55.4565 50.5611 55.3326 50.9019 55.2087C51.2117 55.0848 51.5525 54.9608 51.8623 54.8369C51.9243 55.2087 51.9862 55.5495 52.0482 55.8903C52.1102 56.2311 52.1721 56.6028 52.2341 56.9436C52.296 57.2844 52.358 57.6252 52.42 57.966C52.4819 58.2758 52.5439 58.6166 52.5749 58.9574Z" fill="white"/>
<path d="M46.3786 61.4667C46.0378 61.5906 45.728 61.7146 45.3872 61.8385C45.0464 61.9624 44.7366 62.0863 44.3958 62.2412C44.055 62.3652 43.7452 62.4891 43.4044 62.644C43.0636 62.7679 42.7228 62.8919 42.382 63.0468C42.2581 62.7369 42.1032 62.4271 41.9793 62.0863C41.8553 61.7765 41.7004 61.4357 41.5765 61.0949C41.4526 60.7542 41.2977 60.4134 41.1738 60.0726C41.0498 59.7318 40.8949 59.391 40.771 59.0192C41.1428 58.8953 41.5145 58.7404 41.8863 58.6165C42.2581 58.4925 42.6299 58.3376 42.9707 58.2137C43.3424 58.0898 43.6832 57.9349 44.055 57.811C44.4268 57.687 44.7676 57.5321 45.1393 57.4082C45.2633 57.78 45.3562 58.1208 45.4801 58.4616C45.5731 58.8023 45.697 59.1431 45.7899 59.4839C45.8829 59.8247 46.0068 60.1655 46.0997 60.4753C46.1617 60.8161 46.2856 61.1259 46.3786 61.4667Z" fill="white"/>
<path d="M66.9191 46.1001C66.7332 46.1621 66.5473 46.2241 66.3614 46.317C66.1756 46.379 65.9897 46.4719 65.7728 46.5339C65.5869 46.5958 65.37 46.6888 65.1842 46.7507C64.9673 46.8127 64.7814 46.9057 64.5645 46.9986C64.5645 46.6578 64.5645 46.286 64.5336 45.9143C64.5336 45.5425 64.5026 45.2017 64.5026 44.8299C64.5026 44.4581 64.4716 44.1174 64.4406 43.7456C64.4096 43.3738 64.4096 43.002 64.3787 42.6612C64.5955 42.5993 64.8124 42.5373 65.0293 42.4444C65.2461 42.3824 65.463 42.3205 65.6489 42.2585C65.8657 42.1965 66.0516 42.1346 66.2685 42.0726C66.4544 42.0106 66.6713 41.9487 66.8571 41.8867C66.8881 42.2275 66.8881 42.5993 66.8881 42.9401C66.8881 43.2809 66.9191 43.6526 66.9191 43.9934C66.9191 44.3342 66.9191 44.706 66.9191 45.0468C66.9191 45.4186 66.9191 45.7594 66.9191 46.1001Z" fill="white"/>
<path d="M56.1996 8.61251C55.9827 8.55055 55.7658 8.51957 55.549 8.45761C55.3321 8.39565 55.1152 8.36467 54.8674 8.3027C54.6505 8.27172 54.4027 8.20976 54.1858 8.17878C53.938 8.1478 53.7211 8.08584 53.4732 8.05486C53.3183 7.83799 53.1944 7.6521 53.0395 7.46622C52.8846 7.28033 52.7607 7.09444 52.6058 6.90856C52.4509 6.72267 52.3269 6.53678 52.172 6.3509C52.0481 6.16501 51.8932 6.01011 51.7693 5.82422C52.0171 5.8552 52.234 5.91716 52.4509 5.94814C52.6677 6.01011 52.9156 6.04109 53.1325 6.10305C53.3493 6.16501 53.5662 6.19599 53.7831 6.25795C53.9999 6.31992 54.2168 6.3509 54.4027 6.41286C54.5576 6.56776 54.6815 6.75365 54.8364 6.90856C54.9913 7.09444 55.1152 7.24935 55.2701 7.43523C55.4251 7.62112 55.549 7.80701 55.7039 7.99289C55.8898 8.20976 56.0447 8.42663 56.1996 8.61251Z" fill="white"/>
<path d="M61.7762 18.7127C61.5593 18.6818 61.3425 18.6818 61.0946 18.6508C60.8778 18.6198 60.6299 18.6198 60.3821 18.5888C60.1342 18.5578 59.9174 18.5578 59.6695 18.5578C59.4217 18.5578 59.1738 18.5269 58.926 18.5269C58.833 18.279 58.7401 18.0312 58.6162 17.7833C58.5232 17.5355 58.3993 17.2876 58.3063 17.0398C58.2134 16.7919 58.0895 16.5441 57.9965 16.3272C57.9036 16.0794 57.7797 15.8625 57.6867 15.6146C57.6557 15.5527 57.6248 15.4907 57.5938 15.4288C57.5628 15.3668 57.5318 15.3048 57.5008 15.2429C57.4698 15.1809 57.4389 15.1189 57.4079 15.057C57.3769 14.995 57.3459 14.9331 57.3149 14.8711C57.5628 14.9021 57.8106 14.9021 58.0585 14.9331C58.3063 14.964 58.5542 14.995 58.7711 14.995C59.0189 15.026 59.2358 15.057 59.4526 15.088C59.6695 15.1189 59.9174 15.1499 60.1342 15.1809C60.1652 15.2429 60.1962 15.3048 60.2272 15.3358C60.2581 15.3978 60.2891 15.4597 60.3201 15.5217C60.3511 15.5837 60.3821 15.6456 60.413 15.7076C60.444 15.7695 60.475 15.8315 60.506 15.8935C60.5989 16.1103 60.7229 16.3582 60.8158 16.5751C60.9088 16.7919 61.0327 17.0398 61.1256 17.2566C61.2186 17.5045 61.3425 17.7214 61.4354 17.9692C61.5594 18.217 61.6833 18.4649 61.7762 18.7127Z" fill="white"/>
<path d="M65.5558 19.3007C65.4009 19.2698 65.215 19.2388 65.0601 19.1768C64.9052 19.1458 64.7194 19.1148 64.5335 19.0839C64.3476 19.0529 64.1617 19.0219 63.9758 18.9909C63.7899 18.9599 63.604 18.929 63.4181 18.898C63.3252 18.6501 63.2323 18.4333 63.1083 18.2164C63.0154 17.9995 62.8915 17.7517 62.7985 17.5348C62.7056 17.3179 62.5817 17.0701 62.4887 16.8532C62.3958 16.6364 62.2718 16.4195 62.1789 16.2026C62.1479 16.1407 62.1169 16.0787 62.086 16.0477C62.055 15.9858 62.024 15.9238 61.993 15.8928C61.962 15.8309 61.9311 15.7689 61.9001 15.7379C61.8691 15.676 61.8381 15.614 61.8071 15.583C61.993 15.614 62.1789 15.6759 62.3958 15.7069C62.5817 15.7379 62.7675 15.7999 62.9534 15.8309C63.1393 15.8618 63.2942 15.9238 63.4801 15.9548C63.666 15.9858 63.8209 16.0477 63.9758 16.1097C64.0068 16.1716 64.0378 16.2026 64.0688 16.2646C64.0997 16.3266 64.1307 16.3575 64.1617 16.4195C64.1927 16.4815 64.2237 16.5124 64.2546 16.5744C64.2856 16.6364 64.3166 16.6673 64.3476 16.7293C64.4405 16.9462 64.5644 17.163 64.6574 17.3799C64.7503 17.5968 64.8743 17.8136 64.9672 18.0305C65.0601 18.2474 65.1841 18.4642 65.277 18.6811C65.37 18.867 65.4629 19.0839 65.5558 19.3007Z" fill="white"/>
<path d="M67.7246 25.2181C67.5697 25.1871 67.4148 25.1871 67.2289 25.1871C67.074 25.1871 66.8881 25.1561 66.7332 25.1561C66.5473 25.1561 66.3924 25.1251 66.2065 25.1251C66.0207 25.1251 65.8348 25.0941 65.6489 25.0941C65.5559 24.7843 65.463 24.4435 65.3391 24.1337C65.2461 23.8239 65.1222 23.4831 65.0293 23.1733C64.9363 22.8635 64.8124 22.5537 64.7194 22.2439C64.5955 21.9341 64.5026 21.6243 64.3787 21.3145C64.5645 21.3454 64.7504 21.3454 64.9363 21.3764C65.1222 21.4074 65.3081 21.4384 65.463 21.4384C65.6489 21.4694 65.8038 21.5003 65.9897 21.5313C66.1446 21.5623 66.3305 21.5933 66.4854 21.6243C66.6093 21.9031 66.7022 22.2129 66.8262 22.5227C66.9191 22.8325 67.043 23.1114 67.136 23.4212C67.2289 23.731 67.3219 24.0408 67.4458 24.3196C67.5387 24.5984 67.6317 24.9083 67.7246 25.2181Z" fill="white"/>
<path d="M64.0067 25.0632C63.7899 25.0632 63.573 25.0632 63.3561 25.0632C63.1393 25.0632 62.8914 25.0632 62.6746 25.0942C62.4267 25.0942 62.2098 25.1252 61.962 25.1252C61.7141 25.1252 61.4663 25.1562 61.2184 25.1562C61.1255 24.8154 61.0016 24.4746 60.9086 24.1338C60.8157 23.793 60.6918 23.4522 60.5988 23.1114C60.4749 22.7706 60.382 22.4298 60.258 22.0891C60.1341 21.7483 60.0412 21.4384 59.9172 21.0977C60.1651 21.0977 60.4129 21.0977 60.6608 21.0977C60.9086 21.0977 61.1565 21.0977 61.3734 21.1286C61.6212 21.1286 61.8381 21.1286 62.0549 21.1596C62.2718 21.1596 62.4887 21.1906 62.7365 21.1906C62.8604 21.5004 62.9534 21.8102 63.0773 22.151C63.2012 22.4608 63.2942 22.8016 63.4181 23.1114C63.511 23.4212 63.635 23.762 63.7279 24.1028C63.8209 24.3817 63.9138 24.7224 64.0067 25.0632Z" fill="white"/>
<path d="M40.8951 12.8566C39.8728 12.9495 38.8194 13.0735 37.766 13.2284C36.6817 13.3833 35.5974 13.5382 34.513 13.7241C33.3977 13.91 32.2824 14.0958 31.1671 14.3437C30.0208 14.5606 28.8745 14.8084 27.7282 15.0563C27.5733 14.1888 27.4184 13.3523 27.2635 12.5778C27.1395 11.8032 27.0156 11.0597 26.8917 10.3471C26.7987 9.63456 26.6748 8.98396 26.6129 8.36434C26.5199 7.74472 26.458 7.15608 26.396 6.6294C27.3874 6.44351 28.3788 6.25763 29.3702 6.07174C30.3616 5.91684 31.322 5.76193 32.2824 5.63801C33.2428 5.51408 34.2032 5.42114 35.1327 5.3282C36.0621 5.23525 36.9915 5.17329 37.89 5.11133C38.1068 5.60703 38.3237 6.1337 38.5716 6.72234C38.8194 7.31098 39.0363 7.89962 39.2841 8.55023C39.532 9.20083 39.8108 9.88241 40.0586 10.595C40.3375 11.3075 40.5853 12.0511 40.8951 12.8566Z" fill="white"/>
<path d="M54.1241 12.5162C53.3806 12.4542 52.6061 12.4233 51.8315 12.3923C51.026 12.3613 50.1895 12.3613 49.353 12.3613C48.4856 12.3613 47.5871 12.3923 46.6887 12.4233C45.7592 12.4542 44.8298 12.5162 43.8694 12.5782C43.5596 11.8036 43.2808 11.0601 42.9709 10.3475C42.6921 9.63497 42.3823 8.98437 42.1035 8.33377C41.8246 7.71414 41.5458 7.1255 41.298 6.53686C41.0191 5.9792 40.7713 5.45253 40.5234 4.95683C41.3909 4.92585 42.2274 4.92585 43.0639 4.95683C43.8694 4.98781 44.6749 4.98781 45.4494 5.04977C46.224 5.08075 46.9675 5.14272 47.711 5.23566C48.4236 5.29762 49.1362 5.39056 49.8178 5.48351C50.1895 5.94822 50.5303 6.44392 50.8711 6.93962C51.2429 7.4663 51.5837 8.02396 51.9555 8.58161C52.3272 9.17025 52.668 9.78988 53.0398 10.4095C53.4116 11.1221 53.7833 11.8036 54.1241 12.5162Z" fill="white"/>
<path d="M59.0811 25.3111C58.3376 25.373 57.5631 25.435 56.7575 25.5279C55.952 25.6209 55.0846 25.7138 54.2171 25.8378C53.3186 25.9617 52.4202 26.0856 51.4598 26.2405C50.4994 26.3954 49.508 26.5503 48.5166 26.7362C48.2377 25.7758 47.9589 24.8154 47.6801 23.855C47.4013 22.9255 47.1224 21.9961 46.8126 21.0667C46.5338 20.1682 46.224 19.2698 45.9451 18.4023C45.6663 17.5348 45.3565 16.6983 45.0777 15.8618C45.0467 15.7999 45.0157 15.7379 45.0157 15.645C44.9847 15.583 44.9538 15.5211 44.9538 15.4281C44.9228 15.3662 44.8918 15.3042 44.8918 15.2422C44.8608 15.1803 44.8298 15.1183 44.8298 15.0563C45.8212 14.9634 46.7816 14.9014 47.7111 14.8395C48.6405 14.7775 49.539 14.7465 50.4064 14.7156C51.2739 14.6846 52.1104 14.6846 52.9159 14.6846C53.7214 14.6846 54.4959 14.7156 55.2395 14.7465C55.2705 14.8085 55.3014 14.8705 55.3324 14.9324C55.3634 14.9944 55.3944 15.0563 55.4254 15.1183C55.4563 15.1803 55.4873 15.2422 55.5183 15.3042C55.5493 15.3662 55.5803 15.4281 55.6112 15.4901C55.952 16.2336 56.2618 17.0082 56.5717 17.7827C56.8815 18.5572 57.1913 19.3627 57.5011 20.1992C57.8109 21.0357 58.0897 21.8722 58.3686 22.7087C58.5544 23.5452 58.8333 24.4126 59.0811 25.3111Z" fill="white"/>
<path d="M45.4184 27.2942C44.3341 27.5111 43.2497 27.7279 42.1034 27.9758C40.9571 28.2236 39.8108 28.4715 38.6645 28.7503C37.4872 29.0291 36.279 29.308 35.1017 29.6178C33.8934 29.9276 32.6542 30.2684 31.4459 30.6092C31.1671 29.5558 30.8883 28.5025 30.6094 27.4801C30.3306 26.4577 30.0828 25.4353 29.8349 24.413C29.5871 23.4216 29.3392 22.4302 29.1223 21.4698C28.9055 20.5093 28.6886 19.5799 28.5027 18.6815C28.4717 18.6195 28.4717 18.5265 28.4408 18.4646C28.4098 18.4026 28.4098 18.3097 28.3788 18.2477C28.3478 18.1858 28.3478 18.0928 28.3168 18.0309C28.2859 17.9689 28.2859 17.8759 28.2549 17.814C29.4322 17.5352 30.6094 17.2873 31.7557 17.0395C32.902 16.7916 34.0483 16.5747 35.1946 16.3889C36.31 16.203 37.4253 16.0171 38.5096 15.8312C39.594 15.6763 40.6473 15.5214 41.7007 15.3975C41.7316 15.4594 41.7316 15.5214 41.7626 15.6143C41.7936 15.6763 41.7936 15.7383 41.8246 15.8312C41.8556 15.8932 41.8556 15.9551 41.8866 16.0481C41.9175 16.11 41.9175 16.172 41.9485 16.2649C42.2273 17.1014 42.5062 17.9689 42.785 18.8673C43.0638 19.7658 43.3427 20.6642 43.6215 21.5937C43.9003 22.5231 44.1791 23.4835 44.458 24.4439C44.8298 25.3424 45.1396 26.3028 45.4184 27.2942Z" fill="white"/>
</svg>
