<svg width="32" height="32" viewBox="0 0 32 32" fill="none" xmlns="http://www.w3.org/2000/svg">
<path d="M16.004 0H15.996C7.174 0 0 7.176 0 16C0 19.5 1.128 22.744 3.046 25.378L1.052 31.322L7.202 29.356C9.732 31.032 12.75 32 16.004 32C24.826 32 32 24.822 32 16C32 7.178 24.826 0 16.004 0Z" fill="#4CAF50"/>
<path d="M25.3136 22.5944C24.9276 23.6844 23.3956 24.5884 22.1736 24.8524C21.3376 25.0304 20.2456 25.1724 16.5696 23.6484C11.8676 21.7004 8.83961 16.9224 8.60361 16.6124C8.37761 16.3024 6.70361 14.0824 6.70361 11.7864C6.70361 9.49036 7.86961 8.37236 8.33961 7.89236C8.72561 7.49836 9.36361 7.31836 9.97561 7.31836C10.1736 7.31836 10.3516 7.32836 10.5116 7.33636C10.9816 7.35636 11.2176 7.38436 11.5276 8.12636C11.9136 9.05636 12.8536 11.3524 12.9656 11.5884C13.0796 11.8244 13.1936 12.1444 13.0336 12.4544C12.8836 12.7744 12.7516 12.9164 12.5156 13.1884C12.2796 13.4604 12.0556 13.6684 11.8196 13.9604C11.6036 14.2144 11.3596 14.4864 11.6316 14.9564C11.9036 15.4164 12.8436 16.9504 14.2276 18.1824C16.0136 19.7724 17.4616 20.2804 17.9796 20.4964C18.3656 20.6564 18.8256 20.6184 19.1076 20.3184C19.4656 19.9324 19.9076 19.2924 20.3576 18.6624C20.6776 18.2104 21.0816 18.1544 21.5056 18.3144C21.9376 18.4644 24.2236 19.5944 24.6936 19.8284C25.1636 20.0644 25.4736 20.1764 25.5876 20.3744C25.6996 20.5724 25.6996 21.5024 25.3136 22.5944Z" fill="#FAFAFA"/>
</svg>
