<svg width="851" height="376" viewBox="0 0 851 376" fill="none" xmlns="http://www.w3.org/2000/svg">
<path opacity="0.2" d="M194.963 44.4084L123.729 66.0209M194.963 44.4084L220.661 198.398M194.963 44.4084L156.19 30L86.7593 51.6126M123.729 66.0209L39.8712 289.351M123.729 66.0209L86.7593 51.6126M39.8712 289.351L47.0847 337.079M39.8712 289.351L2 277.644M47.0847 337.079L9.21356 324.471L2 277.644M47.0847 337.079L133.647 310.381M182.339 374L169.715 299.257L133.647 310.381M182.339 374L243.654 355.089L232.834 280.346L268 268.639L258.081 211.906M182.339 374L141.763 361.393L133.647 310.381M258.081 211.906L224.719 222.712L220.661 198.398M258.081 211.906L220.661 198.398M86.7593 51.6126L2 277.644M146.271 148.869L161.6 242.524L97.5797 265.937L146.271 148.869Z" stroke="#92BA1F" stroke-width="2"/>
<path opacity="0.2" d="M836.465 256.065V201.049M836.465 256.065L795.859 260.575M836.465 256.065L850 277.711M836.465 201.049L850 220.891V277.711M836.465 201.049L809.394 204.657M790.444 36L795.859 206.46L809.394 204.657M790.444 36L708.33 49.5286L582 248.85V293.946M790.444 36L804.882 58.5477L809.394 204.657M582 293.946L725.475 272.3V297.553M582 293.946L596.438 316.493L725.475 297.553M725.475 344.452L799.468 332.728M725.475 344.452V297.553M725.475 344.452L739.912 367L812.101 356.177M799.468 332.728L795.859 260.575M799.468 332.728L812.101 356.177M795.859 260.575L812.101 284.025M812.101 356.177V284.025M812.101 284.025L850 277.711M721.865 128.896L725.475 220.891L657.798 231.714L721.865 128.896Z" stroke="#92BA1F" stroke-width="2"/>
<path opacity="0.2" d="M379.66 118.134C379.231 129.164 380.383 142.042 383.354 156.733C400.05 239.289 422.128 257.272 449.18 253.682C456.155 252.756 461.814 250.747 466.312 247.604M379.66 118.134C380.857 87.3776 394.34 70.981 414.914 69.6595C440.254 68.0321 461.26 92.2898 474.428 150.45C487.232 207.003 478.035 242.012 466.312 247.604M379.66 118.134C426.637 48.1155 487.954 159.426 466.312 247.604M306.928 105.566C304.621 123.768 304.895 145.427 307.61 171.096C322.039 259.966 382.453 307.542 454.591 304.849C502.234 300.855 535.094 282.7 549.604 247.604M306.928 105.566C313.818 51.2049 343.74 27.6854 400.487 20.2879C469.018 11.3536 521.318 49.0134 547.468 129.804C561.076 180.801 561.183 219.597 549.604 247.604M306.928 105.566C275.397 242.136 357.18 328.855 437.457 329.983C481.707 330.606 534.843 313.825 549.604 247.604" stroke="#92BA1F" stroke-width="2"/>
<path d="M194.963 27.3665L123.729 48.9162M194.963 27.3665L220.661 180.908M194.963 27.3665L156.19 13L86.7593 34.5497M123.729 48.9162L39.8712 271.597M123.729 48.9162L86.7593 34.5497M39.8712 271.597L47.0847 319.186M39.8712 271.597L2 259.924M47.0847 319.186L9.21356 306.615L2 259.924M47.0847 319.186L133.647 292.566M182.339 356L169.715 281.474L133.647 292.566M182.339 356L243.654 337.144L232.834 262.618L268 250.945L258.081 194.377M182.339 356L141.763 343.429L133.647 292.566M258.081 194.377L224.719 205.152L220.661 180.908M258.081 194.377L220.661 180.908M86.7593 34.5497L2 259.924M146.271 131.524L161.6 224.906L97.5797 248.251L146.271 131.524Z" stroke="#92BA1F" stroke-width="2"/>
<path d="M39.8712 271.597L123.729 48.9162L86.7593 34.5497L2 259.924L39.8712 271.597Z" fill="#F3F0E6"/>
<path d="M182.339 356L169.715 281.474L133.647 292.566L141.763 343.429L182.339 356Z" fill="#F3F0E6"/>
<path d="M224.719 205.152L258.081 194.377L220.661 180.908L224.719 205.152Z" fill="#F3F0E6"/>
<path d="M47.0847 319.186L39.8712 271.597L2 259.924L9.21356 306.615L47.0847 319.186Z" fill="#F3F0E6"/>
<path d="M146.271 131.524L161.6 224.906L97.5797 248.251L146.271 131.524Z" fill="#F3F0E6"/>
<path d="M194.963 27.3665L123.729 48.9162M194.963 27.3665L220.661 180.908M194.963 27.3665L156.19 13L86.7593 34.5497M123.729 48.9162L39.8712 271.597M123.729 48.9162L86.7593 34.5497M39.8712 271.597L47.0847 319.186M39.8712 271.597L2 259.924M47.0847 319.186L9.21356 306.615L2 259.924M47.0847 319.186L133.647 292.566M182.339 356L169.715 281.474L133.647 292.566M182.339 356L243.654 337.144L232.834 262.618L268 250.945L258.081 194.377M182.339 356L141.763 343.429L133.647 292.566M258.081 194.377L224.719 205.152L220.661 180.908M258.081 194.377L220.661 180.908M86.7593 34.5497L2 259.924M146.271 131.524L161.6 224.906L97.5797 248.251L146.271 131.524Z" stroke="#92BA1F" stroke-width="2"/>
<path d="M836.465 238.401V183.55M836.465 238.401L795.859 242.896M836.465 238.401L850 259.981M836.465 183.55L850 203.332V259.981M836.465 183.55L809.394 187.147M790.444 19L795.859 188.946L809.394 187.147M790.444 19L708.33 32.4877L582 231.207V276.166M790.444 19L804.882 41.4796L809.394 187.147M582 276.166L725.475 254.586V279.763M582 276.166L596.438 298.646L725.475 279.763M725.475 326.52L799.468 314.831M725.475 326.52V279.763M725.475 326.52L739.912 349L812.101 338.21M799.468 314.831L795.859 242.896M799.468 314.831L812.101 338.21M795.859 242.896L812.101 266.275M812.101 338.21V266.275M812.101 266.275L850 259.981M721.865 111.616L725.475 203.332L657.798 214.123L721.865 111.616Z" stroke="#92BA1F" stroke-width="2"/>
<path d="M725.475 254.586L582 276.166L596.438 298.646L725.475 279.763V254.586Z" fill="#F3F0E6"/>
<path d="M799.468 314.831L725.475 326.52L739.912 349L812.101 338.21L799.468 314.831Z" fill="#F3F0E6"/>
<path d="M836.465 238.401L795.859 242.896L812.101 266.275L850 259.981L836.465 238.401Z" fill="#F3F0E6"/>
<path d="M721.865 111.616L725.475 203.332L657.798 214.123L721.865 111.616Z" fill="#F3F0E6"/>
<path d="M836.465 238.401V183.55M836.465 238.401L795.859 242.896M836.465 238.401L850 259.981M836.465 183.55L850 203.332V259.981M836.465 183.55L809.394 187.147M790.444 19L795.859 188.945L809.394 187.147M790.444 19L708.33 32.4877L582 231.207V276.166M790.444 19L804.882 41.4796L809.394 187.147M582 276.166L725.475 254.586V279.763M582 276.166L596.438 298.646L725.475 279.763M725.475 326.52L799.468 314.831M725.475 326.52V279.763M725.475 326.52L739.912 349L812.101 338.21M799.468 314.831L795.859 242.896M799.468 314.831L812.101 338.21M795.859 242.896L812.101 266.275M812.101 338.21V266.275M812.101 266.275L850 259.981M721.865 111.616L725.475 203.332L657.798 214.123L721.865 111.616Z" stroke="#92BA1F" stroke-width="2"/>
<path d="M379.66 100.452C379.231 111.518 380.383 124.437 383.354 139.176C400.05 221.997 422.128 240.038 449.18 236.436C456.155 235.507 461.814 233.493 466.312 230.34M379.66 100.452C380.857 69.5975 394.34 53.1481 414.914 51.8224C440.254 50.1897 461.26 74.5255 474.428 132.872C487.232 189.607 478.035 224.729 466.312 230.34M379.66 100.452C426.637 30.2091 487.954 141.878 466.312 230.34M306.928 87.8446C304.621 106.105 304.895 127.834 307.61 153.585C322.039 242.74 382.453 290.47 454.591 287.768C502.234 283.761 535.094 265.548 549.604 230.34M306.928 87.8446C313.818 33.3084 343.74 9.71334 400.487 2.29206C469.018 -6.67099 521.318 31.1099 547.468 112.16C561.076 163.321 561.183 202.242 549.604 230.34M306.928 87.8446C275.397 224.853 357.18 311.851 437.457 312.983C481.707 313.608 534.843 296.773 549.604 230.34" stroke="#92BA1F" stroke-width="2"/>
<path d="M454.591 287.768C382.453 290.47 322.039 242.74 307.61 153.585C304.895 127.834 304.621 106.105 306.928 87.8447C275.397 224.854 357.18 311.851 437.457 312.983C481.707 313.608 534.843 296.773 549.604 230.34C535.094 265.548 502.234 283.761 454.591 287.768Z" fill="#F3F0E6"/>
<path d="M474.428 132.872C461.26 74.5255 440.254 50.1897 414.914 51.8224C394.34 53.1481 380.857 69.5975 379.66 100.452C426.637 30.2091 487.954 141.878 466.312 230.34C478.035 224.729 487.232 189.607 474.428 132.872Z" fill="#F3F0E6"/>
<path d="M379.66 100.452C379.231 111.518 380.383 124.437 383.354 139.176C400.05 221.997 422.128 240.038 449.18 236.436C456.155 235.507 461.814 233.493 466.312 230.34M379.66 100.452C380.857 69.5975 394.34 53.1481 414.914 51.8224C440.254 50.1897 461.26 74.5255 474.428 132.872C487.232 189.607 478.035 224.729 466.312 230.34M379.66 100.452C426.637 30.2091 487.954 141.878 466.312 230.34M306.928 87.8447C304.621 106.105 304.895 127.834 307.61 153.585C322.039 242.74 382.453 290.47 454.591 287.768C502.234 283.761 535.094 265.548 549.604 230.34M306.928 87.8447C313.818 33.3084 343.74 9.71334 400.487 2.29206C469.018 -6.67099 521.318 31.1099 547.468 112.16C561.076 163.321 561.183 202.242 549.604 230.34M306.928 87.8447C275.397 224.854 357.18 311.851 437.457 312.983C481.707 313.608 534.843 296.773 549.604 230.34" stroke="#92BA1F" stroke-width="2"/>
</svg>
