<svg width="24" height="24" viewBox="0 0 24 24" fill="none" xmlns="http://www.w3.org/2000/svg">
<path d="M19.5 1.5H4.5C4.40149 1.49994 4.30393 1.51929 4.21291 1.55696C4.12189 1.59463 4.03918 1.64987 3.96953 1.71952C3.89987 1.78918 3.84463 1.87189 3.80696 1.96291C3.76929 2.05393 3.74994 2.15149 3.75 2.25V19.5469C3.75051 19.7188 3.80986 19.8854 3.9182 20.0189C4.02653 20.1524 4.17731 20.2448 4.34546 20.2808C4.34546 20.2808 14.9019 22.5015 14.9531 22.5C15.0521 22.5019 15.1505 22.4838 15.2424 22.4468C15.3343 22.4098 15.4177 22.3546 15.4877 22.2846C15.5578 22.2146 15.6129 22.1311 15.6499 22.0393C15.687 21.9474 15.705 21.849 15.7031 21.75V20.2969H19.5C19.5985 20.2969 19.6961 20.2776 19.7871 20.2399C19.8781 20.2022 19.9608 20.147 20.0305 20.0773C20.1001 20.0077 20.1554 19.925 20.193 19.834C20.2307 19.7429 20.2501 19.6454 20.25 19.5469V2.25C20.2501 2.15149 20.2307 2.05394 20.193 1.96292C20.1554 1.8719 20.1001 1.7892 20.0305 1.71954C19.9608 1.64989 19.8781 1.59464 19.7871 1.55697C19.6961 1.5193 19.5985 1.49994 19.5 1.5ZM12.7537 13.4744C12.7537 13.6733 12.6746 13.8641 12.534 14.0047C12.3933 14.1454 12.2026 14.2244 12.0037 14.2244C11.8047 14.2244 11.614 14.1454 11.4733 14.0047C11.3327 13.8641 11.2537 13.6733 11.2537 13.4744V10.5146C11.2537 10.3157 11.3327 10.1249 11.4733 9.98427C11.614 9.84362 11.8047 9.7646 12.0037 9.7646C12.2026 9.7646 12.3933 9.84362 12.534 9.98427C12.6746 10.1249 12.7537 10.3157 12.7537 10.5146V13.4744ZM18.75 18.7969H15.7031V4.26709C15.7032 4.09286 15.6425 3.92407 15.5316 3.78973C15.4206 3.65539 15.2663 3.5639 15.0953 3.531L12.3434 3H18.75V18.7969Z" fill="#0C369C"/>
</svg>
