<svg width="23" height="23" viewBox="0 0 23 23" fill="none" xmlns="http://www.w3.org/2000/svg">
<circle cx="11.5" cy="11.5" r="11" stroke="#92BA1F"/>
<path d="M10.9399 13.256C10.6039 12.9387 10.4359 12.542 10.4359 12.066C10.4359 11.6833 10.5526 11.3427 10.7859 11.044C11.0193 10.736 11.2759 10.498 11.5559 10.33C11.8453 10.162 12.1066 9.96133 12.3399 9.728C12.5733 9.49467 12.6899 9.24733 12.6899 8.986C12.6899 8.69667 12.5733 8.45867 12.3399 8.272C12.1159 8.076 11.7893 7.978 11.3599 7.978C10.5946 7.978 9.94595 8.30467 9.41395 8.958L8.47595 7.908C9.23195 6.984 10.2493 6.522 11.5279 6.522C12.3959 6.522 13.0866 6.72733 13.5999 7.138C14.1133 7.54867 14.3699 8.076 14.3699 8.72C14.3699 9.10267 14.2813 9.448 14.1039 9.756C13.9359 10.0547 13.7259 10.302 13.4739 10.498C13.2313 10.6847 12.9886 10.862 12.7459 11.03C12.5033 11.198 12.2933 11.3847 12.1159 11.59C11.9479 11.786 11.8639 11.996 11.8639 12.22C11.8639 12.4627 11.9666 12.6727 12.1719 12.85L10.9399 13.256ZM12.1299 15.874C11.9433 16.0607 11.7146 16.154 11.4439 16.154C11.1733 16.154 10.9399 16.0607 10.7439 15.874C10.5573 15.678 10.4639 15.4447 10.4639 15.174C10.4639 14.9033 10.5573 14.6747 10.7439 14.488C10.9399 14.292 11.1733 14.194 11.4439 14.194C11.7146 14.194 11.9433 14.292 12.1299 14.488C12.3259 14.6747 12.4239 14.9033 12.4239 15.174C12.4239 15.4447 12.3259 15.678 12.1299 15.874Z" fill="#92BA1F"/>
</svg>
