<svg width="32" height="32" viewBox="0 0 32 32" fill="none" xmlns="http://www.w3.org/2000/svg">
<g clip-path="url(#clip0)">
<path d="M7.33398 18.667C5.12573 18.6648 3.33618 16.8752 3.33398 14.667V13.3335C3.33398 12.9653 3.63257 12.667 4.00073 12.667C4.36108 12.6902 4.71387 12.5574 4.96924 12.302C5.22461 12.0469 5.35742 11.6938 5.33398 11.3335C5.33398 10.9653 5.63257 10.667 6.00073 10.667C6.3689 10.667 6.66748 10.9653 6.66748 11.3335C6.66748 11.3335 6.87817 12.667 10.6675 12.667C11.0356 12.667 11.334 12.9653 11.334 13.3335V14.667C11.3318 16.8752 9.54224 18.6648 7.33398 18.667ZM4.66748 13.9163V14.667C4.66748 16.1396 5.86133 17.3335 7.33398 17.3335C8.80688 17.3335 10.0007 16.1396 10.0007 14.667V13.9863C8.00732 13.9001 6.86743 13.4263 6.20947 12.9009C5.83423 13.4138 5.28687 13.7744 4.66748 13.9163Z" fill="#92BA1F"/>
<path d="M11.334 13.333H10.0007V11.333C10.0007 9.86035 8.80688 8.6665 7.33398 8.6665C5.86133 8.6665 4.66748 9.86035 4.66748 11.333V13.333H3.33398V11.333C3.33398 9.12402 5.125 7.33301 7.33398 7.33301C9.54321 7.33301 11.334 9.12402 11.334 11.333V13.333Z" fill="#92BA1F"/>
<path d="M12.6675 24.667H2.00073C1.63257 24.667 1.33398 24.3684 1.33398 24.0002V22.0002C1.33618 20.1602 2.82739 18.6692 4.66748 18.667H6.00073V20.0002H4.66748C3.56274 20.0002 2.66748 20.8958 2.66748 22.0002V23.3335H12.0007V22.0002C12.0007 20.8958 11.1052 20.0002 10.0007 20.0002H8.66748V18.667H10.0007C11.8408 18.6692 13.3318 20.1602 13.334 22.0002V24.0002C13.334 24.3684 13.0356 24.667 12.6675 24.667Z" fill="#92BA1F"/>
<path d="M7.33398 21.3333C6.22949 21.3333 5.33398 20.438 5.33398 19.3333V18H6.66748V19.3333C6.66748 19.7014 6.96582 20 7.33398 20C7.70215 20 8.00073 19.7014 8.00073 19.3333V18H9.33398V19.3333C9.33398 20.438 8.43872 21.3333 7.33398 21.3333Z" fill="#92BA1F"/>
<path d="M6.66602 20.667H7.99927V24.0002H6.66602V20.667Z" fill="#92BA1F"/>
<path d="M24.666 18.667C22.4578 18.6648 20.6682 16.8752 20.666 14.667V13.3335C20.666 12.9653 20.9644 12.667 21.3325 12.667C21.6929 12.6902 22.0459 12.5574 22.301 12.302C22.5564 12.0469 22.6892 11.6938 22.666 11.3335C22.666 10.9653 22.9644 10.667 23.3325 10.667C23.7007 10.667 23.9993 10.9653 23.9993 11.3335C23.9993 11.3335 24.21 12.667 27.9993 12.667C28.3674 12.667 28.666 12.9653 28.666 13.3335V14.667C28.6638 16.8752 26.8743 18.6648 24.666 18.667ZM21.9993 13.9163V14.667C21.9993 16.1396 23.1931 17.3335 24.666 17.3335C26.1387 17.3335 27.3325 16.1396 27.3325 14.667V13.9863C25.3394 13.9001 24.1992 13.4263 23.5413 12.9009C23.166 13.4138 22.6187 13.7744 21.9993 13.9163Z" fill="#92BA1F"/>
<path d="M28.6675 13.333H27.334V11.333C27.334 9.86035 26.1401 8.6665 24.6675 8.6665H20.7422C20.8716 9.48804 21.2429 10.2522 21.8088 10.8618C21.9326 10.9873 22.0015 11.1567 22.0007 11.333V13.333H20.6675V11.5999C19.8381 10.5796 19.3694 9.31396 19.334 7.99976C19.334 7.63159 19.6326 7.33301 20.0007 7.33301H24.6675C26.8757 7.33521 28.6653 9.12476 28.6675 11.333V13.333Z" fill="#92BA1F"/>
<path d="M29.9993 24.667H19.3325C18.9644 24.667 18.666 24.3684 18.666 24.0002V22.0002C18.6682 20.1602 20.1592 18.6692 21.9993 18.667H23.3325V20.0002H21.9993C20.8948 20.0002 19.9993 20.8958 19.9993 22.0002V23.3335H29.3325V22.0002C29.3325 20.8958 28.4373 20.0002 27.3325 20.0002H25.9993V18.667H27.3325C29.1726 18.6692 30.6638 20.1602 30.666 22.0002V24.0002C30.666 24.3684 30.3674 24.667 29.9993 24.667Z" fill="#92BA1F"/>
<path d="M24.666 21.3333C23.5613 21.3333 22.666 20.438 22.666 19.3333V18H23.9993V19.3333C23.9993 19.7014 24.2979 20 24.666 20C25.0342 20 25.3325 19.7014 25.3325 19.3333V18H26.666V19.3333C26.666 20.438 25.7705 21.3333 24.666 21.3333Z" fill="#92BA1F"/>
<path d="M24 20.667H25.3333V24.0002H24V20.667Z" fill="#92BA1F"/>
<path d="M29.3333 32.0002H2.66675C2.29858 32.0002 2 31.7017 2 31.3335V27.3335C2 26.9653 2.29858 26.667 2.66675 26.667H29.3333C29.7014 26.667 30 26.9653 30 27.3335V31.3335C30 31.7017 29.7014 32.0002 29.3333 32.0002ZM3.33325 30.667H28.6667V28.0002H3.33325V30.667Z" fill="#92BA1F"/>
<path d="M31.3333 27.9998H0.666748C0.298584 27.9998 0 27.7012 0 27.333V23.9998C0 23.6316 0.298584 23.333 0.666748 23.333H31.3333C31.7014 23.333 32 23.6316 32 23.9998V27.333C32 27.7012 31.7014 27.9998 31.3333 27.9998ZM1.33325 26.6665H30.6667V24.6665H1.33325V26.6665Z" fill="#92BA1F"/>
<path d="M2.66675 9.33325H2C0.895508 9.33325 0 8.43799 0 7.33325V2C0 0.895508 0.895508 0 2 0H22.6667C23.7712 0 24.6667 0.895508 24.6667 2V6H23.3333V2C23.3333 1.63184 23.0349 1.33325 22.6667 1.33325H2C1.63184 1.33325 1.33325 1.63184 1.33325 2V7.33325C1.33325 7.70142 1.63184 8 2 8H2.66675V9.33325Z" fill="#92BA1F"/>
<path d="M16.6667 12C16.49 12 16.3203 11.9297 16.1953 11.8047L13.7241 9.33325H12V8H14C14.1768 8 14.3464 8.07031 14.4714 8.19531L16 9.72412V8.66675C16 8.29858 16.2986 8 16.6667 8H18V9.33325H17.3333V11.3333C17.3333 11.7014 17.0349 12 16.6667 12Z" fill="#92BA1F"/>
<path d="M3.33398 4H18.6675V5.33325H3.33398V4Z" fill="#92BA1F"/>
<path d="M20 4H21.3333V5.33325H20V4Z" fill="#92BA1F"/>
</g>
<defs>
<clipPath id="clip0">
<rect width="32" height="32" fill="white"/>
</clipPath>
</defs>
</svg>
