<svg width="72" height="72" viewBox="0 0 72 72" fill="none" xmlns="http://www.w3.org/2000/svg">
<path d="M68.8942 30.1424C68.7315 30.0605 68.5492 30.0253 68.3676 30.0408C68.1861 30.0563 68.0124 30.1218 67.8659 30.2302L66.2617 31.4199C66.0783 30.2079 65.8227 29.008 65.4961 27.8266L66.8714 23.7727C66.9463 23.5519 66.9406 23.3118 66.8551 23.0949L65.2706 19.0842C65.2038 18.9145 65.0911 18.7667 64.9452 18.6573C64.7993 18.5479 64.6258 18.4812 64.4441 18.4647C64.2625 18.4481 64.0798 18.4825 63.9165 18.5638C63.7533 18.6451 63.6158 18.7701 63.5195 18.9251L62.462 20.6216C61.6783 19.2695 60.7916 17.9798 59.8098 16.7639L59.4594 12.5007C59.4402 12.2683 59.3391 12.0503 59.1742 11.8854L56.1226 8.83606C55.9938 8.70716 55.8317 8.61659 55.6544 8.57442C55.4771 8.53226 55.2916 8.54017 55.1185 8.59728C54.9454 8.65438 54.7916 8.75843 54.6743 8.89783C54.5569 9.03723 54.4805 9.20649 54.4537 9.38675L54.1589 11.3617C53.1714 10.6345 52.1413 9.96692 51.0742 9.36256L49.1819 5.52462C49.0783 5.31572 48.9042 5.15016 48.6903 5.05719L44.7342 3.34156C44.5671 3.26924 44.3832 3.24471 44.2029 3.2707C44.0226 3.29669 43.8531 3.37219 43.7132 3.48879C43.5733 3.60538 43.4684 3.75851 43.4104 3.93113C43.3523 4.10376 43.3433 4.28911 43.3843 4.46656L43.8343 6.41112C42.325 6.01291 40.7875 5.73083 39.2352 5.56737L35.9705 2.79594C35.7926 2.64516 35.567 2.56243 35.3338 2.5625H31.0211C30.8388 2.56257 30.6602 2.61324 30.505 2.70884C30.3499 2.80445 30.2243 2.94125 30.1423 3.104C30.0603 3.26676 30.0251 3.44908 30.0407 3.63066C30.0562 3.81224 30.1218 3.98595 30.2302 4.13244L31.4199 5.73669C30.2079 5.91981 29.008 6.17546 27.8266 6.50225L23.7727 5.12919C23.5519 5.05458 23.3118 5.06036 23.0949 5.1455L19.0843 6.73006C18.9145 6.79684 18.7667 6.90949 18.6573 7.05543C18.5479 7.20137 18.4812 7.37485 18.4647 7.5565C18.4481 7.73815 18.4825 7.92082 18.5638 8.0841C18.6451 8.24737 18.7702 8.38483 18.9251 8.48112L20.6216 9.53862C19.2687 10.3224 17.9782 11.2093 16.7617 12.1914L12.4985 12.5413C12.2661 12.5605 12.048 12.6615 11.8831 12.8264L8.83606 15.8757C8.70717 16.0046 8.61659 16.1667 8.57442 16.344C8.53226 16.5213 8.54017 16.7068 8.59728 16.8799C8.65438 17.0529 8.75843 17.2067 8.89783 17.3241C9.03723 17.4415 9.20649 17.5179 9.38675 17.5447L11.3617 17.84C10.6343 18.8274 9.96659 19.8572 9.362 20.9242L5.52462 22.8164C5.31572 22.9201 5.15016 23.0942 5.05719 23.3081L3.34156 27.2641C3.26924 27.4313 3.24471 27.6152 3.2707 27.7955C3.29669 27.9758 3.37219 28.1453 3.48879 28.2852C3.60538 28.4251 3.75851 28.5299 3.93113 28.588C4.10376 28.6461 4.28911 28.6551 4.46656 28.6141L6.41112 28.1641C6.01291 29.6733 5.73083 31.2108 5.56737 32.7631L2.79594 36.0279C2.64516 36.2058 2.56243 36.4314 2.5625 36.6646V40.9773C2.56257 41.1595 2.61324 41.3382 2.70884 41.4933C2.80445 41.6485 2.94125 41.774 3.10401 41.856C3.26676 41.938 3.44908 41.9732 3.63066 41.9577C3.81224 41.9422 3.98595 41.8766 4.13244 41.7682L5.73669 40.5791C5.92004 41.7908 6.17568 42.9905 6.50225 44.1717L5.12919 48.2257C5.05497 48.4456 5.06075 48.6846 5.1455 48.9007L6.73006 52.9113C6.79684 53.081 6.90949 53.2289 7.05543 53.3383C7.20137 53.4477 7.37485 53.5144 7.5565 53.5309C7.73815 53.5474 7.92082 53.5131 8.0841 53.4318C8.24737 53.3505 8.38483 53.2254 8.48113 53.0705L9.53862 51.374C10.3223 52.7278 11.2091 54.0192 12.1914 55.2367L12.5413 59.4999C12.5605 59.7323 12.6615 59.9504 12.8264 60.1152L15.8758 63.1646C16.0046 63.2935 16.1667 63.384 16.344 63.4262C16.5213 63.4684 16.7068 63.4604 16.8799 63.4033C17.0529 63.3462 17.2067 63.2422 17.3241 63.1028C17.4415 62.9634 17.5179 62.7941 17.5447 62.6139L17.84 60.6389C18.8274 61.3663 19.8572 62.034 20.9242 62.6386L22.8164 66.476C22.92 66.6847 23.0939 66.8503 23.3075 66.9434L27.2641 68.6591C27.4313 68.7314 27.6152 68.7559 27.7955 68.7299C27.9758 68.7039 28.1453 68.6284 28.2852 68.5118C28.4251 68.3952 28.5299 68.2421 28.588 68.0695C28.6461 67.8969 28.6551 67.7115 28.6141 67.5341L28.1641 65.5895C29.6733 65.9877 31.2108 66.2698 32.7631 66.4332L36.029 69.203C36.2069 69.3538 36.4325 69.4365 36.6657 69.4364H40.9773C41.1596 69.4364 41.3382 69.3857 41.4933 69.2901C41.6485 69.1945 41.7741 69.0577 41.856 68.8949C41.938 68.7322 41.9732 68.5499 41.9577 68.3683C41.9422 68.1867 41.8766 68.013 41.7682 67.8665L40.5791 66.2617C41.791 66.0785 42.9909 65.8229 44.1723 65.4961L48.2257 66.8714C48.4456 66.9454 48.6846 66.9396 48.9007 66.8551L52.9113 65.2706C53.0811 65.2038 53.2289 65.0911 53.3383 64.9452C53.4477 64.7993 53.5144 64.6258 53.5309 64.4441C53.5474 64.2625 53.5131 64.0798 53.4318 63.9165C53.3505 63.7532 53.2254 63.6158 53.0705 63.5195L51.374 62.462C52.7261 61.6784 54.0158 60.7917 55.2316 59.8098L59.4948 59.4594C59.7272 59.4402 59.9453 59.3391 60.1102 59.1742L63.1595 56.1249C63.2884 55.996 63.379 55.8339 63.4211 55.6566C63.4633 55.4793 63.4554 55.2938 63.3983 55.1208C63.3412 54.9477 63.2371 54.7939 63.0977 54.6765C62.9583 54.5591 62.7891 54.4828 62.6088 54.4559L60.6333 54.1612C61.3608 53.1736 62.0287 52.1435 62.6336 51.0764L66.4709 49.1842C66.6797 49.0806 66.8452 48.9067 66.9384 48.6931L68.654 44.7365C68.7263 44.5693 68.7508 44.3854 68.7249 44.2051C68.6989 44.0249 68.6234 43.8553 68.5068 43.7154C68.3902 43.5755 68.2371 43.4707 68.0644 43.4126C67.8918 43.3545 67.7065 43.3455 67.529 43.3865L65.5844 43.8365C65.9827 42.3273 66.2647 40.7898 66.4282 39.2375L69.1979 35.9716C69.3487 35.7937 69.4314 35.5681 69.4314 35.3349V31.0211C69.4319 30.8392 69.3819 30.6609 69.2871 30.5057C69.1923 30.3506 69.0562 30.2249 68.8942 30.1424ZM67.4671 34.9726L64.7463 38.1789C64.6084 38.3349 64.5235 38.5307 64.5039 38.738C64.3048 40.8222 63.8778 42.8782 63.2304 44.8692C63.1765 45.0351 63.1676 45.2123 63.2046 45.3827C63.2416 45.5531 63.3233 45.7106 63.4411 45.8392C63.5589 45.9677 63.7088 46.0627 63.8754 46.1143C64.0419 46.166 64.2192 46.1725 64.3891 46.1332L66.0732 45.7394L65.279 47.5721L61.4872 49.4418C61.3089 49.5307 61.1618 49.6715 61.0653 49.8457C60.2034 51.404 59.1986 52.8788 58.0638 54.2512C57.9521 54.3858 57.8783 54.5477 57.8499 54.7204C57.8215 54.893 57.8395 55.07 57.9022 55.2333C57.9648 55.3967 58.0698 55.5404 58.2064 55.6497C58.3429 55.759 58.5061 55.83 58.6792 55.8554L60.3886 56.1108L58.9767 57.5232L54.7867 57.8675C54.5802 57.8814 54.3833 57.9601 54.2242 58.0925C52.6066 59.4245 50.8478 60.5751 48.9794 61.5237C48.8289 61.6011 48.7008 61.7159 48.6074 61.857C48.5141 61.9982 48.4586 62.161 48.4463 62.3298C48.4341 62.4986 48.4654 62.6678 48.5374 62.8209C48.6094 62.9741 48.7196 63.1062 48.8574 63.2045C48.8748 63.2169 48.8917 63.2281 48.9091 63.2394L50.3767 64.1534L48.5204 64.8847L44.4856 63.5167C44.305 63.4616 44.1123 63.4604 43.931 63.5133C42.2203 64.0056 40.4675 64.3372 38.6953 64.5039C38.5215 64.5201 38.3553 64.5822 38.2135 64.6839C38.0717 64.7855 37.9594 64.923 37.8883 65.0823C37.8171 65.2415 37.7895 65.4169 37.8083 65.5903C37.8272 65.7637 37.8918 65.929 37.9955 66.0693L39.0277 67.4632H37.0257L33.8021 64.7289C33.6483 64.5989 33.4585 64.519 33.2581 64.4999C31.1738 64.3014 29.1177 63.8739 27.1269 63.2253C26.961 63.1713 26.7837 63.1623 26.6132 63.1993C26.4427 63.2362 26.2851 63.3178 26.1565 63.4357C26.0279 63.5536 25.9329 63.7035 25.8812 63.8701C25.8295 64.0367 25.823 64.2141 25.8624 64.3841L26.2561 66.0716L24.4235 65.2773L22.556 61.4894C22.4668 61.3099 22.3252 61.1616 22.1499 61.0642C20.5917 60.2019 19.1168 59.1969 17.7444 58.0621C17.6101 57.9507 17.4486 57.8769 17.2764 57.8485C17.1042 57.8201 16.9276 57.8379 16.7646 57.9003C16.6016 57.9626 16.4581 58.0672 16.3489 58.2033C16.2396 58.3394 16.1686 58.5021 16.1429 58.6747L15.887 60.3869L14.4746 58.9751L14.1292 54.7664C14.1127 54.566 14.0354 54.3755 13.9076 54.2202C12.5754 52.6025 11.4248 50.8436 10.4763 48.9749C10.397 48.8197 10.278 48.6883 10.1314 48.5941C9.9847 48.5 9.81569 48.4464 9.64156 48.4389C9.46713 48.4297 9.29346 48.4678 9.13891 48.5492C8.98435 48.6306 8.85465 48.7522 8.7635 48.9012L7.84662 50.3727L7.11538 48.5165L8.47325 44.5154C8.53754 44.3253 8.54225 44.12 8.48675 43.9271C7.99473 42.2163 7.66311 40.4635 7.49619 38.6913C7.47994 38.5176 7.41782 38.3513 7.31619 38.2096C7.21456 38.0678 7.07707 37.9555 6.9178 37.8843C6.75853 37.8131 6.5832 37.7855 6.40976 37.8044C6.23633 37.8232 6.07101 37.8878 5.93075 37.9916L4.53125 39.0237V37.0257L7.26556 33.8021C7.39552 33.6483 7.4754 33.4585 7.4945 33.2581C7.69306 31.1738 8.12051 29.1176 8.76912 27.1269C8.82314 26.961 8.83213 26.7837 8.79516 26.6132C8.7582 26.4427 8.67661 26.2851 8.55874 26.1565C8.44088 26.0279 8.29096 25.9329 8.12433 25.8812C7.9577 25.8295 7.78034 25.823 7.61037 25.8624L5.92287 26.2561L6.71712 24.4235L10.505 22.556C10.6846 22.4668 10.8328 22.3251 10.9303 22.1499C11.7925 20.5917 12.7975 19.1168 13.9323 17.7444C14.0437 17.6102 14.1175 17.4489 14.146 17.2769C14.1746 17.1049 14.1569 16.9284 14.0948 16.7654C14.0327 16.6025 13.9284 16.459 13.7926 16.3496C13.6569 16.2402 13.4944 16.1689 13.322 16.1429L11.6098 15.887L13.0216 14.4746L17.2303 14.1292C17.4306 14.1127 17.6212 14.0354 17.7764 13.9076C19.3941 12.5754 21.1531 11.4248 23.0218 10.4763C23.177 10.3971 23.3085 10.278 23.4027 10.1313C23.4969 9.98463 23.5505 9.81556 23.558 9.64139C23.5655 9.46722 23.5266 9.29418 23.4453 9.13994C23.3641 8.9857 23.2433 8.8558 23.0954 8.7635L21.6239 7.84662L23.4802 7.11537L27.4812 8.47325C27.6714 8.53782 27.8767 8.54254 28.0696 8.48675C29.7803 7.99449 31.5331 7.66287 33.3054 7.49619C33.4793 7.47927 33.6456 7.41647 33.7873 7.3142C33.929 7.21193 34.041 7.07386 34.1118 6.91412C34.1826 6.75438 34.2098 6.57869 34.1904 6.40502C34.1711 6.23136 34.106 6.06594 34.0018 5.92569L32.9752 4.53125H34.9726L38.1744 7.24644C38.3315 7.38775 38.5299 7.47472 38.7402 7.4945C40.8244 7.69355 42.8805 8.1206 44.8715 8.768C45.0374 8.82189 45.2145 8.83077 45.385 8.79375C45.5554 8.75672 45.7129 8.67512 45.8414 8.55727C45.97 8.43943 46.0649 8.28957 46.1166 8.123C46.1682 7.95644 46.1747 7.77915 46.1354 7.60925L45.7417 5.92512L47.5743 6.71937L49.4441 10.5112C49.5329 10.6894 49.6737 10.8365 49.8479 10.9331C51.4061 11.7952 52.8809 12.8 54.2534 13.9346C54.3881 14.0457 54.5498 14.119 54.7221 14.1471C54.8944 14.1751 55.0711 14.157 55.234 14.0944C55.397 14.0318 55.5404 13.927 55.6496 13.7908C55.7587 13.6546 55.8298 13.4919 55.8554 13.3192L56.1108 11.6097L57.5233 13.0216L57.8675 17.2117C57.8814 17.4182 57.9601 17.6151 58.0925 17.7742C59.4246 19.3919 60.5753 21.1508 61.5238 23.0195C61.6012 23.17 61.716 23.2981 61.8572 23.3914C61.9984 23.4847 62.1612 23.5401 62.33 23.5523C62.4988 23.5645 62.6679 23.5331 62.8211 23.4611C62.9742 23.389 63.1063 23.2788 63.2045 23.141C63.2169 23.1236 63.2281 23.1067 63.2394 23.0892L64.1534 21.6217L64.8847 23.4779L63.5167 27.5127C63.4621 27.6934 63.461 27.886 63.5133 28.0674C64.0053 29.7781 64.3369 31.5309 64.5039 33.3031C64.5208 33.477 64.5836 33.6434 64.6859 33.785C64.7881 33.9267 64.9262 34.0387 65.0859 34.1095C65.2457 34.1804 65.4214 34.2075 65.595 34.1882C65.7687 34.1688 65.9341 34.1037 66.0744 33.9995L67.4632 32.9712L67.4671 34.9726Z" fill="#92BA1F"/>
<path d="M35.9996 23.3203C33.4919 23.3203 31.0405 24.0639 28.9554 25.4572C26.8703 26.8504 25.2451 28.8306 24.2855 31.1475C23.3258 33.4643 23.0747 36.0137 23.5639 38.4732C24.0532 40.9328 25.2608 43.192 27.034 44.9653C28.8072 46.7385 31.0665 47.9461 33.526 48.4353C35.9856 48.9245 38.535 48.6735 40.8518 47.7138C43.1686 46.7541 45.1489 45.129 46.5421 43.0439C47.9353 40.9588 48.6789 38.5074 48.6789 35.9996C48.6751 32.6381 47.338 29.4153 44.961 27.0383C42.584 24.6613 39.3612 23.3242 35.9996 23.3203ZM35.9996 46.7102C33.8813 46.7102 31.8105 46.082 30.0492 44.9051C28.2878 43.7282 26.915 42.0555 26.1044 40.0984C25.2937 38.1413 25.0816 35.9877 25.4949 33.9101C25.9081 31.8325 26.9282 29.924 28.4261 28.4261C29.924 26.9282 31.8325 25.9081 33.9101 25.4949C35.9878 25.0816 38.1413 25.2937 40.0984 26.1044C42.0555 26.915 43.7282 28.2878 44.9051 30.0492C46.082 31.8105 46.7102 33.8813 46.7102 35.9996C46.7069 38.8392 45.5774 41.5616 43.5695 43.5695C41.5616 45.5774 38.8392 46.7069 35.9996 46.7102Z" fill="#92BA1F"/>
<path d="M46.2539 17.1236C46.0245 16.9988 45.755 16.9703 45.5046 17.0442C45.2541 17.1182 45.0433 17.2886 44.9185 17.5179C44.7938 17.7473 44.7652 18.0169 44.8391 18.2673C44.9131 18.5177 45.0835 18.7285 45.3129 18.8533C48.3974 20.5299 50.9725 23.0076 52.7667 26.0252C54.561 29.0429 55.5079 32.4887 55.5076 35.9994C55.5076 36.2605 55.6113 36.5109 55.7959 36.6955C55.9805 36.8801 56.2309 36.9838 56.492 36.9838C56.7531 36.9838 57.0034 36.8801 57.188 36.6955C57.3726 36.5109 57.4764 36.2605 57.4764 35.9994C57.4766 32.1346 56.4342 28.3413 54.4591 25.0193C52.484 21.6973 49.6494 18.9696 46.2539 17.1236Z" fill="#92BA1F"/>
<path d="M37.0688 16.5186C38.1671 16.5781 39.2584 16.73 40.3313 16.9726C40.4031 16.9886 40.4765 16.9967 40.5501 16.9968C40.7922 16.9967 41.0258 16.9073 41.2063 16.7458C41.3867 16.5843 41.5013 16.362 41.5281 16.1213C41.5549 15.8807 41.492 15.6386 41.3516 15.4413C41.2111 15.2441 41.0028 15.1055 40.7666 15.0522C39.5854 14.7851 38.3838 14.6182 37.1745 14.5533C36.9173 14.5449 36.6671 14.6376 36.4774 14.8115C36.2877 14.9854 36.1736 15.2267 36.1597 15.4837C36.1457 15.7406 36.2329 15.9928 36.4026 16.1863C36.5723 16.3797 36.811 16.499 37.0676 16.5186H37.0688Z" fill="#92BA1F"/>
<path d="M26.685 53.1461C23.6004 51.4695 21.0253 48.9918 19.2311 45.9742C17.4369 42.9566 16.49 39.5108 16.4902 36C16.4902 35.7389 16.3865 35.4885 16.2019 35.3039C16.0173 35.1193 15.7669 35.0156 15.5059 35.0156C15.2448 35.0156 14.9944 35.1193 14.8098 35.3039C14.6252 35.4885 14.5215 35.7389 14.5215 36C14.5213 39.8648 15.5636 43.6581 17.5387 46.9801C19.5138 50.3022 22.3484 53.0299 25.7439 54.8758C25.8575 54.9376 25.9821 54.9764 26.1107 54.9901C26.2393 55.0037 26.3693 54.9919 26.4933 54.9552C26.6173 54.9186 26.7329 54.8579 26.8334 54.7767C26.934 54.6954 27.0175 54.5951 27.0793 54.4815C27.1411 54.3679 27.1799 54.2433 27.1935 54.1147C27.2072 53.9862 27.1953 53.8562 27.1587 53.7322C27.1221 53.6082 27.0614 53.4926 26.9801 53.392C26.8988 53.2915 26.7986 53.2079 26.685 53.1461Z" fill="#92BA1F"/>
<path d="M35.0992 55.4867C33.9431 55.4345 32.7939 55.2798 31.6651 55.0244C31.4105 54.9666 31.1433 55.0124 30.9224 55.1517C30.7015 55.2909 30.545 55.5122 30.4873 55.7669C30.4295 56.0215 30.4753 56.2887 30.6146 56.5096C30.7538 56.7305 30.9751 56.887 31.2298 56.9447C32.4725 57.2256 33.7376 57.3959 35.0103 57.4538H35.0553C35.3164 57.4596 35.5691 57.3615 35.7578 57.181C35.9465 57.0005 36.0558 56.7524 36.0616 56.4914C36.0675 56.2303 35.9693 55.9776 35.7888 55.7889C35.6083 55.6002 35.3603 55.4909 35.0992 55.4851V55.4867Z" fill="#92BA1F"/>
<path d="M35.9999 29.7207C34.758 29.7207 33.544 30.089 32.5114 30.7789C31.4788 31.4689 30.6739 32.4496 30.1987 33.5969C29.7234 34.7443 29.5991 36.0069 29.8414 37.2249C30.0836 38.4429 30.6817 39.5618 31.5598 40.4399C32.438 41.3181 33.5568 41.9161 34.7749 42.1584C35.9929 42.4007 37.2555 42.2764 38.4028 41.8011C39.5502 41.3259 40.5309 40.521 41.2208 39.4884C41.9108 38.4558 42.2791 37.2418 42.2791 35.9999C42.2772 34.3351 41.615 32.7391 40.4378 31.562C39.2607 30.3848 37.6646 29.7226 35.9999 29.7207ZM35.9999 40.3103C35.1474 40.3103 34.314 40.0575 33.6051 39.5839C32.8963 39.1103 32.3438 38.4371 32.0176 37.6494C31.6913 36.8618 31.606 35.9951 31.7723 35.159C31.9386 34.3228 32.3491 33.5548 32.952 32.952C33.5548 32.3491 34.3228 31.9386 35.159 31.7723C35.9951 31.606 36.8618 31.6913 37.6494 32.0176C38.4371 32.3438 39.1103 32.8963 39.5839 33.6051C40.0575 34.314 40.3103 35.1474 40.3103 35.9999C40.3091 37.1427 39.8546 38.2384 39.0465 39.0465C38.2384 39.8546 37.1427 40.3091 35.9999 40.3103Z" fill="#92BA1F"/>
</svg>
