<svg width="72" height="72" viewBox="0 0 72 72" fill="none" xmlns="http://www.w3.org/2000/svg">
<path d="M70.8006 0H16.8008C16.1381 0 15.6008 0.537299 15.6008 1.2V19.2H18.0008V2.39999H69.6006V68.3999C69.6122 69.0309 69.1253 69.5595 68.4954 69.5999C68.3922 69.5999 68.289 69.5915 68.1858 69.5891C67.9734 69.5831 67.761 69.5783 67.5522 69.5566C67.5342 69.5566 67.5174 69.5566 67.4994 69.5495C63.5803 69.1211 60.4844 66.0282 60.0523 62.1095C60.0523 62.0927 60.0463 62.0747 60.0439 62.0579C60.0148 61.7727 60.0004 61.4864 60.0007 61.1999V58.7999C60.0007 58.1372 59.4634 57.5999 58.8007 57.5999H18.0008V35.9999H15.6008V57.5999H6.00078C5.33808 57.5999 4.80078 58.1372 4.80078 58.7999V61.1999C4.80738 67.1618 9.63887 71.9932 15.6008 71.9998H68.5206C70.4679 71.9488 72.0156 70.3477 72.0006 68.3999V1.2C72.0006 0.537299 71.4633 0 70.8006 0ZM15.6008 69.5999C10.9638 69.5946 7.20603 65.8368 7.20078 61.1999V59.9999H57.6007V61.1999C57.6023 61.5956 57.6251 61.991 57.6691 62.3843C57.6799 62.4887 57.7003 62.5895 57.7147 62.6927C57.7543 62.9831 57.8023 63.2723 57.8659 63.5567C57.8875 63.6563 57.9151 63.7547 57.9403 63.8543C58.0135 64.1435 58.0963 64.4279 58.1923 64.7087C58.2199 64.7891 58.2487 64.8683 58.2787 64.9487C58.3879 65.2463 58.5115 65.5367 58.6471 65.8235C58.6759 65.8823 58.7023 65.9435 58.7311 65.9975C58.8815 66.3015 59.0467 66.597 59.2267 66.8843C59.2507 66.9227 59.2723 66.9623 59.2963 67.0043C59.4919 67.3107 59.7031 67.6071 59.9287 67.8923L59.9671 67.9439C60.229 68.2728 60.5095 68.5865 60.8071 68.8835C61.0655 69.1395 61.3334 69.3795 61.6111 69.6034L15.6008 69.5999Z" fill="#92BA1F"/>
<path d="M39.5999 33.5996C39.9182 33.5996 40.2233 33.473 40.4483 33.248L45.2483 28.448C45.7168 27.9794 45.7168 27.2198 45.2483 26.7512L40.4483 21.9512C40.2233 21.7262 39.9182 21.5996 39.5999 21.5996H5.99999C2.68634 21.5996 0 24.286 0 27.5996C0 30.9132 2.68634 33.5996 5.99999 33.5996H39.5999ZM39.2903 24.1868L42.7031 27.5996L39.2903 31.0124L38.4371 27.5996L39.2903 24.1868ZM9.59998 23.9996H36.8639L36.2639 26.3996H12V28.7996H36.2639L36.8639 31.1996H9.59998V23.9996ZM2.4 27.5996C2.4 25.6114 4.01174 23.9996 5.99999 23.9996H7.19999V31.1996H5.99999C4.01174 31.1996 2.4 29.5878 2.4 27.5996Z" fill="#92BA1F"/>
<path d="M27.6001 51.6008H63.6001C64.2628 51.6008 64.8001 51.0635 64.8001 50.4008V14.4009C64.7999 13.7382 64.2626 13.201 63.5998 13.2012C63.2816 13.2012 62.9767 13.3276 62.7517 13.5525L26.7517 49.5524C26.2831 50.0211 26.2833 50.7809 26.752 51.2495C26.977 51.4743 27.282 51.6008 27.6001 51.6008ZM62.4001 17.2977V20.4009H60.0001V22.8008H62.4001V25.2008H60.0001V27.6008H62.4001V30.0008H60.0001V32.4008H62.4001V34.8008H60.0001V37.2008H62.4001V39.6008H60.0001V42.0008H62.4001V44.4008H60.0001V46.8008H62.4001V49.2008H60.0001V46.8008H57.6001V49.2008H55.2001V46.8008H52.8001V49.2008H50.4001V46.8008H48.0001V49.2008H45.6001V46.8008H43.2001V49.2008H40.8001V46.8008H38.4001V49.2008H36.0001V46.8008H33.6001V49.2008H30.4969L62.4001 17.2977Z" fill="#92BA1F"/>
<path d="M44.983 44.3997H56.4009C57.0636 44.3997 57.6009 43.8624 57.6009 43.1997V31.7817C57.6008 31.119 57.0635 30.5819 56.4006 30.582C56.0825 30.582 55.7775 30.7085 55.5525 30.9333L44.1346 42.3513C43.666 42.8201 43.6661 43.5798 44.1349 44.0484C44.3599 44.2733 44.6648 44.3997 44.983 44.3997ZM55.2009 34.6797V41.9997H47.8809L55.2009 34.6797Z" fill="#92BA1F"/>
</svg>
