<svg width="86" height="139" viewBox="0 0 86 139" fill="none" xmlns="http://www.w3.org/2000/svg">
<rect x="65.75" y="10.583" width="18.9016" height="124.807" fill="#F4F4F4" stroke="#0C369C" stroke-dasharray="3 3"/>
<rect x="18.8398" y="9.16113" width="40.2248" height="126.228" fill="#F4F4F4" stroke="#0C369C"/>
<path d="M8.88253 9.15499V137.796H6.90343H0.570312V0.842773H66.6722V137.796H60.3391H58.36V9.15499H8.88253Z" fill="#F4F4F4"/>
<path d="M0.570312 0.842773V137.796H6.90343M0.570312 0.842773L6.90343 7.17589M0.570312 0.842773H66.6722M8.88253 9.15499V137.796H6.90343M8.88253 9.15499L6.90343 7.17589M8.88253 9.15499H58.36M6.90343 137.796V7.17589M6.90343 7.17589H60.3391M66.6722 0.842773L60.3391 7.17589M66.6722 0.842773V137.796H60.3391M58.36 9.15499L60.3391 7.17589M58.36 9.15499V137.796H60.3391M60.3391 7.17589V137.796" stroke="#0C369C"/>
</svg>
