<svg width="69" height="148" viewBox="0 0 69 148" fill="none" xmlns="http://www.w3.org/2000/svg">
<path d="M9.44628 9.44628V140.163H7.43526H1V1H68.168V140.163H61.7328H59.7218V9.44628H9.44628Z" fill="#F4F4F4"/>
<path d="M1 1V140.163H7.43526M1 1L7.43526 7.43526M1 1H68.168M9.44628 9.44628V140.163H7.43526M9.44628 9.44628L7.43526 7.43526M9.44628 9.44628H59.7218M7.43526 140.163V7.43526M7.43526 7.43526H61.7328M68.168 1L61.7328 7.43526M68.168 1V140.163H61.7328M59.7218 9.44628L61.7328 7.43526M59.7218 9.44628V140.163H61.7328M61.7328 7.43526V140.163" stroke="#0C369C"/>
<path d="M15.4805 9.44622L34.7863 5.02197L36.7973 6.22858L38.8083 5.02197L59.3207 9.44622V138.554L39.2105 147L37.1995 145.793L35.1885 147L15.8827 138.554L15.4805 9.44622Z" fill="#F4F4F4"/>
<path d="M34.7863 5.02197L15.4805 9.44622L15.8827 138.554L35.1885 147M34.7863 5.02197L36.7973 6.22858M34.7863 5.02197L35.1885 147M38.8083 5.02197L59.3207 9.44622V138.554L39.2105 147M38.8083 5.02197L36.7973 6.22858M38.8083 5.02197L39.2105 147M39.2105 147L37.1995 145.793M37.1995 145.793L35.1885 147M37.1995 145.793L36.7973 6.22858" stroke="#0C369C"/>
</svg>
