<svg width="24" height="24" viewBox="0 0 24 24" fill="none" xmlns="http://www.w3.org/2000/svg">
<g clip-path="url(#clip0)">
<path d="M21.7481 3H8.20926C7.53175 3 6.89679 3.30032 6.46681 3.82542L0.167256 11.5254C-0.058356 11.8015 -0.058356 12.1985 0.167256 12.4746L6.46755 20.1753C6.89672 20.6997 7.53175 20.9999 8.20926 20.9999H21.748C22.9888 20.9999 23.998 19.9906 23.998 18.75V5.24998C23.9981 4.00923 22.9888 3 21.7481 3ZM22.4981 18.75C22.4981 19.1638 22.1619 19.4999 21.7481 19.4999H8.20926C7.98297 19.4999 7.77127 19.3996 7.62844 19.2253L1.71707 11.9999L7.62769 4.77535C7.77127 4.60029 7.9829 4.49994 8.20926 4.49994H21.748C22.1619 4.49994 22.498 4.83615 22.498 5.24991C22.4981 5.24998 22.4981 18.75 22.4981 18.75Z" fill="white"/>
<path d="M16.7187 7.71875L13.499 10.9385L10.2793 7.71875L9.21875 8.77928L12.4385 11.999L9.21875 15.2187L10.2793 16.2793L13.499 13.0595L16.7187 16.2793L17.7793 15.2187L14.5595 11.999L17.7793 8.77928L16.7187 7.71875Z" fill="white"/>
</g>
<defs>
<clipPath id="clip0">
<rect width="24" height="24" fill="white"/>
</clipPath>
</defs>
</svg>
