<svg width="24" height="24" viewBox="0 0 24 24" fill="none" xmlns="http://www.w3.org/2000/svg">
<path d="M22.6912 1.30889C21.8471 0.464859 20.7249 4.6875e-05 19.5312 9.375e-05L4.46878 0C2.00466 9.375e-05 0 2.0048 0 4.46873V19.5312C0 21.9953 2.00475 24 4.46878 24H19.5312C21.9953 24 24 21.9953 24 19.5312V4.46883C24 3.27516 23.5352 2.15292 22.6912 1.30889ZM7.77492 10.195C8.04947 9.92048 8.49464 9.92048 8.76928 10.195L11.2969 12.7226L11.2968 5.22183C11.2968 4.83352 11.6116 4.5187 11.9999 4.5187C12.3883 4.5187 12.703 4.83352 12.703 5.22183L12.7031 12.7224L15.2305 10.1949C15.5051 9.92039 15.9503 9.92039 16.2249 10.1949C16.4995 10.4695 16.4995 10.9147 16.2249 11.1893L12.4972 14.9172C12.3652 15.0491 12.1864 15.1231 12 15.1231C11.8135 15.1231 11.6347 15.0491 11.5028 14.9172L7.77502 11.1894C7.50033 10.9148 7.50033 10.4696 7.77492 10.195ZM18.7782 19.4813H5.22188C4.83361 19.4813 4.51875 19.1664 4.51875 18.7781C4.51875 18.3898 4.83361 18.075 5.22188 18.075H18.7782C19.1664 18.075 19.4813 18.3898 19.4813 18.7781C19.4813 19.1664 19.1665 19.4813 18.7782 19.4813Z" fill="#0C369C"/>
</svg>
