<svg width="582" height="206" viewBox="0 0 582 206" fill="none" xmlns="http://www.w3.org/2000/svg">
<path d="M328.1 77.8002H331.1L340.7 63.7002H352.8L339.6 82.1002L353.9 101.2H341.5L331.1 86.5002H328.1V101.2H318.1V63.7002H328.1V77.8002Z" fill="#93BA1F"/>
<path d="M416.3 77.8002H430.2V63.7002H440.2V101.2H430.2V86.5002H416.3V101.2H406.3V63.7002H416.3V77.8002Z" fill="#93BA1F"/>
<path d="M458.9 77.8002H472.8V63.7002H482.7V101.2H472.8V86.5002H458.9V101.2H448.9V63.7002H458.9V77.8002Z" fill="#93BA1F"/>
<path d="M565.7 63.7002L554 88.4002H553.7V63.7002H544.2V101.2H557.8L569 76.5002H569.4V101.2H578.9V63.7002H565.7Z" fill="#93BA1F"/>
<path d="M553.8 54V57.1C553.8 58.4 553.8 59.5 553.8 59.5H569.4C569.4 59.5 569.4 58.4 569.4 57.1V54H553.8Z" fill="#93BA1F"/>
<path d="M525.3 63.7002V101.2H535.3V63.7002H525.3ZM520.2 78.5002H501.9V63.7002H491.9V101.2H520.2C520.2 101.2 520.2 98.9002 520.2 96.1002V90.2002V89.6002V83.7002C520.2 80.8002 520.2 78.5002 520.2 78.5002ZM510.2 89.6002V90.2002V93.4002C510.2 93.4002 509.5 93.4002 508.7 93.4002H501.8V86.4002H508.7C509.5 86.4002 510.2 86.4002 510.2 86.4002V89.6002Z" fill="#93BA1F"/>
<path d="M309.4 63.7998H271C271 63.7998 271 66.0998 271 68.8998V79.1998V85.7998V96.0998C271 98.8998 271 101.2 271 101.2H309.3C309.3 101.2 309.3 98.8998 309.3 96.0998V85.7998V79.1998V68.8998C309.4 66.0998 309.4 63.7998 309.4 63.7998ZM299.4 93.3998C299.4 93.3998 298.7 93.3998 297.9 93.3998H282.5C281.7 93.3998 281 93.3998 281 93.3998V72.9998C281 72.1998 281 71.4998 281 71.4998H299.3C299.3 71.4998 299.3 72.1998 299.3 72.9998V93.3998H299.4Z" fill="#93BA1F"/>
<path d="M397.7 63.7998H359.4C359.4 63.7998 359.4 66.0998 359.4 68.8998V79.1998V85.7998V96.0998C359.4 98.8998 359.4 101.2 359.4 101.2H397.7C397.7 101.2 397.7 98.8998 397.7 96.0998V85.7998V79.1998V68.8998C397.7 66.0998 397.7 63.7998 397.7 63.7998ZM387.7 93.3998C387.7 93.3998 387 93.3998 386.2 93.3998H370.9C370.1 93.3998 369.4 93.3998 369.4 93.3998V72.9998C369.4 72.1998 369.4 71.4998 369.4 71.4998H387.7C387.7 71.4998 387.7 72.1998 387.7 72.9998V93.3998Z" fill="#93BA1F"/>
<path d="M301.3 114.1H293.7L279 129.6H276.7V114.1H271V150.9H276.7V134.7H279L295.5 150.9H303.3L284.1 131.9L301.3 114.1Z" fill="#00369C"/>
<path d="M370.5 129.8H351.7V114H346V150.9H351.7V134.7H370.5V150.9H376.3V114H370.5V129.8Z" fill="#00369C"/>
<path d="M541.7 129.8H522.9V114H517.2V150.9H522.9V134.7H541.7V150.9H547.4V114H541.7V129.8Z" fill="#00369C"/>
<path d="M474.2 129.8H455.4V114H449.7V150.9H455.4V134.7H474.2V150.9H480V114H474.2V129.8Z" fill="#00369C"/>
<path d="M418.9 144.5V114.1H413.2V150.9H420.8L438.2 120.7V150.9H443.8V114.1H436.1L418.9 144.5Z" fill="#00369C"/>
<path d="M485.8 150.9H511.4V146.1H491.5V134.7H510.7V129.8H491.5V118.9H511.5V114.1H485.8V150.9Z" fill="#00369C"/>
<path d="M381.7 114V118.9H391.7V150.9H397.7V118.9H407.7V114H381.7Z" fill="#00369C"/>
<path d="M552.9 114V118.9H562.9V150.9H568.9V118.9H578.9V114H552.9Z" fill="#00369C"/>
<path d="M335.1 114.1H311.5C308.7 114.1 306.4 114.1 306.4 114.1V145.8C306.4 148.6 306.4 150.8 306.4 150.8H340.3C340.3 150.8 340.3 148.5 340.3 145.8V114.1C340.3 114.1 338 114.1 335.1 114.1ZM334.7 144.5C334.7 145.3 334.7 146 334.7 146H312C312 146 312 145.3 312 144.5V120.4C312 119.6 312 118.9 312 118.9H334.7C334.7 118.9 334.7 119.6 334.7 120.4V144.5Z" fill="#00369C"/>
<path d="M431.357 184.068L428.094 189.995H424.565C427.051 185.511 429.471 181.382 431.824 177.609C434.199 173.835 436.541 170.272 438.849 166.92H442.013C442.346 168.585 442.645 170.272 442.912 171.981C443.2 173.668 443.478 175.444 443.744 177.309C444.01 179.173 444.266 181.149 444.51 183.236C444.754 185.322 445.009 187.576 445.276 189.995H442.013C441.902 188.996 441.802 187.997 441.713 186.998C441.624 185.977 441.524 185.001 441.413 184.068H431.357ZM441.114 181.471C440.936 179.673 440.725 177.886 440.481 176.11C440.259 174.334 439.993 172.503 439.682 170.616C438.905 171.748 437.939 173.213 436.785 175.011C435.631 176.787 434.321 178.94 432.856 181.471H441.114ZM452.202 182.37C452.091 182.858 451.98 183.336 451.869 183.802C451.758 184.268 451.702 184.712 451.702 185.134C451.702 185.888 451.88 186.488 452.235 186.932C452.612 187.376 453.3 187.653 454.299 187.764L453.6 190.295C452.69 190.273 451.913 190.139 451.269 189.895C450.648 189.629 450.137 189.285 449.738 188.863C449.36 188.441 449.083 187.942 448.905 187.365C448.728 186.787 448.639 186.155 448.639 185.467C448.639 184.956 448.683 184.423 448.772 183.868C448.861 183.313 448.983 182.736 449.138 182.137L453.334 164.689L456.564 164.156L452.202 182.37ZM462.939 190.428C461.963 190.428 461.141 190.284 460.475 189.995C459.832 189.707 459.299 189.318 458.877 188.83C458.478 188.341 458.189 187.764 458.011 187.098C457.834 186.432 457.745 185.722 457.745 184.967C457.745 184.39 457.789 183.824 457.878 183.269C457.989 182.692 458.111 182.115 458.245 181.538L460.376 172.681H463.472L461.508 180.872C461.397 181.382 461.252 181.982 461.075 182.67C460.897 183.358 460.808 184.046 460.808 184.734C460.808 185.134 460.842 185.522 460.908 185.9C460.997 186.255 461.141 186.577 461.341 186.865C461.563 187.132 461.852 187.354 462.207 187.531C462.562 187.687 463.006 187.764 463.539 187.764C464.493 187.764 465.326 187.564 466.036 187.165C466.769 186.743 467.379 186.255 467.867 185.7C467.89 185.345 467.923 184.978 467.967 184.601C468.012 184.224 468.089 183.813 468.2 183.369L470.764 172.681H473.861L471.23 183.635C471.119 184.146 471.02 184.645 470.931 185.134C470.864 185.6 470.831 186.088 470.831 186.599C470.831 187.109 470.875 187.62 470.964 188.13C471.053 188.641 471.208 189.196 471.43 189.795L468.7 190.195C468.589 189.951 468.478 189.673 468.367 189.362C468.256 189.052 468.167 188.719 468.101 188.364C467.856 188.586 467.568 188.819 467.235 189.063C466.902 189.307 466.513 189.529 466.069 189.729C465.648 189.929 465.17 190.095 464.638 190.228C464.127 190.361 463.561 190.428 462.939 190.428ZM494.965 172.314C495.942 172.314 496.763 172.47 497.429 172.78C498.117 173.069 498.661 173.469 499.06 173.979C499.482 174.49 499.782 175.089 499.96 175.777C500.137 176.443 500.226 177.153 500.226 177.908C500.226 178.397 500.182 178.929 500.093 179.506C500.026 180.061 499.926 180.605 499.793 181.138L497.662 189.995H494.565L496.53 181.804C496.641 181.293 496.763 180.727 496.896 180.106C497.052 179.462 497.129 178.829 497.129 178.208C497.129 177.786 497.074 177.375 496.963 176.976C496.874 176.576 496.707 176.232 496.463 175.944C496.241 175.655 495.919 175.422 495.498 175.244C495.076 175.067 494.554 174.978 493.933 174.978C493.222 174.978 492.534 175.122 491.868 175.411C491.202 175.677 490.647 175.955 490.203 176.243C490.248 176.554 490.281 176.865 490.303 177.176C490.348 177.464 490.37 177.753 490.37 178.041C490.37 178.552 490.326 179.074 490.237 179.606C490.17 180.117 490.081 180.627 489.97 181.138L487.839 189.995H484.743L486.707 181.804C486.818 181.293 486.94 180.716 487.073 180.073C487.207 179.429 487.273 178.785 487.273 178.141C487.273 177.72 487.229 177.32 487.14 176.943C487.051 176.543 486.896 176.199 486.674 175.91C486.474 175.622 486.197 175.4 485.841 175.244C485.486 175.067 485.031 174.978 484.476 174.978C483.921 174.978 483.377 175.011 482.845 175.078C482.334 175.145 481.901 175.233 481.546 175.344L478.017 189.995H474.92L478.916 173.346C479.915 173.036 481.002 172.792 482.179 172.614C483.377 172.414 484.443 172.314 485.375 172.314C486.308 172.314 487.096 172.481 487.739 172.814C488.383 173.124 488.894 173.546 489.271 174.079C489.493 173.924 489.793 173.746 490.17 173.546C490.57 173.346 491.014 173.158 491.502 172.98C492.013 172.803 492.556 172.647 493.134 172.514C493.733 172.381 494.343 172.314 494.965 172.314ZM505.591 189.995H502.494L506.656 172.681H509.753L505.591 189.995ZM509.187 169.551C508.676 169.551 508.244 169.395 507.888 169.084C507.555 168.774 507.389 168.341 507.389 167.786C507.389 167.075 507.611 166.521 508.055 166.121C508.499 165.699 508.998 165.488 509.553 165.488C510.064 165.488 510.497 165.655 510.852 165.988C511.207 166.299 511.385 166.743 511.385 167.32C511.385 167.986 511.152 168.529 510.685 168.951C510.219 169.351 509.72 169.551 509.187 169.551ZM513.883 189.995H510.786L514.782 173.346C515.803 173.036 516.902 172.792 518.078 172.614C519.277 172.414 520.342 172.314 521.275 172.314C522.274 172.314 523.128 172.459 523.839 172.747C524.571 173.013 525.159 173.391 525.603 173.879C526.047 174.345 526.369 174.923 526.569 175.611C526.791 176.277 526.902 177.009 526.902 177.808C526.902 178.319 526.858 178.863 526.769 179.44C526.68 179.995 526.569 180.561 526.436 181.138L524.305 189.995H521.208L523.173 181.804C523.328 181.182 523.472 180.55 523.606 179.906C523.761 179.262 523.839 178.652 523.839 178.075C523.839 177.187 523.594 176.454 523.106 175.877C522.618 175.278 521.708 174.978 520.376 174.978C519.821 174.978 519.277 175.011 518.744 175.078C518.211 175.145 517.767 175.233 517.412 175.344L513.883 189.995ZM532.222 189.995H529.126L533.288 172.681H536.384L532.222 189.995ZM535.818 169.551C535.308 169.551 534.875 169.395 534.52 169.084C534.187 168.774 534.02 168.341 534.02 167.786C534.02 167.075 534.242 166.521 534.686 166.121C535.13 165.699 535.63 165.488 536.185 165.488C536.695 165.488 537.128 165.655 537.483 165.988C537.838 166.299 538.016 166.743 538.016 167.32C538.016 167.986 537.783 168.529 537.317 168.951C536.851 169.351 536.351 169.551 535.818 169.551ZM543.744 190.428C542.767 190.428 541.946 190.284 541.28 189.995C540.636 189.707 540.103 189.318 539.682 188.83C539.282 188.341 538.993 187.764 538.816 187.098C538.638 186.432 538.55 185.722 538.55 184.967C538.55 184.39 538.594 183.824 538.683 183.269C538.794 182.692 538.916 182.115 539.049 181.538L541.18 172.681H544.277L542.312 180.872C542.201 181.382 542.057 181.982 541.879 182.67C541.702 183.358 541.613 184.046 541.613 184.734C541.613 185.134 541.646 185.522 541.713 185.9C541.802 186.255 541.946 186.577 542.146 186.865C542.368 187.132 542.656 187.354 543.011 187.531C543.367 187.687 543.811 187.764 544.343 187.764C545.298 187.764 546.13 187.564 546.841 187.165C547.573 186.743 548.184 186.255 548.672 185.7C548.694 185.345 548.727 184.978 548.772 184.601C548.816 184.224 548.894 183.813 549.005 183.369L551.569 172.681H554.665L552.035 183.635C551.924 184.146 551.824 184.645 551.735 185.134C551.669 185.6 551.635 186.088 551.635 186.599C551.635 187.109 551.68 187.62 551.769 188.13C551.857 188.641 552.013 189.196 552.235 189.795L549.504 190.195C549.393 189.951 549.282 189.673 549.171 189.362C549.06 189.052 548.972 188.719 548.905 188.364C548.661 188.586 548.372 188.819 548.039 189.063C547.706 189.307 547.318 189.529 546.874 189.729C546.452 189.929 545.975 190.095 545.442 190.228C544.932 190.361 544.365 190.428 543.744 190.428ZM575.769 172.314C576.746 172.314 577.567 172.47 578.233 172.78C578.922 173.069 579.465 173.469 579.865 173.979C580.287 174.49 580.586 175.089 580.764 175.777C580.942 176.443 581.03 177.153 581.03 177.908C581.03 178.397 580.986 178.929 580.897 179.506C580.831 180.061 580.731 180.605 580.598 181.138L578.466 189.995H575.37L577.334 181.804C577.445 181.293 577.567 180.727 577.701 180.106C577.856 179.462 577.934 178.829 577.934 178.208C577.934 177.786 577.878 177.375 577.767 176.976C577.678 176.576 577.512 176.232 577.268 175.944C577.046 175.655 576.724 175.422 576.302 175.244C575.88 175.067 575.359 174.978 574.737 174.978C574.027 174.978 573.339 175.122 572.673 175.411C572.007 175.677 571.452 175.955 571.008 176.243C571.052 176.554 571.086 176.865 571.108 177.176C571.152 177.464 571.174 177.753 571.174 178.041C571.174 178.552 571.13 179.074 571.041 179.606C570.975 180.117 570.886 180.627 570.775 181.138L568.644 189.995H565.547L567.512 181.804C567.623 181.293 567.745 180.716 567.878 180.073C568.011 179.429 568.078 178.785 568.078 178.141C568.078 177.72 568.033 177.32 567.945 176.943C567.856 176.543 567.7 176.199 567.478 175.91C567.279 175.622 567.001 175.4 566.646 175.244C566.291 175.067 565.836 174.978 565.281 174.978C564.726 174.978 564.182 175.011 563.649 175.078C563.139 175.145 562.706 175.233 562.351 175.344L558.821 189.995H555.724L559.72 173.346C560.719 173.036 561.807 172.792 562.983 172.614C564.182 172.414 565.247 172.314 566.18 172.314C567.112 172.314 567.9 172.481 568.544 172.814C569.188 173.124 569.698 173.546 570.076 174.079C570.298 173.924 570.597 173.746 570.975 173.546C571.374 173.346 571.818 173.158 572.306 172.98C572.817 172.803 573.361 172.647 573.938 172.514C574.537 172.381 575.148 172.314 575.769 172.314Z" fill="#999999"/>
<path d="M51.5 39.5996C50.3 39.9996 49.2 40.3996 48.1 40.7996C47 41.1996 45.8 41.5996 44.7 42.0996C43.6 42.4996 42.5 42.9996 41.4 43.3996C40.3 43.7996 39.3 44.2996 38.2 44.6996C38.3 43.7996 38.5 42.8996 38.6 42.0996C38.7 41.2996 38.9 40.3996 39.1 39.5996C39.3 38.7996 39.4 37.9996 39.6 37.1996C39.8 36.3996 40 35.6996 40.2 34.8996C41.2 34.4996 42.2 34.0996 43.2 33.6996C44.2 33.2996 45.1999 32.8996 46.2999 32.4996C47.2999 32.0996 48.4 31.6996 49.5 31.2996C50.6 30.8996 51.6 30.4996 52.7 30.0996C52.6 30.7996 52.5 31.5996 52.4 32.2996C52.3 33.0996 52.2 33.7996 52.1 34.5996C52 35.3996 51.9 36.1996 51.7999 36.9996C51.5999 37.8996 51.5 38.7996 51.5 39.5996Z" fill="#00369C"/>
<path d="M76 32.4004C74.7 32.7004 73.4 33.0004 72.2 33.4004C70.9 33.7004 69.7 34.1004 68.4 34.4004C67.1 34.7004 65.9 35.1004 64.7 35.5004C63.5 35.9004 62.2 36.2004 61 36.6004C61 35.8004 61 34.9004 61.1 34.1004C61.1 33.3004 61.2 32.5004 61.2 31.7004C61.2 30.9004 61.3 30.2004 61.3 29.4004C61.4 28.7004 61.4 27.9004 61.5 27.2004C62.6 26.9004 63.8 26.5004 64.9 26.2004C66.1 25.9004 67.2 25.5004 68.4 25.2004C69.6 24.9004 70.8 24.6004 71.9 24.3004C73.1 24.0004 74.3 23.7004 75.5 23.4004C75.5 24.1004 75.5 24.8004 75.6 25.5004C75.6 26.2004 75.7 26.9004 75.7 27.7004C75.7 28.5004 75.8 29.2004 75.8 30.0004C75.9 30.7004 75.9 31.5004 76 32.4004Z" fill="#00369C"/>
<path d="M78.3001 51.3004C76.9001 51.7004 75.5001 52.0004 74.1001 52.4004C72.7001 52.8004 71.3001 53.2004 70.0001 53.6004C68.6001 54.0004 67.3001 54.4004 65.9001 54.8004C64.6001 55.2004 63.2001 55.6004 61.9001 56.0004C61.8001 54.9004 61.7001 53.8004 61.6001 52.8004C61.5001 51.7004 61.4001 50.7004 61.4001 49.7004C61.3001 48.7004 61.3001 47.7004 61.2001 46.7004C61.1001 45.7004 61.1001 44.8004 61.1001 43.8004C62.4001 43.4004 63.6001 43.0004 64.9001 42.6004C66.2001 42.2004 67.5001 41.9004 68.8001 41.5004C70.1001 41.1004 71.4001 40.8004 72.7001 40.4004C74.0001 40.0004 75.3001 39.7004 76.7001 39.4004C76.8001 40.3004 76.9001 41.3004 77.0001 42.2004C77.1001 43.2004 77.2001 44.1004 77.4001 45.1004C77.5001 46.1004 77.7001 47.1004 77.8001 48.2004C77.9001 49.2004 78.1001 50.2004 78.3001 51.3004Z" fill="#00369C"/>
<path d="M51.4999 59.4C50.1999 59.8 48.9999 60.3 47.6999 60.7C46.4999 61.2 45.1999 61.6 43.9999 62.1C42.7999 62.6 41.5999 63 40.3999 63.5C39.1999 64 38.0999 64.4 36.8999 64.9C36.8999 63.8 36.8999 62.7 36.8999 61.6C36.8999 60.5 36.8999 59.4 36.9999 58.4C36.9999 57.3 37.0999 56.3 37.0999 55.3C37.1999 54.3 37.1999 53.3 37.2999 52.3C38.3999 51.8 39.4999 51.4 40.5999 50.9C41.6999 50.4 42.8999 50 43.9999 49.6C45.1999 49.2 46.2999 48.7 47.4999 48.3C48.6999 47.9 49.8999 47.4 51.0999 47C51.0999 48 51.0999 49 51.0999 49.9C51.0999 50.9 51.0999 51.9 51.1999 53C51.1999 54 51.2999 55.1 51.2999 56.2C51.3999 57.2 51.3999 58.3 51.4999 59.4Z" fill="#00369C"/>
<path d="M30.1001 48.3998C29.1001 48.8998 28.2001 49.2998 27.2001 49.7998C26.3001 50.2998 25.3001 50.6998 24.4001 51.1998C23.5001 51.6998 22.6001 52.1998 21.7001 52.5998C20.8001 53.0998 20.0001 53.5998 19.1001 53.9998C19.3001 53.0998 19.5001 52.1998 19.8001 51.2998C20.0001 50.3998 20.3001 49.4998 20.5001 48.6998C20.8001 47.8998 21.0001 46.9998 21.3001 46.1998C21.6001 45.3998 21.9001 44.5998 22.1001 43.7998C22.9001 43.2998 23.7001 42.8998 24.5001 42.3998C25.3001 41.8998 26.2001 41.4998 27.0001 40.9998C27.9001 40.4998 28.7001 40.0998 29.6001 39.5998C30.5001 39.1998 31.4001 38.6998 32.3001 38.2998C32.1001 39.0998 31.8001 39.7998 31.6001 40.5998C31.4001 41.3998 31.2001 42.1998 31.0001 42.9998C30.8001 43.7998 30.6001 44.6998 30.4001 45.4998C30.4001 46.5998 30.2001 47.4998 30.1001 48.3998Z" fill="#00369C"/>
<path d="M54.4 84.1002C53.1 84.6002 51.7 85.0002 50.4 85.5002C49.1 86.0002 47.8 86.5002 46.5 86.9002C45.2 87.4002 43.9 87.9002 42.7 88.4002C41.4 88.9002 40.2 89.4002 39 89.9002C38.8 88.8002 38.7 87.8002 38.6 86.7002C38.5 85.7002 38.3 84.6002 38.2 83.6002C38.1 82.6002 38 81.5002 37.9 80.5002C37.8 79.5002 37.7 78.5002 37.6 77.5002C37.6 77.2002 37.6 77.0002 37.5 76.7002C37.5 76.4002 37.5 76.2002 37.4 75.9002C37.4 75.6002 37.3999 75.4002 37.2999 75.1002C37.2999 74.8002 37.3 74.6002 37.2 74.3002C38.4 73.8002 39.5999 73.3002 40.7999 72.9002C41.9999 72.4002 43.2 71.9002 44.5 71.5002C45.7 71.0002 46.9999 70.6002 48.2999 70.1002C49.5999 69.6002 50.9 69.2002 52.2 68.7002C52.2 68.9002 52.2999 69.2002 52.2999 69.4002C52.2999 69.7002 52.4 69.9002 52.4 70.2002C52.4 70.5002 52.5 70.7002 52.5 71.0002C52.5 71.3002 52.6 71.5002 52.6 71.8002C52.7 72.8002 52.8 73.8002 53 74.8002C53.1 75.8002 53.3 76.8002 53.4 77.9002C53.5 78.9002 53.7 80.0002 53.9 81.0002C54.1 82.0002 54.2 83.0002 54.4 84.1002Z" fill="#00369C"/>
<path d="M82.6999 75.2002C81.1999 75.6002 79.7999 76.0002 78.2999 76.4002C76.7999 76.8002 75.3999 77.2002 73.8999 77.7002C72.4999 78.1002 70.9999 78.6002 69.5999 79.0002C68.1999 79.4002 66.7999 79.9002 65.3999 80.3002C65.1999 79.3002 64.9999 78.2002 64.7999 77.2002C64.5999 76.2002 64.3999 75.1002 64.2999 74.1002C64.0999 73.1002 63.9999 72.1002 63.7999 71.1002C63.5999 70.1002 63.4999 69.1002 63.2999 68.1002C63.2999 67.8002 63.1999 67.6002 63.1999 67.3002C63.1999 67.0002 63.0999 66.8002 63.0999 66.5002C63.0999 66.3002 62.9999 66.0002 62.9999 65.8002C62.9999 65.6002 62.8999 65.3002 62.8999 65.1002C64.2999 64.7002 65.5999 64.2002 66.9999 63.8002C68.3999 63.4002 69.7999 63.0002 71.1999 62.6002C72.5999 62.2002 73.9999 61.8002 75.3999 61.4002C76.7999 61.0002 78.1999 60.6002 79.6999 60.2002C79.6999 60.4002 79.7999 60.7002 79.7999 60.9002C79.7999 61.1002 79.8999 61.4002 79.8999 61.6002C79.8999 61.8002 79.9999 62.1002 79.9999 62.3002C79.9999 62.5002 80.0999 62.8002 80.0999 63.0002C80.2999 64.0002 80.4999 64.9002 80.6999 65.9002C80.8999 66.9002 81.0999 67.9002 81.2999 68.9002C81.4999 69.9002 81.6999 70.9002 81.8999 71.9002C82.2999 73.2002 82.4999 74.2002 82.6999 75.2002Z" fill="#00369C"/>
<path d="M89.3999 102.3C87.8999 102.7 86.3999 103.2 84.8999 103.7C83.3999 104.2 81.8999 104.6 80.3999 105.1C78.8999 105.6 77.4999 106 75.9999 106.5C74.4999 107 73.1 107.4 71.7 107.9C71.3 106.5 70.9999 105.1 70.5999 103.7C70.1999 102.3 69.8999 100.9 69.5999 99.5004C69.2999 98.1004 68.8999 96.7004 68.5999 95.3004C68.2999 93.9004 68 92.5004 67.7 91.2004C69.1 90.7004 70.5999 90.3004 71.9999 89.8004C73.3999 89.3004 74.8999 88.9004 76.3999 88.5004C77.8999 88.1004 79.2999 87.6004 80.7999 87.2004C82.2999 86.8004 83.7999 86.3004 85.2999 85.9004C85.5999 87.2004 85.9999 88.6004 86.2999 90.0004C86.5999 91.4004 86.9999 92.7004 87.2999 94.1004C87.6999 95.5004 87.9999 96.9004 88.3999 98.3004C88.5999 99.5004 88.9999 100.9 89.3999 102.3Z" fill="#00369C"/>
<path d="M60.4001 111.7C59.0001 112.2 57.7 112.7 56.3 113.2C55 113.7 53.6 114.2 52.3 114.7C51 115.2 49.7001 115.7 48.4001 116.2C47.1001 116.7 45.8001 117.2 44.6001 117.7C44.2001 116.3 43.9001 114.9 43.5001 113.5C43.2001 112.1 42.8001 110.7 42.5001 109.3C42.2001 107.9 41.9001 106.5 41.6001 105.1C41.3001 103.7 41 102.3 40.8 101C42 100.5 43.3001 99.9996 44.6001 99.4996C45.9001 98.9996 47.2001 98.4996 48.5001 97.9996C49.8001 97.4996 51.1001 96.9996 52.5001 96.4996C53.8001 95.9996 55.2 95.4996 56.5 95.0996C56.8 96.4996 57.1001 97.8996 57.4001 99.1996C57.7001 100.6 58.0001 102 58.4001 103.4C58.7001 104.8 59.1001 106.2 59.4001 107.6C59.7001 108.8 60.0001 110.2 60.4001 111.7Z" fill="#00369C"/>
<path d="M9.7 103.8C8.8 104.3 8 104.8 7.2 105.3C6.4 105.8 5.6 106.3 4.8 106.8C4 107.3 3.3 107.8 2.5 108.2C1.8 108.7 1.1 109.2 0.400002 109.6C0.300002 108.6 0.199997 107.5 0.199997 106.5C0.0999969 105.5 0.0999985 104.5 0.0999985 103.4C0.0999985 102.4 0 101.4 0 100.4C0 99.4002 0 98.4002 0 97.4002C0 97.1002 0 96.9002 0 96.6002C0 96.3002 0 96.1002 0 95.8002C0 95.5002 0 95.3002 0 95.0002C0 94.7002 0 94.5002 0 94.2002C0.7 93.7002 1.4 93.2002 2.1 92.7002C2.8 92.2002 3.5 91.7002 4.3 91.2002C5.1 90.7002 5.8 90.2002 6.6 89.7002C7.4 89.2002 8.2 88.7002 9 88.2002C9 88.5002 9 88.7002 9 89.0002C9 89.3002 9 89.5002 9 89.8002C9 90.1002 9 90.3002 9 90.6002C9 90.9002 9 91.1002 9 91.4002C9 92.4002 9 93.4002 9.1 94.4002C9.1 95.4002 9.2 96.4002 9.2 97.5002C9.3 98.5002 9.3 99.6002 9.4 100.6C9.6 101.7 9.6 102.8 9.7 103.8Z" fill="#00369C"/>
<path d="M29.6 93.8002C28.5 94.3002 27.4 94.8002 26.2999 95.3002C25.1999 95.8002 24.1 96.3002 23.1 96.8002C22.1 97.3002 21 97.8002 20 98.3002C19 98.8002 18 99.3002 17 99.8002C16.9 98.7002 16.8 97.7002 16.7 96.6002C16.6 95.6002 16.5 94.5002 16.5 93.5002C16.4 92.5002 16.3999 91.4002 16.2999 90.4002C16.1999 89.4002 16.2 88.4002 16.2 87.4002C16.2 87.1002 16.2 86.9002 16.2 86.6002C16.2 86.3002 16.2 86.1002 16.2 85.8002C16.2 85.5002 16.2 85.3002 16.2 85.0002C16.2 84.7002 16.2 84.5002 16.2 84.2002C17.1 83.7002 18.1 83.2002 19.1 82.7002C20.1 82.2002 21.1 81.7002 22.1 81.2002C23.1 80.7002 24.2 80.2002 25.2 79.7002C26.3 79.2002 27.3 78.7002 28.4 78.2002C28.4 78.5002 28.4 78.7002 28.4 79.0002C28.4 79.3002 28.4 79.5002 28.4 79.8002C28.4 80.1002 28.4 80.3002 28.4 80.6002C28.4 80.9002 28.4 81.1002 28.4 81.4002C28.5 82.4002 28.5 83.4002 28.6 84.4002C28.7 85.4002 28.8 86.5002 28.9 87.5002C29 88.5002 29.1 89.6002 29.2 90.6002C29.4 91.7002 29.5 92.8002 29.6 93.8002Z" fill="#00369C"/>
<path d="M35.0001 121.4C33.8001 121.9 32.7001 122.4 31.6001 122.9C30.5001 123.4 29.4001 123.9 28.3001 124.3C27.2001 124.8 26.2001 125.3 25.1001 125.7C24.1001 126.2 23.0001 126.7 22.0001 127.1C21.6001 125.7 21.3001 124.3 21.0001 122.9C20.7001 121.5 20.4001 120.1 20.1001 118.7C19.8001 117.3 19.5001 115.9 19.3001 114.6C19.0001 113.2 18.8001 111.9 18.6001 110.5C19.6001 110 20.6001 109.5 21.6001 109C22.6001 108.5 23.7001 108 24.7001 107.5C25.8001 107 26.9001 106.5 28.0001 106C29.1001 105.5 30.2001 105 31.4001 104.5C31.6001 105.9 31.9001 107.3 32.2001 108.6C32.5001 110 32.8001 111.4 33.1001 112.8C33.4001 114.2 33.7001 115.6 34.1001 117C34.3001 118.6 34.6001 120 35.0001 121.4Z" fill="#00369C"/>
<path d="M14.5 130.9C13.6 131.4 12.7 131.8 11.9 132.3C11.1 132.8 10.2 133.2 9.39996 133.6C8.59996 134 7.79995 134.5 7.09995 134.9C6.29995 135.3 5.59996 135.8 4.89996 136.2C4.59996 134.9 4.19996 133.5 3.89996 132.2C3.59996 130.9 3.29995 129.5 2.99995 128.2C2.69995 126.9 2.49995 125.5 2.29995 124.2C2.09995 122.9 1.89995 121.5 1.69995 120.2C2.39995 119.7 3.09996 119.3 3.89996 118.8C4.59996 118.3 5.39995 117.9 6.19995 117.4C6.99995 116.9 7.79995 116.5 8.59995 116C9.39995 115.5 10.3 115 11.2 114.6C11.4 116 11.6 117.3 11.9 118.7C12.1 120.1 12.4 121.4 12.7 122.8C13 124.2 13.3 125.5 13.6 126.9C13.8 128.2 14.1 129.5 14.5 130.9Z" fill="#00369C"/>
<path d="M53.7001 24.7C52.7001 25.1 51.6001 25.4 50.6001 25.8C49.6001 26.2 48.6001 26.6 47.6001 26.9C46.6001 27.3 45.6001 27.7 44.7001 28.1C43.7001 28.5 42.8 28.9 41.8 29.3C42 28.6 42.3001 28 42.5001 27.4C42.7001 26.8 43.0001 26.2 43.2001 25.6C43.5001 25 43.7001 24.4 44.0001 23.9C44.3001 23.3 44.5 22.8 44.8 22.3C45.7 21.9 46.6001 21.6 47.4001 21.2C48.3001 20.8 49.2001 20.5 50.1001 20.1C51.0001 19.7 51.9001 19.4 52.9001 19C53.8001 18.7 54.8001 18.3 55.7001 18C55.5001 18.5 55.3001 19 55.1001 19.6C54.9001 20.1 54.7001 20.7 54.6001 21.3C54.4001 21.9 54.2001 22.5 54.1001 23C54.0001 23.5 53.8001 24.1 53.7001 24.7Z" fill="#00369C"/>
<path d="M34.5 32.5996C33.6 32.9996 32.8 33.4996 31.9 33.8996C31.1 34.2996 30.2 34.7996 29.4 35.1996C28.6 35.5996 27.8 36.0996 27 36.4996C26.2 36.8996 25.4 37.3996 24.7 37.7996C25 37.0996 25.4 36.3996 25.7 35.6996C26 34.9996 26.4 34.3996 26.7 33.6996C27.1 33.0996 27.3999 32.3996 27.7999 31.7996C28.1999 31.1996 28.5 30.5996 28.9 29.9996C29.6 29.5996 30.3 29.1996 31.1 28.6996C31.8 28.2996 32.5999 27.8996 33.2999 27.4996C34.0999 27.0996 34.8 26.6996 35.6 26.2996C36.4 25.8996 37.2 25.4996 38 25.0996C37.7 25.6996 37.4 26.1996 37.1 26.7996C36.8 27.3996 36.5 27.9996 36.2 28.5996C35.9 29.1996 35.5999 29.7996 35.2999 30.4996C35.0999 31.2996 34.8 31.9996 34.5 32.5996Z" fill="#00369C"/>
<path d="M157.4 13.7002C156.6 13.6002 155.8 13.5002 155 13.3002C154.2 13.2002 153.4 13.1002 152.5 13.0002C151.7 12.9002 150.8 12.8002 150 12.7002C149.1 12.6002 148.3 12.5002 147.4 12.4002C147 11.9002 146.6 11.4002 146.3 11.0002C145.9 10.5002 145.6 10.1002 145.2 9.7002C144.8 9.3002 144.5 8.8002 144.1 8.4002C143.7 8.0002 143.4 7.6002 143 7.2002C143.8 7.3002 144.7 7.40019 145.5 7.50019C146.3 7.60019 147.1 7.70019 147.9 7.80019C148.7 7.90019 149.5 8.00019 150.3 8.10019C151.1 8.20019 151.8 8.30019 152.6 8.50019C153 8.90019 153.4 9.3002 153.8 9.7002C154.2 10.1002 154.6 10.5002 155 11.0002C155.4 11.4002 155.8 11.9002 156.2 12.3002C156.6 12.7002 157 13.2002 157.4 13.7002Z" fill="#00369C"/>
<path d="M96.6001 5.1C95.6001 5.2 94.6001 5.4 93.6001 5.5C92.6001 5.6 91.6001 5.8 90.6001 6C89.6001 6.2 88.6001 6.3 87.6001 6.5C86.6001 6.7 85.6001 6.9 84.6001 7C84.6001 6.6 84.6001 6.3 84.7001 5.9C84.7001 5.6 84.8001 5.2 84.8001 4.9C84.8001 4.6 84.9001 4.3 84.9001 4C84.9001 3.7 85.0001 3.4 85.0001 3.2C85.9001 3 86.8001 2.9 87.7001 2.7C88.6001 2.5 89.5001 2.4 90.4001 2.3C91.3001 2.2 92.2001 2 93.1001 1.9C94.0001 1.8 94.9001 1.7 95.8001 1.5C95.8001 1.7 95.9001 2 95.9001 2.3C95.9001 2.6 96.0001 2.9 96.0001 3.2C96.0001 3.5 96.1001 3.8 96.2001 4.1C96.5001 4.4 96.5001 4.7 96.6001 5.1Z" fill="#00369C"/>
<path d="M115.8 3.5C114.9 3.5 113.9 3.6 113 3.6C112.1 3.6 111.1 3.7 110.2 3.7C109.2 3.8 108.3 3.8 107.3 3.9C106.3 4 105.4 4.1 104.4 4.1C104.3 3.8 104.2 3.4 104.1 3.1C104 2.8 103.9 2.5 103.8 2.2C103.7 1.9 103.6 1.6 103.5 1.4C103.4 1.1 103.3 0.899998 103.2 0.599998C104.1 0.499998 105 0.500002 105.9 0.400002C106.8 0.300002 107.7 0.300001 108.5 0.200001C109.4 0.200001 110.2 0.0999985 111.1 0.0999985C112 0.0999985 112.8 0 113.7 0C113.9 0.2 114 0.500001 114.2 0.700001C114.4 1 114.6 1.2 114.7 1.5C114.9 1.8 115.1 2.1 115.3 2.4C115.4 2.9 115.6 3.2 115.8 3.5Z" fill="#00369C"/>
<path d="M120.2 12.0004C119.2 12.0004 118.1 12.1004 117 12.2004C115.9 12.3004 114.9 12.3004 113.8 12.4004C112.7 12.5004 111.6 12.6004 110.6 12.7004C109.5 12.8004 108.4 12.9004 107.3 13.0004C107.1 12.5004 107 11.9004 106.8 11.4004C106.6 10.9004 106.5 10.4004 106.3 9.90039C106.1 9.40039 106 9.00039 105.8 8.50039C105.7 8.10039 105.5 7.60039 105.4 7.20039C106.4 7.10039 107.4 7.00039 108.5 6.90039C109.5 6.80039 110.5 6.70039 111.5 6.70039C112.5 6.60039 113.5 6.60039 114.5 6.50039C115.5 6.40039 116.5 6.40039 117.5 6.40039C117.7 6.80039 117.9 7.20039 118.2 7.60039C118.4 8.00039 118.6 8.50039 118.9 8.90039C119.1 9.40039 119.4 9.80039 119.6 10.3004C119.7 11.0004 120 11.5004 120.2 12.0004Z" fill="#00369C"/>
<path d="M98.4001 14.0002C97.3001 14.2002 96.1001 14.3002 95.0001 14.5002C93.9001 14.7002 92.7001 14.9002 91.6001 15.1002C90.5001 15.3002 89.3001 15.5002 88.2001 15.7002C87.1001 15.9002 85.9001 16.1002 84.8001 16.4002C84.8001 15.8002 84.7001 15.3002 84.7001 14.7002C84.7001 14.2002 84.6001 13.6002 84.6001 13.1002C84.6001 12.6002 84.6001 12.1002 84.6001 11.6002C84.6001 11.1002 84.6001 10.7002 84.6001 10.2002C85.7001 10.0002 86.7001 9.80019 87.8001 9.60019C88.9001 9.40019 89.9001 9.20019 91.0001 9.10019C92.1001 8.90019 93.1001 8.80019 94.2001 8.60019C95.2001 8.40019 96.3001 8.3002 97.3001 8.2002C97.4001 8.6002 97.5001 9.10019 97.6001 9.50019C97.7001 10.0002 97.8001 10.4002 97.9001 10.9002C98.0001 11.4002 98.1001 11.9002 98.2001 12.4002C98.2001 12.9002 98.3001 13.5002 98.4001 14.0002Z" fill="#00369C"/>
<path d="M171.9 16.8002C171.2 16.6002 170.6 16.4002 169.9 16.3002C169.2 16.1002 168.5 16.0002 167.8 15.8002C167.1 15.6002 166.4 15.5002 165.7 15.3002C165 15.1002 164.2 15.0002 163.5 14.8002C163.1 14.3002 162.6 13.9002 162.2 13.4002C161.8 13.0002 161.3 12.5002 160.9 12.1002C160.5 11.7002 160 11.3002 159.6 10.9002C159.2 10.5002 158.7 10.1002 158.3 9.7002C159 9.9002 159.7 10.0002 160.4 10.2002C161.1 10.4002 161.8 10.5002 162.4 10.7002C163.1 10.9002 163.7 11.0002 164.4 11.2002C165 11.4002 165.7 11.6002 166.3 11.7002C166.8 12.1002 167.2 12.5002 167.7 12.9002C168.2 13.3002 168.6 13.7002 169.1 14.1002C169.6 14.5002 170 15.0002 170.5 15.4002C171 15.8002 171.5 16.3002 171.9 16.8002Z" fill="#00369C"/>
<path d="M69.2999 140.4C67.8999 140.9 66.5999 141.4 65.2999 141.8C63.9999 142.3 62.6999 142.8 61.3999 143.2C60.0999 143.7 58.7999 144.1 57.4999 144.6C56.1999 145.1 54.9999 145.5 53.6999 146C53.1999 144.6 52.5999 143.2 52.0999 141.7C51.5999 140.3 51.0999 138.9 50.5999 137.4C50.0999 136 49.5999 134.5 49.1999 133.1C48.6999 131.7 48.2999 130.2 47.8999 128.8C49.1999 128.3 50.3999 127.8 51.6999 127.3C52.9999 126.8 54.2999 126.3 55.5999 125.8C56.8999 125.3 58.1999 124.8 59.5999 124.3C60.8999 123.8 62.2999 123.3 63.6999 122.8C64.0999 124.2 64.5999 125.7 64.9999 127.1C65.4999 128.5 65.8999 130 66.3999 131.4C66.8999 132.8 67.3999 134.3 67.7999 135.7C68.2999 137.5 68.7999 138.9 69.2999 140.4Z" fill="#00369C"/>
<path d="M97.7999 130.8C96.2999 131.3 94.7999 131.7 93.3999 132.2C91.8999 132.7 90.4999 133.1 88.9999 133.6C87.4999 134.1 86.0999 134.6 84.6999 135C83.2999 135.5 81.7999 136 80.3999 136.4C79.8999 135 79.3999 133.5 78.9999 132.1C78.4999 130.7 78.0999 129.2 77.5999 127.8C77.0999 126.4 76.6999 124.9 76.1999 123.5C75.7999 122.1 75.2999 120.6 74.8999 119.2C76.2999 118.7 77.7999 118.2 79.1999 117.8C80.6999 117.3 82.0999 116.9 83.5999 116.4C85.0999 115.9 86.5999 115.5 87.9999 115C89.4999 114.5 90.9999 114.1 92.4999 113.6C92.8999 115 93.2999 116.5 93.7999 117.9C94.1999 119.3 94.6999 120.8 95.0999 122.2C95.4999 123.6 95.9999 125.1 96.3999 126.5C96.8999 128 97.2999 129.4 97.7999 130.8Z" fill="#00369C"/>
<path d="M107.5 158.9C106.1 159.4 104.7 159.8 103.3 160.3C101.9 160.8 100.5 161.2 99.2 161.7C97.8 162.2 96.5 162.6 95.1 163.1C93.7 163.6 92.4 164 91.1 164.5C90.5 163.1 90 161.8 89.4 160.4C88.8 159 88.3 157.6 87.7 156.3C87.2 154.9 86.6 153.5 86.1 152.1C85.6 150.7 85 149.3 84.5 147.9C85.9 147.4 87.3 146.9 88.7 146.5C90.1 146 91.5 145.5 93 145.1C94.4 144.6 95.9 144.1 97.3 143.7C98.7 143.2 100.2 142.8 101.6 142.3C102.1 143.7 102.6 145.1 103.1 146.5C103.6 147.9 104.1 149.3 104.6 150.7C105.1 152.1 105.6 153.5 106.1 154.9C106.5 156.2 107 157.5 107.5 158.9Z" fill="#00369C"/>
<path d="M80.5001 168.2C79.2001 168.7 77.9001 169.1 76.7001 169.6C75.4001 170.1 74.2001 170.5 72.9001 170.9C71.7001 171.3 70.4001 171.8 69.2001 172.2C68.0001 172.6 66.8001 173.1 65.6001 173.5C64.9001 172.2 64.3001 170.8 63.6001 169.5C63.0001 168.2 62.3001 166.8 61.7001 165.5C61.1001 164.1 60.5001 162.8 59.9001 161.4C59.3001 160 58.7001 158.6 58.1001 157.3C59.3001 156.8 60.6001 156.4 61.8001 155.9C63.1001 155.4 64.3001 155 65.6001 154.5C66.9001 154 68.2001 153.6 69.5001 153.1C70.8001 152.6 72.1001 152.2 73.5001 151.7C74.1001 153.1 74.6001 154.5 75.2001 155.9C75.8001 157.3 76.3001 158.7 76.9001 160.1C77.5001 161.5 78.1001 162.8 78.7001 164.2C79.3001 165.5 79.9001 166.9 80.5001 168.2Z" fill="#00369C"/>
<path d="M56.5 177C55.4 177.4 54.3001 177.8 53.2001 178.2C52.1 178.6 51.1001 179 50.0001 179.4C49.0001 179.8 47.9001 180.2 46.9001 180.6C45.9001 181 44.9001 181.4 43.9001 181.7C43.2001 180.4 42.5 179.2 41.8 177.9C41.1 176.6 40.4001 175.3 39.7001 174C39.0001 172.7 38.4001 171.4 37.7001 170C37.0001 168.7 36.4 167.3 35.8 166C36.8 165.6 37.8 165.2 38.8 164.8C39.8 164.4 40.9001 164 41.9001 163.5C43.0001 163.1 44.1 162.6 45.2001 162.2C46.3001 161.8 47.4001 161.3 48.6001 160.9C49.2001 162.3 49.8001 163.6 50.5001 165C51.1001 166.4 51.8001 167.7 52.4001 169.1C53.0001 170.4 53.7001 171.8 54.4001 173.1C55.1001 174.3 55.8 175.7 56.5 177Z" fill="#00369C"/>
<path d="M177.2 109.3C176.1 109.5 175 109.8 173.9 110C172.8 110.2 171.7 110.5 170.5 110.8C169.4 111.1 168.2 111.3 167.1 111.6C165.9 111.9 164.8 112.2 163.6 112.4C163.3 111.1 162.9 109.7 162.6 108.4C162.3 107.1 161.9 105.7 161.6 104.4C161.3 103.1 160.9 101.8 160.6 100.4C160.3 99.1004 159.9 97.8004 159.6 96.5004C160.8 96.3004 162 96.0004 163.2 95.8004C164.4 95.6004 165.6 95.3004 166.7 95.1004C167.9 94.9004 169 94.7004 170.1 94.5004C171.2 94.3004 172.3 94.1004 173.4 93.9004C173.7 95.2004 174.1 96.4004 174.4 97.7004C174.7 99.0004 175 100.2 175.4 101.5C175.7 102.8 176 104.1 176.3 105.3C176.6 106.7 176.9 108 177.2 109.3Z" fill="#00369C"/>
<path d="M196.6 105.4C195.7 105.6 194.8 105.7 193.9 105.9C193 106.1 192.1 106.2 191.2 106.4C190.3 106.6 189.3 106.8 188.4 106.9C187.4 107.1 186.5 107.3 185.5 107.5C185.2 106.2 184.9 105 184.7 103.7C184.4 102.4 184.1 101.2 183.8 99.9C183.5 98.7 183.2 97.4 182.9 96.2C182.6 95 182.3 93.7 182 92.5C183 92.3 184 92.2 185 92.1C186 92 186.9 91.8 187.9 91.7C188.8 91.6 189.8 91.4 190.7 91.3C191.6 91.2 192.5 91.1 193.4 91C193.7 92.2 194 93.4 194.3 94.6C194.6 95.8 194.9 97 195.2 98.2C195.5 99.4 195.7 100.6 196 101.8C196.1 103 196.4 104.2 196.6 105.4Z" fill="#00369C"/>
<path d="M200.7 129.9C199.9 130.1 199 130.4 198.2 130.6C197.3 130.8 196.5 131.1 195.6 131.3C194.7 131.5 193.8 131.8 192.9 132.1C192 132.4 191.1 132.6 190.1 132.9C189.9 131.6 189.7 130.4 189.5 129.1C189.3 127.8 189.1 126.6 188.9 125.3C188.7 124 188.5 122.8 188.2 121.5C188 120.2 187.7 119 187.5 117.7C188.5 117.5 189.4 117.2 190.4 117C191.3 116.8 192.3 116.6 193.2 116.4C194.1 116.2 195 116 195.9 115.8C196.8 115.6 197.6 115.4 198.5 115.2C198.7 116.4 198.9 117.7 199.1 118.9C199.3 120.1 199.5 121.4 199.7 122.6C199.9 123.8 200.1 125 200.2 126.3C200.3 127.4 200.5 128.7 200.7 129.9Z" fill="#00369C"/>
<path d="M182.3 135.1C181.3 135.4 180.3 135.7 179.2 136C178.2 136.3 177.1 136.6 176 136.9C174.9 137.2 173.8 137.5 172.8 137.9C171.7 138.2 170.6 138.6 169.5 138.9C169.2 137.6 169 136.3 168.7 135C168.4 133.7 168.1 132.4 167.9 131C167.6 129.7 167.3 128.3 167 127C166.7 125.7 166.4 124.3 166.1 123C167.3 122.7 168.4 122.4 169.6 122.1C170.7 121.8 171.9 121.5 173 121.2C174.1 120.9 175.2 120.6 176.3 120.4C177.4 120.1 178.4 119.9 179.5 119.6C179.8 120.9 180 122.2 180.3 123.5C180.6 124.8 180.8 126.1 181 127.4C181.2 128.7 181.5 130 181.7 131.3C181.9 132.5 182.1 133.8 182.3 135.1Z" fill="#00369C"/>
<path d="M126.9 122.1C125.5 122.5 124.1 122.9 122.6 123.3C121.2 123.7 119.7 124.1 118.3 124.6C116.9 125 115.4 125.5 114 125.9C112.5 126.3 111.1 126.8 109.6 127.2C109.2 125.8 108.7 124.4 108.3 122.9C107.9 121.5 107.4 120.1 107 118.6C106.6 117.2 106.2 115.8 105.7 114.3C105.3 112.9 104.9 111.5 104.5 110C106 109.6 107.5 109.2 109 108.7C110.5 108.3 112 107.9 113.4 107.5C114.9 107.1 116.3 106.7 117.8 106.3C119.3 105.9 120.7 105.5 122.1 105.2C122.5 106.6 122.9 108 123.3 109.4C123.7 110.8 124.1 112.2 124.5 113.6C124.9 115 125.3 116.4 125.7 117.8C126.1 119.2 126.5 120.7 126.9 122.1Z" fill="#00369C"/>
<path d="M153.7 114.8C152.4 115.1 151.2 115.4 149.9 115.8C148.6 116.1 147.3 116.5 146 116.8C144.7 117.1 143.4 117.5 142 117.9C140.7 118.3 139.3 118.6 138 119C137.6 117.6 137.2 116.2 136.9 114.8C136.5 113.4 136.1 112 135.8 110.6C135.4 109.2 135 107.8 134.7 106.5C134.3 105.1 133.9 103.8 133.6 102.4C135 102.1 136.4 101.7 137.7 101.4C139.1 101.1 140.4 100.8 141.8 100.4C143.1 100.1 144.5 99.7996 145.8 99.4996C147.1 99.1996 148.4 98.8996 149.7 98.5996C150.1 99.8996 150.4 101.3 150.8 102.6C151.2 103.9 151.5 105.3 151.9 106.6C152.3 107.9 152.6 109.3 153 110.6C153 112.1 153.4 113.5 153.7 114.8Z" fill="#00369C"/>
<path d="M160.2 141.8C159 142.2 157.8 142.5 156.6 142.9C155.4 143.3 154.2 143.7 152.9 144.1C151.7 144.5 150.4 144.9 149.2 145.3C147.9 145.7 146.7 146.1 145.4 146.5C145 145.2 144.7 143.8 144.3 142.4C143.9 141 143.6 139.7 143.2 138.3C142.8 136.9 142.5 135.6 142.1 134.2C141.7 132.8 141.4 131.4 141 130.1C142.3 129.7 143.7 129.3 145 129C146.3 128.6 147.6 128.3 148.9 127.9C150.2 127.5 151.5 127.2 152.7 126.8C154 126.4 155.2 126.1 156.5 125.8C156.8 127.2 157.2 128.5 157.5 129.9C157.8 131.3 158.1 132.6 158.5 133.9C158.8 135.2 159.1 136.6 159.4 137.9C159.6 139.1 159.9 140.5 160.2 141.8Z" fill="#00369C"/>
<path d="M134.9 149.8C133.6 150.2 132.2 150.7 130.9 151.1C129.6 151.5 128.2 152 126.8 152.4C125.4 152.8 124.1 153.3 122.7 153.7C121.3 154.2 119.9 154.6 118.6 155.1C118.1 153.7 117.7 152.4 117.2 151C116.7 149.6 116.3 148.2 115.8 146.8C115.3 145.4 114.9 144 114.4 142.6C113.9 141.2 113.5 139.8 113 138.4C114.4 137.9 115.9 137.5 117.3 137.1C118.7 136.7 120.1 136.2 121.6 135.8C123 135.4 124.4 134.9 125.8 134.5C127.2 134.1 128.6 133.7 130 133.2C130.4 134.6 130.8 136 131.2 137.4C131.6 138.8 132 140.2 132.4 141.6C132.8 143 133.2 144.4 133.6 145.7C134.1 147.1 134.5 148.5 134.9 149.8Z" fill="#00369C"/>
<path d="M215.1 126C214.5 126.2 213.8 126.3 213.2 126.5C212.5 126.7 211.9 126.8 211.2 127C210.5 127.2 209.8 127.4 209.1 127.6C208.4 127.8 207.7 128 206.9 128.2C206.8 127 206.6 125.8 206.5 124.6C206.4 123.4 206.2 122.2 206 121C205.8 119.8 205.7 118.6 205.5 117.4C205.3 116.2 205.1 115 204.9 113.8C205.7 113.6 206.4 113.5 207.2 113.3C207.9 113.2 208.7 113 209.4 112.9C210.1 112.8 210.8 112.6 211.5 112.5C212.2 112.4 212.8 112.3 213.5 112.1C213.7 113.2 213.8 114.4 214 115.5C214.2 116.7 214.3 117.8 214.4 119C214.5 120.2 214.7 121.3 214.8 122.5C214.9 123.7 215 124.9 215.1 126Z" fill="#00369C"/>
<path d="M93.3001 193.5C92.1001 193.9 91.0001 194.3 89.8001 194.7C88.6001 195.1 87.5001 195.5 86.4001 195.9C85.3001 196.3 84.1001 196.7 83.0001 197.1C81.9001 197.5 80.8001 197.9 79.7001 198.3C79.0001 197.2 78.2001 196 77.5001 194.8C76.8001 193.6 76.0001 192.4 75.3001 191.2C74.6001 190 73.9001 188.8 73.2001 187.6C72.5001 186.4 71.8001 185.1 71.1001 183.9C72.3001 183.5 73.4001 183.1 74.6001 182.6C75.8001 182.2 77.0001 181.8 78.2001 181.3C79.4001 180.9 80.6001 180.4 81.8001 180C83.0001 179.6 84.3001 179.1 85.5001 178.7C86.1001 180 86.8001 181.2 87.4001 182.5C88.0001 183.8 88.7001 185 89.3001 186.2C89.9001 187.4 90.6001 188.6 91.3001 189.8C92.0001 191.1 92.6001 192.3 93.3001 193.5Z" fill="#00369C"/>
<path d="M71.2001 201.2C70.2001 201.6 69.2001 201.9 68.2001 202.3C67.2001 202.6 66.2001 203 65.3001 203.3C64.3001 203.6 63.4001 204 62.5001 204.3C61.6001 204.6 60.6001 204.9 59.7001 205.3C58.9001 204.2 58.0001 203.1 57.2001 202C56.4001 200.9 55.6001 199.8 54.8001 198.6C54.0001 197.5 53.2001 196.3 52.4001 195.1C51.6001 193.9 50.8001 192.7 50.1001 191.5C51.0001 191.1 52.0001 190.8 53.0001 190.4C54.0001 190 55.0001 189.7 56.0001 189.3C57.0001 188.9 58.0001 188.6 59.1001 188.2C60.1001 187.8 61.2001 187.4 62.3001 187C63.0001 188.2 63.8001 189.5 64.5001 190.7C65.2001 191.9 66.0001 193.1 66.8001 194.3C67.6001 195.5 68.3001 196.6 69.1001 197.8C69.7001 199 70.5001 200.1 71.2001 201.2Z" fill="#00369C"/>
<path d="M202.6 153.8C201.8 154.1 201.1 154.4 200.3 154.7C199.5 155 198.7 155.3 197.9 155.6C197.1 155.9 196.3 156.2 195.4 156.5C194.6 156.8 193.7 157.1 192.9 157.4C192.8 156.2 192.7 155 192.6 153.8C192.5 152.6 192.4 151.4 192.3 150.2C192.2 149 192.1 147.8 191.9 146.5C191.8 145.3 191.6 144 191.5 142.8C192.4 142.5 193.3 142.2 194.2 141.9C195.1 141.6 195.9 141.3 196.8 141.1C197.6 140.8 198.5 140.6 199.3 140.3C200.1 140 200.9 139.8 201.7 139.5C201.8 140.7 201.9 141.9 202 143.1C202.1 144.3 202.2 145.5 202.2 146.7C202.3 147.9 202.3 149.1 202.4 150.2C202.5 151.5 202.5 152.6 202.6 153.8Z" fill="#00369C"/>
<path d="M142.7 175.8C141.5 176.2 140.3 176.7 139.1 177.1C137.9 177.5 136.7 178 135.4 178.4C134.2 178.8 132.9 179.3 131.7 179.7C130.5 180.1 129.2 180.6 128 181C127.5 179.8 127.1 178.6 126.6 177.3C126.1 176.1 125.7 174.8 125.2 173.5C124.7 172.2 124.3 171 123.8 169.7C123.3 168.4 122.9 167.1 122.4 165.8C123.7 165.3 125.1 164.9 126.4 164.4C127.7 163.9 129 163.5 130.4 163C131.7 162.6 133 162.1 134.3 161.7C135.6 161.3 136.9 160.8 138.2 160.4C138.6 161.7 139 163 139.4 164.3C139.8 165.6 140.2 166.9 140.6 168.1C141 169.4 141.4 170.6 141.7 171.9C141.9 173.3 142.3 174.5 142.7 175.8Z" fill="#00369C"/>
<path d="M165.6 167.4C164.5 167.8 163.4 168.2 162.3 168.6C161.2 169 160.1 169.4 159 169.8C157.9 170.2 156.7 170.6 155.6 171C154.5 171.4 153.3 171.8 152.1 172.3C151.8 171.1 151.5 169.8 151.1 168.6C150.8 167.3 150.4 166.1 150.1 164.8C149.8 163.5 149.4 162.2 149.1 161C148.8 159.7 148.4 158.4 148.1 157.1C149.3 156.7 150.6 156.3 151.8 155.9C153 155.5 154.2 155.1 155.4 154.7C156.6 154.3 157.8 153.9 159 153.5C160.2 153.1 161.3 152.7 162.5 152.3C162.8 153.6 163.1 154.9 163.3 156.2C163.6 157.5 163.8 158.7 164.1 160C164.4 161.3 164.6 162.5 164.9 163.8C165.2 165 165.4 166.2 165.6 167.4Z" fill="#00369C"/>
<path d="M169.7 190.3C168.8 190.7 167.8 191.1 166.8 191.5C165.8 191.9 164.9 192.3 163.9 192.7C162.9 193.1 161.9 193.5 160.9 193.9C159.9 194.3 158.9 194.7 157.9 195.1C157.6 194.1 157.4 193 157.1 191.9C156.8 190.8 156.6 189.7 156.3 188.6C156 187.5 155.7 186.4 155.5 185.3C155.2 184.2 154.9 183 154.6 181.9C155.7 181.5 156.8 181.1 157.9 180.6C159 180.2 160.1 179.8 161.1 179.4C162.2 179 163.2 178.6 164.3 178.2C165.3 177.8 166.4 177.4 167.4 177C167.6 178.2 167.8 179.3 168 180.4C168.2 181.5 168.4 182.7 168.6 183.8C168.8 184.9 169 186 169.2 187.1C169.4 188.1 169.6 189.2 169.7 190.3Z" fill="#00369C"/>
<path d="M149.7 198.4C148.6 198.8 147.6 199.2 146.5 199.6C145.4 200 144.4 200.4 143.3 200.9C142.2 201.3 141.2 201.7 140.1 202.2C139 202.6 137.9 203 136.8 203.5C136.4 202.5 135.9 201.5 135.5 200.4C135.1 199.4 134.6 198.3 134.2 197.2C133.8 196.1 133.3 195 132.9 193.9C132.5 192.8 132 191.7 131.6 190.5C132.8 190.1 134 189.6 135.2 189.2C136.4 188.8 137.6 188.3 138.7 187.9C139.9 187.5 141 187 142.2 186.6C143.4 186.2 144.5 185.7 145.7 185.3C146.1 186.5 146.4 187.6 146.8 188.7C147.1 189.8 147.5 190.9 147.8 192C148.1 193.1 148.5 194.2 148.8 195.2C149 196.3 149.4 197.3 149.7 198.4Z" fill="#00369C"/>
<path d="M216 148.8C215.4 149 214.8 149.2 214.2 149.5C213.6 149.7 213 150 212.3 150.2C211.7 150.4 211 150.7 210.4 150.9C209.7 151.1 209.1 151.4 208.4 151.7C208.4 150.6 208.4 149.4 208.3 148.2C208.3 147 208.2 145.9 208.2 144.7C208.2 143.5 208.1 142.4 208 141.2C207.9 140 207.9 138.8 207.8 137.7C208.5 137.5 209.2 137.3 209.9 137C210.6 136.8 211.3 136.6 211.9 136.4C212.6 136.2 213.2 136 213.9 135.8C214.5 135.6 215.2 135.4 215.8 135.2C215.9 136.3 215.9 137.5 215.9 138.6C215.9 139.7 216 140.9 216 142C216 143.1 216 144.3 216 145.4C216 146.6 216 147.7 216 148.8Z" fill="#00369C"/>
<path d="M181.4 27.7998C180.7 27.5998 180 27.4998 179.3 27.2998C178.6 27.0998 177.9 26.9998 177.1 26.7998C176.4 26.6998 175.6 26.4998 174.9 26.3998C174.1 26.2998 173.4 26.0998 172.6 25.9998C172.1 25.2998 171.7 24.6998 171.2 24.0998C170.7 23.4998 170.3 22.8998 169.8 22.2998C169.3 21.6998 168.9 21.0998 168.4 20.4998C168 19.8998 167.5 19.3998 167.1 18.7998C167.9 18.8998 168.6 19.0998 169.3 19.1998C170 19.3998 170.8 19.4998 171.5 19.6998C172.2 19.8998 172.9 19.9998 173.6 20.1998C174.3 20.3998 175 20.4998 175.6 20.6998C176.1 21.1998 176.5 21.7998 177 22.2998C177.5 22.8998 177.9 23.3998 178.4 23.9998C178.9 24.5998 179.3 25.1998 179.8 25.7998C180.4 26.4998 180.9 27.1998 181.4 27.7998Z" fill="#00369C"/>
<path d="M199.4 60.4C198.7 60.3 198 60.3 197.2 60.2C196.5 60.1 195.7 60.1 194.9 60C194.1 59.9 193.4 59.9 192.6 59.9C191.8 59.9 191 59.8 190.2 59.8C189.9 59 189.6 58.2 189.2 57.4C188.9 56.6 188.5 55.8 188.2 55C187.9 54.2 187.5 53.4 187.2 52.7C186.9 51.9 186.5 51.2 186.2 50.4C186.1 50.2 186 50 185.9 49.8C185.8 49.6 185.7 49.4 185.6 49.2C185.5 49 185.4 48.8 185.3 48.6C185.2 48.4 185.1 48.2 185 48C185.8 48.1 186.6 48.1 187.4 48.2C188.2 48.3 189 48.4 189.7 48.4C190.5 48.5 191.2 48.6 191.9 48.7C192.6 48.8 193.4 48.9 194.1 49C194.2 49.2 194.3 49.4 194.4 49.5C194.5 49.7 194.6 49.9 194.7 50.1C194.8 50.3 194.9 50.5 195 50.7C195.1 50.9 195.2 51.1 195.3 51.3C195.6 52 196 52.8 196.3 53.5C196.6 54.2 197 55 197.3 55.7C197.6 56.5 198 57.2 198.3 58C198.7 58.8 199.1 59.6 199.4 60.4Z" fill="#00369C"/>
<path d="M211.6 62.2998C211.1 62.1998 210.5 62.0998 210 61.8998C209.5 61.7998 208.9 61.6998 208.3 61.5998C207.7 61.4998 207.1 61.3998 206.5 61.2998C205.9 61.1998 205.3 61.0998 204.7 60.9998C204.4 60.1998 204.1 59.4998 203.7 58.7998C203.4 58.0998 203 57.2998 202.7 56.5998C202.4 55.8998 202 55.0998 201.7 54.3998C201.4 53.6998 201 52.9998 200.7 52.2998C200.6 52.0998 200.5 51.8998 200.4 51.7998C200.3 51.5998 200.2 51.3998 200.1 51.2998C200 51.0998 199.9 50.8998 199.8 50.7998C199.7 50.5998 199.6 50.3998 199.5 50.2998C200.1 50.3998 200.7 50.5998 201.4 50.6998C202 50.7998 202.6 50.9998 203.2 51.0998C203.8 51.1998 204.3 51.3998 204.9 51.4998C205.5 51.5998 206 51.7998 206.5 51.9998C206.6 52.1998 206.7 52.2998 206.8 52.4998C206.9 52.6998 207 52.7998 207.1 52.9998C207.2 53.1998 207.3 53.2998 207.4 53.4998C207.5 53.6998 207.6 53.7998 207.7 53.9998C208 54.6998 208.4 55.3998 208.7 56.0998C209 56.7998 209.4 57.4998 209.7 58.1998C210 58.8998 210.4 59.5998 210.7 60.2998C211 60.8998 211.3 61.5998 211.6 62.2998Z" fill="#00369C"/>
<path d="M218.6 81.3998C218.1 81.2998 217.6 81.2998 217 81.2998C216.5 81.2998 215.9 81.1998 215.4 81.1998C214.8 81.1998 214.3 81.0998 213.7 81.0998C213.1 81.0998 212.5 80.9998 211.9 80.9998C211.6 79.9998 211.3 78.8998 210.9 77.8998C210.6 76.8998 210.2 75.7998 209.9 74.7998C209.6 73.7998 209.2 72.7998 208.9 71.7998C208.5 70.7998 208.2 69.7998 207.8 68.7998C208.4 68.8998 209 68.8998 209.6 68.9998C210.2 69.0998 210.8 69.1998 211.3 69.1998C211.9 69.2998 212.4 69.3998 213 69.4998C213.5 69.5998 214.1 69.6998 214.6 69.7998C215 70.6998 215.3 71.6998 215.7 72.6998C216 73.6998 216.4 74.5998 216.7 75.5998C217 76.5998 217.3 77.5998 217.7 78.4998C218 79.3998 218.3 80.3998 218.6 81.3998Z" fill="#00369C"/>
<path d="M206.6 80.8996C205.9 80.8996 205.2 80.8996 204.5 80.8996C203.8 80.8996 203 80.8996 202.3 80.9996C201.5 80.9996 200.8 81.0996 200 81.0996C199.2 81.0996 198.4 81.1996 197.6 81.1996C197.3 80.0996 196.9 78.9996 196.6 77.8996C196.3 76.7996 195.9 75.6996 195.6 74.5996C195.2 73.4996 194.9 72.3996 194.5 71.2996C194.1 70.1996 193.8 69.1996 193.4 68.0996C194.2 68.0996 195 68.0996 195.8 68.0996C196.6 68.0996 197.4 68.0996 198.1 68.1996C198.9 68.1996 199.6 68.1996 200.3 68.2996C201 68.2996 201.7 68.3996 202.5 68.3996C202.9 69.3996 203.2 70.3996 203.6 71.4996C204 72.4996 204.3 73.5996 204.7 74.5996C205 75.5996 205.4 76.6996 205.7 77.7996C206 78.6996 206.3 79.7996 206.6 80.8996Z" fill="#00369C"/>
<path d="M132 41.5C128.7 41.8 125.3 42.2 121.9 42.7C118.4 43.2 114.9 43.7 111.4 44.3C107.8 44.9 104.2 45.5 100.6 46.3C96.8999 47 93.1999 47.8 89.4999 48.6C88.9999 45.8 88.4999 43.1 87.9999 40.6C87.5999 38.1 87.1999 35.7 86.7999 33.4C86.4999 31.1 86.0999 29 85.8999 27C85.5999 25 85.4 23.1 85.2 21.4C88.4 20.8 91.5999 20.2 94.7999 19.6C97.9999 19.1 101.1 18.6 104.2 18.2C107.3 17.8 110.4 17.5 113.4 17.2C116.4 16.9 119.4 16.7 122.3 16.5C123 18.1 123.7 19.8 124.5 21.7C125.3 23.6 126 25.5 126.8 27.6C127.6 29.7 128.5 31.9 129.3 34.2C130.2 36.5 131 38.9 132 41.5Z" fill="#898C8E"/>
<path d="M174.7 40.3998C172.3 40.1998 169.8 40.0998 167.3 39.9998C164.7 39.8998 162 39.8998 159.3 39.8998C156.5 39.8998 153.6 39.9998 150.7 40.0998C147.7 40.1998 144.7 40.3998 141.6 40.5998C140.6 38.0998 139.7 35.6998 138.7 33.3998C137.8 31.0998 136.8 28.9998 135.9 26.8998C135 24.8998 134.1 22.9998 133.3 21.0998C132.4 19.2998 131.6 17.5998 130.8 15.9998C133.6 15.8998 136.3 15.8998 139 15.9998C141.6 16.0998 144.2 16.0998 146.7 16.2998C149.2 16.3998 151.6 16.5998 154 16.8998C156.3 17.0998 158.6 17.3998 160.8 17.6998C162 19.1998 163.1 20.7998 164.2 22.3998C165.4 24.0998 166.5 25.8998 167.7 27.6998C168.9 29.5998 170 31.5998 171.2 33.5998C172.4 35.8998 173.6 38.0998 174.7 40.3998Z" fill="#898C8E"/>
<path d="M190.7 81.6994C188.3 81.8994 185.8 82.0994 183.2 82.3994C180.6 82.6994 177.8 82.9994 175 83.3994C172.1 83.7994 169.2 84.1994 166.1 84.6994C163 85.1994 159.8 85.6994 156.6 86.2994C155.7 83.1994 154.8 80.0994 153.9 76.9994C153 73.9994 152.1 70.9994 151.1 67.9994C150.2 65.0994 149.2 62.1994 148.3 59.3994C147.4 56.5994 146.4 53.8994 145.5 51.1994C145.4 50.9994 145.3 50.7994 145.3 50.4994C145.2 50.2994 145.1 50.0994 145.1 49.7994C145 49.5994 144.9 49.3994 144.9 49.1994C144.8 48.9994 144.7 48.7994 144.7 48.5994C147.9 48.2994 151 48.0994 154 47.8994C157 47.6994 159.9 47.5994 162.7 47.4994C165.5 47.3994 168.2 47.3994 170.8 47.3994C173.4 47.3994 175.9 47.4994 178.3 47.5994C178.4 47.7994 178.5 47.9994 178.6 48.1994C178.7 48.3994 178.8 48.5994 178.9 48.7994C179 48.9994 179.1 49.1994 179.2 49.3994C179.3 49.5994 179.4 49.7994 179.5 49.9994C180.6 52.3994 181.6 54.8994 182.6 57.3994C183.6 59.8994 184.6 62.4994 185.6 65.1994C186.6 67.8994 187.5 70.5994 188.4 73.2994C189 75.9994 189.9 78.7994 190.7 81.6994Z" fill="#898C8E"/>
<path d="M146.6 88.1002C143.1 88.8002 139.6 89.5002 135.9 90.3002C132.2 91.1002 128.5 91.9002 124.8 92.8002C121 93.7002 117.1 94.6002 113.3 95.6002C109.4 96.6002 105.4 97.7002 101.5 98.8002C100.6 95.4002 99.6999 92.0002 98.7999 88.7002C97.8999 85.4002 97.0999 82.1002 96.2999 78.8002C95.4999 75.6002 94.6999 72.4002 93.9999 69.3002C93.2999 66.2002 92.5999 63.2002 91.9999 60.3002C91.8999 60.1002 91.8999 59.8002 91.7999 59.6002C91.6999 59.4002 91.6999 59.1002 91.5999 58.9002C91.4999 58.7002 91.4999 58.4002 91.3999 58.2002C91.2999 58.0002 91.3 57.7002 91.2 57.5002C95 56.6002 98.7999 55.8002 102.5 55.0002C106.2 54.2002 109.9 53.5002 113.6 52.9002C117.2 52.3002 120.8 51.7002 124.3 51.1002C127.8 50.6002 131.2 50.1002 134.6 49.7002C134.7 49.9002 134.7 50.1002 134.8 50.4002C134.9 50.6002 134.9 50.8002 135 51.1002C135.1 51.3002 135.1 51.5002 135.2 51.8002C135.3 52.0002 135.3 52.2002 135.4 52.5002C136.3 55.2002 137.2 58.0002 138.1 60.9002C139 63.8002 139.9 66.7002 140.8 69.7002C141.7 72.7002 142.6 75.8002 143.5 78.9002C144.7 81.8002 145.7 84.9002 146.6 88.1002Z" fill="#898C8E"/>
</svg>
