<svg width="28" height="32" viewBox="0 0 28 32" fill="none" xmlns="http://www.w3.org/2000/svg">
<path d="M10.7907 17.9054C10.3141 17.5639 9.73116 17.404 9.14703 17.4545C8.59416 17.4465 8.04166 17.4878 7.49609 17.5781V23.2726H8.70334V21.2072C8.84134 21.2171 8.97991 21.2171 9.11791 21.2072C9.75941 21.2488 10.3908 21.0314 10.8707 20.6036C11.209 20.2307 11.3868 19.7394 11.3652 19.2363C11.3767 18.7302 11.1668 18.2442 10.7907 17.9054ZM9.30722 20.2461C9.24141 20.2486 9.17547 20.2441 9.11059 20.2327L9.14697 20.2254C9.01166 20.2413 8.87497 20.2413 8.73972 20.2254V18.4945C8.90409 18.4559 9.07278 18.4388 9.24153 18.4436C9.85247 18.4436 10.1943 18.7636 10.1943 19.2872C10.2141 19.7969 9.81697 20.2263 9.30722 20.2461Z" fill="white"/>
<path d="M19.8154 0H3.81538C2.20875 0 0.90625 1.30244 0.90625 2.90906V29.0909C0.90625 30.6975 2.20869 31.9999 3.81531 31.9999H24.1789C25.7856 31.9999 27.088 30.6975 27.088 29.0909V8L19.8154 0ZM25.6336 29.0909C25.6336 29.8942 24.9823 30.5455 24.179 30.5455H3.81538C3.01206 30.5455 2.36081 29.8942 2.36081 29.0909V2.90906C2.36081 2.10575 3.01206 1.4545 3.81538 1.4545H16.9063V8.72725C16.9063 9.53056 17.5575 10.1818 18.3609 10.1818H25.6336V29.0909H25.6336ZM18.3608 8.72725V1.45456H19.0881L25.6335 8.72731H18.3608V8.72725Z" fill="white"/>
<path d="M15.7139 18.1159C15.0825 17.6382 14.3004 17.4033 13.5103 17.4541C12.9576 17.4502 12.4054 17.4916 11.8594 17.5777V23.2722C12.3174 23.3335 12.7791 23.3626 13.2412 23.3595C14.1309 23.4253 15.0144 23.167 15.7284 22.6322C16.35 22.0199 16.6762 21.1686 16.623 20.2977C16.683 19.4674 16.3457 18.6579 15.7139 18.1159ZM15.3357 20.2977C15.3285 21.6722 14.6085 22.3195 13.5103 22.3122V22.305C13.3701 22.319 13.2287 22.319 13.0885 22.305V18.5159C13.2701 18.4776 13.4556 18.4605 13.6412 18.465C14.5227 18.4031 15.2875 19.0674 15.3494 19.9489C15.3575 20.0653 15.353 20.1822 15.3357 20.2977Z" fill="white"/>
<path d="M17.6758 23.2732H18.8976V20.9532H20.8322V19.8914H18.8976V18.575H20.9703V17.5059H17.6758V23.2732Z" fill="white"/>
</svg>
