<svg width="72" height="72" viewBox="0 0 72 72" fill="none" xmlns="http://www.w3.org/2000/svg">
<path d="M26.9825 46.0748H58.5442C59.1279 46.0748 59.6009 45.6017 59.6009 45.018V20.2196C59.6009 19.8954 59.452 19.5889 59.1971 19.3887L43.4163 6.9895C43.0329 6.6884 42.4938 6.6884 42.1104 6.9895L26.3296 19.3887C26.0746 19.5891 25.9258 19.8954 25.9258 20.2196V45.018C25.9258 45.6017 26.3988 46.0748 26.9825 46.0748ZM38.1841 43.9613V28.0396H47.3426V43.9613H38.1841ZM28.0393 20.7333L42.7634 9.16444L57.4874 20.7333V43.9613H49.4561V26.9828C49.4561 26.3992 48.9831 25.9261 48.3994 25.9261H37.1273C36.5436 25.9261 36.0706 26.3992 36.0706 26.9828V43.9613H28.0393V20.7333Z" fill="#92BA1F"/>
<path d="M65.3067 43.9613C64.723 43.9613 64.25 44.4345 64.25 45.0181C64.25 45.6017 64.723 46.0748 65.3067 46.0748H69.8155C70.3993 46.0748 70.8723 45.6017 70.8723 45.0181C70.8723 44.4345 70.3993 43.9613 69.8155 43.9613H68.6179V8.87717H69.8155C70.3993 8.87717 70.8723 8.40403 70.8723 7.82042C70.8723 7.23681 70.3993 6.76367 69.8155 6.76367H65.3067C64.723 6.76367 64.25 7.23681 64.25 7.82042C64.25 8.40403 64.723 8.87717 65.3067 8.87717H66.5044V43.9613H65.3067Z" fill="#92BA1F"/>
<path d="M70.9432 54.1057H58.544C57.9603 54.1057 57.4873 54.5788 57.4873 55.1624C57.4873 55.746 57.9603 56.2192 58.544 56.2192H69.8865V69.8865H64.1096V66.4344C64.1096 65.8508 63.6366 65.3777 63.0528 65.3777C62.4691 65.3777 61.9961 65.8508 61.9961 66.4344V69.8865H55.092V65.3072C55.092 64.7236 54.619 64.2505 54.0352 64.2505C53.4515 64.2505 52.9785 64.7236 52.9785 65.3072V69.8865H46.0744V66.4344C46.0744 65.8508 45.6014 65.3777 45.0176 65.3777C44.4339 65.3777 43.9609 65.8508 43.9609 66.4344V69.8865H37.0568V65.3072C37.0568 64.7236 36.5837 64.2505 36 64.2505C35.4162 64.2505 34.9432 64.7236 34.9432 65.3072V69.8865H28.0391V66.4344C28.0391 65.8508 27.5661 65.3777 26.9824 65.3777C26.3986 65.3777 25.9256 65.8508 25.9256 66.4344V69.8865H19.0215V65.3072C19.0215 64.7236 18.5485 64.2505 17.9648 64.2505C17.381 64.2505 16.908 64.7236 16.908 65.3072V69.8865H10.0039V66.4344C10.0039 65.8508 9.53091 65.3777 8.94716 65.3777C8.36341 65.3777 7.89041 65.8508 7.89041 66.4344V69.8865H2.1135V64.1061C2.13689 64.1076 2.16014 64.1096 2.18395 64.1096H5.56556C6.14931 64.1096 6.62231 63.6364 6.62231 63.0528C6.62231 62.4692 6.14931 61.9961 5.56556 61.9961H2.18395C2.16014 61.9961 2.13689 61.9981 2.1135 61.9996V55.0885C2.13689 55.09 2.16014 55.092 2.18395 55.092H7.81996C8.40371 55.092 8.87671 54.6188 8.87671 54.0352C8.87671 53.4516 8.40371 52.9785 7.81996 52.9785H2.18395C2.16014 52.9785 2.13689 52.9804 2.1135 52.982V46.0708C2.13689 46.0724 2.16014 46.0744 2.18395 46.0744H5.56556C6.14931 46.0744 6.62231 45.6012 6.62231 45.0176C6.62231 44.434 6.14931 43.9609 5.56556 43.9609H2.18395C2.16014 43.9609 2.13689 43.9628 2.1135 43.9644V37.0532C2.13689 37.0548 2.16014 37.0568 2.18395 37.0568H7.81996C8.40371 37.0568 8.87671 36.5836 8.87671 36C8.87671 35.4164 8.40371 34.9432 7.81996 34.9432H2.18395C2.16014 34.9432 2.13689 34.9452 2.1135 34.9468V28.0356C2.13689 28.0372 2.16014 28.0391 2.18395 28.0391H5.56556C6.14931 28.0391 6.62231 27.566 6.62231 26.9824C6.62231 26.3988 6.14931 25.9256 5.56556 25.9256H2.18395C2.16014 25.9256 2.13689 25.9276 2.1135 25.9292V19.018C2.13689 19.0196 2.16014 19.0215 2.18395 19.0215H7.81996C8.40371 19.0215 8.87671 18.5484 8.87671 17.9648C8.87671 17.3812 8.40371 16.908 7.81996 16.908H2.18395C2.16014 16.908 2.13689 16.91 2.1135 16.9115V10.0004C2.13689 10.0019 2.16014 10.0039 2.18395 10.0039H5.56556C6.14931 10.0039 6.62231 9.53077 6.62231 8.94716C6.62231 8.36355 6.14931 7.89041 5.56556 7.89041H2.18395C2.16014 7.89041 2.13689 7.89238 2.1135 7.89393V2.1135H15.7808V55.1624C15.7808 55.746 16.2538 56.2192 16.8376 56.2192H53.392C53.9758 56.2192 54.4488 55.746 54.4488 55.1624C54.4488 54.5788 53.9758 54.1057 53.392 54.1057H17.8943V1.05675C17.8943 0.473143 17.4213 0 16.8376 0H1.05675C0.473002 0 0 0.473143 0 1.05675V70.9432C0 71.5269 0.473002 72 1.05675 72H70.9432C71.527 72 72 71.5269 72 70.9432V55.1624C72 54.5788 71.527 54.1057 70.9432 54.1057Z" fill="#92BA1F"/>
</svg>
