<svg width="72" height="72" viewBox="0 0 72 72" fill="none" xmlns="http://www.w3.org/2000/svg">
<g clip-path="url(#clip0)">
<path d="M30.1236 60.5113C29.8111 58.9462 29.1666 57.4663 28.2335 56.1715C27.3004 54.8767 26.1005 53.797 24.7146 53.0054C23.3824 52.2485 21.9569 51.6691 20.4745 51.2818C21.796 50.2897 22.7718 48.9069 23.2639 47.3294C23.756 45.7519 23.7393 44.0596 23.2163 42.4921C22.6934 40.9246 21.6905 39.5613 20.3499 38.5952C19.0092 37.6292 17.3986 37.1094 15.7461 37.1094C14.0937 37.1094 12.4831 37.6292 11.1424 38.5952C9.80172 39.5613 8.7989 40.9246 8.27592 42.4921C7.75295 44.0596 7.73632 45.7519 8.2284 47.3294C8.72048 48.9069 9.69632 50.2897 11.0178 51.2818C9.53649 51.6694 8.11219 52.2488 6.78101 53.0054C5.39534 53.7969 4.19552 54.8764 3.26244 56.1711C2.32936 57.4657 1.68473 58.9453 1.37201 60.5102L0.0220099 67.2749C-0.03024 67.5351 0.0112259 67.8055 0.139075 68.0381C0.266924 68.2708 0.47292 68.4507 0.720635 68.5461C10.3935 72.2722 21.1056 72.2722 30.7784 68.5461C31.0261 68.4507 31.2321 68.2708 31.3599 68.0381C31.4878 67.8055 31.5293 67.5351 31.477 67.2749L30.1236 60.5113ZM10.1245 44.9998C10.1245 43.8873 10.4544 42.7998 11.0725 41.8748C11.6906 40.9497 12.5691 40.2288 13.5969 39.803C14.6248 39.3773 15.7557 39.2659 16.8469 39.4829C17.938 39.7 18.9403 40.2357 19.727 41.0224C20.5137 41.809 21.0494 42.8113 21.2664 43.9025C21.4835 44.9936 21.3721 46.1246 20.9463 47.1524C20.5206 48.1803 19.7996 49.0588 18.8746 49.6769C17.9496 50.2949 16.862 50.6248 15.7495 50.6248C14.2582 50.6231 12.8285 50.0299 11.774 48.9753C10.7195 47.9208 10.1263 46.4911 10.1245 44.9998ZM2.41489 66.7787L3.58151 60.9512C3.83105 59.7017 4.34571 58.5203 5.09075 57.4867C5.8358 56.4531 6.79389 55.5913 7.90038 54.9595C10.2992 53.6187 13.0014 52.9147 15.7495 52.9147C18.4976 52.9147 21.1998 53.6187 23.5986 54.9595C24.7053 55.5913 25.6635 56.4533 26.4086 57.4871C27.1536 58.521 27.6682 59.7026 27.9175 60.9524L29.0841 66.7787C20.4626 69.8669 11.0364 69.8669 2.41489 66.7787Z" fill="#92BA1F"/>
<path d="M71.977 67.2749L70.627 60.5069C70.3145 58.9417 69.67 57.4618 68.7369 56.167C67.8038 54.8722 66.6038 53.7925 65.218 53.0008C63.8845 52.2453 62.4579 51.6674 60.9745 51.2818C62.2959 50.2897 63.2718 48.9069 63.7639 47.3294C64.2559 45.7519 64.2393 44.0596 63.7163 42.4921C63.1934 40.9246 62.1905 39.5613 60.8499 38.5952C59.5092 37.6292 57.8986 37.1094 56.2461 37.1094C54.5937 37.1094 52.9831 37.6292 51.6424 38.5952C50.3017 39.5613 49.2989 40.9246 48.7759 42.4921C48.2529 44.0596 48.2363 45.7519 48.7284 47.3294C49.2205 48.9069 50.1963 50.2897 51.5178 51.2818C50.0365 51.6694 48.6122 52.2488 47.281 53.0054C45.8953 53.7969 44.6955 54.8764 43.7624 56.1711C42.8294 57.4657 42.1847 58.9453 41.872 60.5102L40.522 67.2749C40.4698 67.5351 40.5112 67.8055 40.6391 68.0381C40.7669 68.2708 40.9729 68.4507 41.2206 68.5461C50.8935 72.2722 61.6055 72.2722 71.2784 68.5461C71.5261 68.4507 71.7321 68.2708 71.8599 68.0381C71.9878 67.8055 72.0292 67.5351 71.977 67.2749ZM50.6245 44.9998C50.6245 43.8873 50.9544 42.7998 51.5725 41.8748C52.1906 40.9497 53.0691 40.2288 54.0969 39.803C55.1247 39.3773 56.2557 39.2659 57.3469 39.4829C58.438 39.7 59.4403 40.2357 60.227 41.0224C61.0136 41.809 61.5494 42.8113 61.7664 43.9025C61.9835 44.9936 61.8721 46.1246 61.4463 47.1524C61.0206 48.1803 60.2996 49.0588 59.3746 49.6769C58.4496 50.2949 57.362 50.6248 56.2495 50.6248C54.7582 50.6231 53.3285 50.0299 52.274 48.9753C51.2195 47.9208 50.6263 46.4911 50.6245 44.9998ZM42.9149 66.7787L44.0815 60.9512C44.331 59.7017 44.8457 58.5203 45.5908 57.4867C46.3358 56.4531 47.2939 55.5913 48.4004 54.9595C50.7992 53.6187 53.5014 52.9147 56.2495 52.9147C58.9976 52.9147 61.6998 53.6187 64.0986 54.9595C65.2053 55.5913 66.1635 56.4533 66.9085 57.4871C67.6536 58.521 68.1682 59.7026 68.4175 60.9524L69.5841 66.7787C60.9626 69.8669 51.5364 69.8669 42.9149 66.7787Z" fill="#92BA1F"/>
<path d="M43.8053 26.937L48.5516 34.362C48.6719 34.5505 48.8455 34.699 49.0505 34.7884C49.2555 34.8777 49.4825 34.904 49.7024 34.8638C49.9224 34.8236 50.1254 34.7188 50.2855 34.5626C50.4457 34.4065 50.5556 34.2063 50.6014 33.9874L52.2202 26.3025C60.7196 24.462 66.375 19.3804 66.375 13.5C66.375 6.05587 57.0375 0 45.5625 0C34.0875 0 24.75 6.05587 24.75 13.5C24.75 20.529 33.075 26.3587 43.8053 26.937ZM45.5625 2.25C55.8 2.25 64.125 7.29675 64.125 13.5C64.125 18.3577 58.7531 22.7734 51.0626 24.237C50.8446 24.2784 50.6436 24.3834 50.485 24.5387C50.3265 24.694 50.2175 24.8928 50.1716 25.11L48.9656 30.825L45.387 25.2292C45.2887 25.0758 45.1546 24.9486 44.9963 24.8584C44.838 24.7683 44.6601 24.718 44.478 24.7118C34.677 24.3664 27 19.44 27 13.5C27 7.29675 35.325 2.25 45.5625 2.25Z" fill="#92BA1F"/>
<path d="M42.7163 29.2198C42.6803 29.0765 42.6164 28.9417 42.5282 28.8231C42.4401 28.7044 42.3294 28.6044 42.2026 28.5285C42.0758 28.4527 41.9352 28.4025 41.789 28.381C41.6428 28.3595 41.4938 28.367 41.3505 28.4031C37.7035 29.3032 33.9175 29.4942 30.1984 28.9656C29.9336 28.927 29.6638 28.9858 29.439 29.131L24.1875 32.4677L25.0155 28.7395C25.0737 28.4776 25.0365 28.2035 24.9104 27.9667C24.7844 27.7299 24.5779 27.5459 24.3281 27.448C18.9574 25.342 15.75 21.8095 15.75 18.0002C15.75 14.2596 18.8528 10.7631 24.0491 8.64808C24.186 8.59238 24.3106 8.51027 24.4157 8.40643C24.5209 8.30259 24.6045 8.17906 24.6619 8.04289C24.7193 7.90672 24.7494 7.76058 24.7503 7.6128C24.7512 7.46503 24.723 7.31852 24.6673 7.18164C24.6116 7.04476 24.5295 6.9202 24.4257 6.81505C24.3218 6.70991 24.1983 6.62624 24.0621 6.56884C23.926 6.51144 23.7798 6.48141 23.632 6.48049C23.4843 6.47957 23.3378 6.50776 23.2009 6.56346C17.127 9.03621 13.5 13.3123 13.5 18.0002C13.5 22.5396 16.8874 26.6627 22.6125 29.1726L21.3986 34.6311C21.35 34.8485 21.3671 35.0754 21.4476 35.2831C21.5281 35.4908 21.6685 35.6699 21.8509 35.7977C22.0333 35.9256 22.2496 35.9964 22.4723 36.0012C22.695 36.006 22.9141 35.9446 23.1019 35.8247L30.3019 31.2437C34.1752 31.7453 38.108 31.5217 41.8995 30.5845C42.1887 30.5117 42.4372 30.3271 42.5904 30.0712C42.7435 29.8153 42.7888 29.5091 42.7163 29.2198Z" fill="#92BA1F"/>
<path d="M38.25 7.875H43.875V10.125H38.25V7.875Z" fill="#92BA1F"/>
<path d="M46.125 7.875H48.375V10.125H46.125V7.875Z" fill="#92BA1F"/>
<path d="M50.625 7.875H56.25V10.125H50.625V7.875Z" fill="#92BA1F"/>
<path d="M34.875 12.375H48.375V14.625H34.875V12.375Z" fill="#92BA1F"/>
<path d="M50.625 12.375H56.25V14.625H50.625V12.375Z" fill="#92BA1F"/>
<path d="M34.875 16.875H39.375V19.125H34.875V16.875Z" fill="#92BA1F"/>
<path d="M41.625 16.875H54V19.125H41.625V16.875Z" fill="#92BA1F"/>
</g>
<defs>
<clipPath id="clip0">
<rect width="72" height="72" fill="white"/>
</clipPath>
</defs>
</svg>
