<svg width="32" height="32" viewBox="0 0 32 32" fill="none" xmlns="http://www.w3.org/2000/svg">
<path d="M16 32C24.8366 32 32 24.8366 32 16C32 7.16344 24.8366 0 16 0C7.16344 0 0 7.16344 0 16C0 24.8366 7.16344 32 16 32Z" fill="#039BE5"/>
<path d="M7.3212 15.6536L22.7479 9.70561C23.4639 9.44694 24.0892 9.88028 23.8572 10.9629L23.8585 10.9616L21.2319 23.3363C21.0372 24.2136 20.5159 24.4269 19.7865 24.0136L15.7865 21.0656L13.8572 22.9243C13.6439 23.1376 13.4639 23.3176 13.0505 23.3176L13.3345 19.2469L20.7479 12.5496C21.0705 12.2656 20.6759 12.1056 20.2505 12.3883L11.0892 18.1563L7.13986 16.9243C6.28253 16.6523 6.26386 16.0669 7.3212 15.6536Z" fill="white"/>
</svg>
