<svg xmlns="http://www.w3.org/2000/svg" width="21" height="13" viewBox="0 0 21 13"><g><g><g/><g><path fill="#0c369c" d="M20.462.726c.091-.465-.11-.726-.587-.726h-2.4c-.55 0-.752.242-.917.596 0 0-1.272 2.947-2.851 4.717-.507.573-.596.745-.876.745-.226 0-.33-.191-.33-.708V.826c0-.633-.072-.826-.586-.826H8.094c-.295 0-.492.163-.492.4 0 .596.898.73.898 2.346v3.332c0 .67-.037.931-.348.931-.825 0-2.966-2.869-4.066-6.145C3.866.194 3.63 0 3.004 0H.61A.587.587 0 0 0 0 .603C0 1.254.751 4.27 3.702 8.31c1.979 2.718 4.75 4.189 7.095 4.189 1.43 0 1.704-.252 1.704-.867V9.548c0-.521.202-.745.495-.745.33 0 .816.118 2.177 1.481 1.612 1.564 1.722 2.216 2.602 2.216h2.693c.275 0 .532-.13.532-.596 0-.614-.788-1.713-1.998-3.016-.494-.67-1.3-1.396-1.557-1.731-.367-.392-.257-.615 0-1.025 0 0 2.742-4.103 3.017-5.406z"/></g></g></g></svg>