<svg width="32" height="32" viewBox="0 0 32 32" fill="none" xmlns="http://www.w3.org/2000/svg">
<g clip-path="url(#clip0)">
<path d="M30.8515 6.67969H7.04284C6.40859 6.67969 5.89453 7.19375 5.89453 7.828V24.4022C5.89453 25.0364 6.40859 25.5505 7.04284 25.5505H17.2917L22.4235 31.1853C22.644 31.4268 22.9537 31.5601 23.2725 31.5601C23.3698 31.5601 23.4677 31.5474 23.5642 31.5222C23.9776 31.4139 24.2965 31.0851 24.3918 30.6686L25.5653 25.5506H30.8515C31.4857 25.5506 31.9998 25.0365 31.9998 24.4023V7.828C31.9998 7.19375 31.4857 6.67969 30.8515 6.67969ZM29.7032 23.2538H24.6505C24.115 23.2538 23.6511 23.6236 23.5313 24.1453L22.6436 28.0159L18.6478 23.6286C18.43 23.3897 18.1222 23.2538 17.7988 23.2538H8.19116V8.97631H29.7031V23.2538H29.7032Z" fill="white"/>
<path d="M24.9569 0.439453H1.14831C0.514062 0.439453 0 0.953516 0 1.58777V18.162C0 18.7962 0.514062 19.3103 1.14831 19.3103H7.04306V17.0136H2.29662V2.73608H23.8086V7.82702H26.1052V1.58777C26.1053 0.953516 25.5912 0.439453 24.9569 0.439453Z" fill="white"/>
</g>
<defs>
<clipPath id="clip0">
<rect width="32" height="32" fill="white"/>
</clipPath>
</defs>
</svg>
