<svg width="517" height="373" viewBox="0 0 517 373" fill="none" xmlns="http://www.w3.org/2000/svg">
<path d="M257.323 163.902V43.6231L273.087 34.2811L314.583 43.6231V9.75818L330.307 1L439.493 25.5229V88.5818L446.395 89.7495L446.499 69.8977L471.022 54.1329V100.843L511.31 109.018C520.068 111.353 515.981 145.802 506.055 146.97L471.022 140.547V163.318L445.915 181.418L446.142 138.169L439.493 137.044V144.05L425.48 153.392L384.608 145.802V183.17L370.011 193.68L257.323 163.902Z" fill="#F4F4F4"/>
<path d="M3.33551 267.832L1 224.042L13.8453 218.787L152.225 279.739L162.734 274.839V209.445L180.835 200.686L224.625 218.75L224.866 211.196L186.089 195.432V153.976L197.767 150.473L362.421 214.116L360.669 257.907L355.724 259.658L354.83 295.859L364.172 300.53V327.972C361.486 332.384 358.876 334.111 352.495 336.146V351.327L315.127 371.179L316.193 338.482L274.255 320.382V357.75L253.819 365.34L188.425 334.92L166.238 344.904L3.33551 267.832Z" fill="#F4F4F4"/>
<path d="M257.323 43.6231V163.902L370.011 193.68M257.323 43.6231L370.011 69.8977M257.323 43.6231L273.087 34.2811L314.583 43.6231M370.011 69.8977V193.68M370.011 69.8977L384.608 59.3879M370.011 193.68L384.608 183.17V145.802M384.608 59.3879L314.583 43.6231M384.608 59.3879V78.072M314.583 43.6231V9.75818M314.583 9.75818L330.307 1L439.493 25.5229M314.583 9.75818L425.48 34.2811M439.493 25.5229V88.5818M439.493 25.5229L425.48 34.2811M439.493 88.5818L425.48 85.8984M439.493 88.5818L446.395 89.7495M384.608 78.072L425.48 85.8984M384.608 78.072V125.366M425.48 34.2811V85.8984M439.493 137.044V144.05L425.48 153.392M439.493 137.044L425.48 134.062M439.493 137.044L446.395 138.211M425.48 153.392L384.608 145.802M425.48 153.392V134.062M384.608 145.802V125.366M384.608 125.366L425.48 134.062M471.022 100.843V54.1329L446.499 69.8977L446.395 89.7495M471.022 100.843L511.31 109.018M471.022 100.843L461.096 99.0916C451.754 103.179 448.835 132.957 455.257 138.211L471.022 140.547M511.31 109.018C520.068 111.353 515.981 145.802 506.055 146.97M511.31 109.018C500.8 109.018 496.501 145.218 506.055 146.97M506.055 146.97L471.022 140.547M471.022 140.547V163.318L445.915 181.418L446.395 89.7495M1 224.042L3.33551 267.832L166.238 344.904M1 224.042L166.238 299.946M1 224.042L13.8453 218.787L152.225 279.739M166.238 344.904V299.946M166.238 344.904L188.425 334.92M224.625 272.504V318.63L188.425 334.92M224.625 272.504L166.238 299.946M224.625 272.504L203.606 263.745L172.076 278.43M188.425 334.92L253.819 365.34M253.819 365.34V248.564M253.819 365.34L274.255 357.75V320.382M253.819 248.564L162.734 209.445M253.819 248.564L274.255 239.222M162.734 209.445V274.839M162.734 209.445L180.835 200.686L224.625 218.75M162.734 274.839L172.076 278.43M162.734 274.839L152.225 279.739M172.076 278.43L160.983 283.597L152.225 279.739M274.255 239.222L224.625 218.75M274.255 239.222V268.416M224.625 218.75L224.866 211.196M225.793 182.002L318.63 218.75M225.793 182.002L224.866 211.196M225.793 182.002L245.645 175.936M337.314 211.78L246.813 175.58L245.645 175.936M337.314 211.78L318.63 218.75M337.314 211.78L337.011 223.458M336.146 256.739L318.63 263.745M336.146 256.739L355.998 248.564L355.724 259.658M336.146 256.739L337.011 223.458M318.63 263.745V218.75M318.63 263.745L317.906 285.933M354.83 295.859L364.172 300.53M354.83 295.859L347.24 292.355C339.066 289.436 332.704 292.955 324.469 307.536V325.053C325.061 325.516 325.643 325.958 326.22 326.382M354.83 295.859L355.724 259.658M364.172 300.53V327.972C361.486 332.384 358.876 334.111 352.495 336.146M364.172 300.53C349.367 300.338 341.017 302.229 326.22 308.704V326.382M352.495 336.146V351.327L315.127 371.179L316.193 338.482M352.495 336.146C339.116 333.723 333.033 331.382 326.22 326.382M316.193 338.482L274.255 320.382M316.193 338.482L316.631 325.053M274.255 320.382V307.536M337.011 223.458L362.421 214.116M362.421 214.116L360.669 257.907L355.724 259.658M362.421 214.116L197.767 150.473L186.089 153.976M224.866 211.196L186.089 195.432V153.976M186.089 153.976L245.645 175.936M317.906 285.933L274.255 268.416M317.906 285.933L316.631 325.053M274.255 268.416V307.536M316.631 325.053L274.255 307.536M148.721 301.114C142.996 299.968 139.296 301.697 138.795 308.704C138.045 319.214 144.634 327.972 152.225 328.556C157.69 328.976 159.981 325.651 160.399 319.798C160.983 311.623 156.312 302.632 148.721 301.114ZM338.482 263.161C334.805 263.161 333.227 267.249 333.227 271.92C333.227 275.999 334.346 280.678 337.898 280.678C341.985 280.678 343.737 276.007 343.737 270.752C343.737 265.497 342.569 263.161 338.482 263.161ZM336.146 339.066C332.47 339.066 329.14 343.737 329.14 348.408C329.14 352.487 329.711 357.084 333.227 356.582C337.314 355.998 341.401 351.327 341.401 346.072C341.401 340.817 340.233 339.066 336.146 339.066Z" stroke="#0C369C"/>
<path d="M291.771 95.5877L302.865 87.9977C325.052 81.5746 337.314 113.104 321.549 123.614V148.447C321.549 149.358 321.135 150.22 320.423 150.79L310.455 158.764M291.771 95.5877C281.261 102.594 283.012 121.278 294.691 127.701V154.559C294.691 160.982 306.368 162.734 309.872 159.231L310.455 158.764M291.771 95.5877C315.126 85.6618 326.804 123.614 310.455 128.285V158.764M289.436 109.601C289.436 117.688 294.691 125.206 302.865 125.949C309.871 126.586 313.959 121.407 313.959 115.44C313.959 106.681 307.536 99.7917 300.529 99.091C294.691 98.5071 289.436 102.594 289.436 109.601Z" stroke="#0C369C"/>
<ellipse cx="459.93" cy="78.0722" rx="4.08715" ry="7.59042" transform="rotate(6.95116 459.93 78.0722)" fill="#F4F4F4" stroke="#0C369C"/>
<ellipse cx="459.346" cy="158.064" rx="3.50327" ry="7.00654" transform="rotate(5.73907 459.346 158.064)" fill="#F4F4F4" stroke="#0C369C"/>
</svg>
