<svg width="20" height="21" viewBox="0 0 20 21" fill="none" xmlns="http://www.w3.org/2000/svg">
<path fill-rule="evenodd" clip-rule="evenodd" d="M14 0.0341797H6C2.68629 0.0341797 0 2.76641 0 6.13679V14.2736C0 17.644 2.68629 20.3762 6 20.3762H14C17.3137 20.3762 20 17.644 20 14.2736V6.13679C20 2.76641 17.3137 0.0341797 14 0.0341797ZM2 6.13605C2 3.88912 3.79086 2.06763 6 2.06763H14C16.2091 2.06763 18 3.88912 18 6.13605V14.2729C18 16.5198 16.2091 18.3413 14 18.3413H6C3.79086 18.3413 2 16.5198 2 14.2729V6.13605ZM10 15.2908C7.23858 15.2908 5 13.0139 5 10.2053C5 7.39661 7.23858 5.11975 10 5.11975C12.7614 5.11975 15 7.39661 15 10.2053C15 13.0139 12.7614 15.2908 10 15.2908ZM10 13.2566C11.6569 13.2566 13 11.8905 13 10.2053C13 8.52006 11.6569 7.15393 10 7.15393C8.34315 7.15393 7 8.52006 7 10.2053C7 11.8905 8.34315 13.2566 10 13.2566ZM16 5.11938C16 5.68091 15.5523 6.13611 15 6.13611C14.4477 6.13611 14 5.68091 14 5.11938C14 4.55786 14.4477 4.10266 15 4.10266C15.5523 4.10266 16 4.55786 16 5.11938Z" fill="#0C369C"/>
</svg>
