<svg width="95" height="204" viewBox="0 0 95 204" fill="none" xmlns="http://www.w3.org/2000/svg">
<path d="M12.6946 12.6946V193.683H9.91018H1V1H94V193.683H85.0898H82.3054V12.6946H12.6946Z" fill="#F4F4F4"/>
<path d="M1 1V193.683H9.91018M1 1L9.91018 9.91018M1 1H94M12.6946 12.6946V193.683H9.91018M12.6946 12.6946L9.91018 9.91018M12.6946 12.6946H82.3054M9.91018 193.683V9.91018M9.91018 9.91018H85.0898M94 1L85.0898 9.91018M94 1V193.683H85.0898M82.3054 12.6946L85.0898 9.91018M82.3054 12.6946V193.683H85.0898M85.0898 9.91018V193.683" stroke="#0C369C"/>
<path d="M82.3053 190.898L30.5149 203.149L25.5029 201.479V7.68213L30.5149 6.56836L82.3053 13.251V190.898Z" fill="#F4F4F4"/>
<path d="M30.5149 6.56836V203.149M30.5149 6.56836L82.3053 13.251V190.898L30.5149 203.149M30.5149 6.56836L25.5029 7.68213V201.479L30.5149 203.149" stroke="#0C369C"/>
</svg>
