<svg width="68" height="50" viewBox="0 0 68 50" fill="none" xmlns="http://www.w3.org/2000/svg">
<path fill-rule="evenodd" clip-rule="evenodd" d="M68 24.7186C68 34.2129 67.0976 40.0493 64.9856 43.6689C62.8529 47.5313 60.3562 48.7462 55.2602 49.1031C51.6641 49.3131 42.638 49.4545 34.0082 49.4545C25.3591 49.4545 16.3285 49.3132 12.6993 49.1008C7.64979 48.7461 5.15258 47.5332 3.02264 43.7128C0.905002 40.0211 0 34.1609 0 24.7532C0 15.2919 0.90064 9.46098 3.00415 5.75713C5.16216 1.88689 7.69981 0.659162 12.7067 0.366247C16.1699 0.131383 24.7168 0 34.0082 0C43.2797 0 51.8228 0.131432 55.2602 0.364421C60.2953 0.658461 62.8324 1.88349 64.9716 5.743C67.1061 9.45968 68 15.2622 68 24.7186Z" fill="white"/>
<path fill-rule="evenodd" clip-rule="evenodd" d="M28 15L43.4545 24.4313L28 33.8626V15Z" fill="#111111"/>
</svg>
