<svg width="7" height="11" viewBox="0 0 7 11" fill="none" xmlns="http://www.w3.org/2000/svg">
<path d="M2.93995 7.256C2.60395 6.93867 2.43595 6.542 2.43595 6.066C2.43595 5.68333 2.55261 5.34267 2.78595 5.044C3.01928 4.736 3.27595 4.498 3.55595 4.33C3.84528 4.162 4.10661 3.96133 4.33995 3.728C4.57328 3.49467 4.68995 3.24733 4.68995 2.986C4.68995 2.69667 4.57328 2.45867 4.33995 2.272C4.11595 2.076 3.78928 1.978 3.35995 1.978C2.59461 1.978 1.94595 2.30467 1.41395 2.958L0.475945 1.908C1.23195 0.984 2.24928 0.521999 3.52795 0.521999C4.39595 0.521999 5.08661 0.727333 5.59995 1.138C6.11328 1.54867 6.36995 2.076 6.36995 2.72C6.36995 3.10267 6.28128 3.448 6.10395 3.756C5.93595 4.05467 5.72595 4.302 5.47395 4.498C5.23128 4.68467 4.98861 4.862 4.74595 5.03C4.50328 5.198 4.29328 5.38467 4.11595 5.59C3.94795 5.786 3.86395 5.996 3.86395 6.22C3.86395 6.46267 3.96661 6.67267 4.17195 6.85L2.93995 7.256ZM4.12995 9.874C3.94328 10.0607 3.71461 10.154 3.44395 10.154C3.17328 10.154 2.93995 10.0607 2.74395 9.874C2.55728 9.678 2.46395 9.44467 2.46395 9.174C2.46395 8.90333 2.55728 8.67467 2.74395 8.488C2.93995 8.292 3.17328 8.194 3.44395 8.194C3.71461 8.194 3.94328 8.292 4.12995 8.488C4.32595 8.67467 4.42395 8.90333 4.42395 9.174C4.42395 9.44467 4.32595 9.678 4.12995 9.874Z" fill="white"/>
</svg>
