<svg width="32" height="32" viewBox="0 0 32 32" fill="none" xmlns="http://www.w3.org/2000/svg">
<g clip-path="url(#clip0)">
<path d="M24.666 20.667C22.4578 20.6648 20.6682 18.8752 20.666 16.667V15.3335C20.666 14.9653 20.9644 14.667 21.3325 14.667C21.6929 14.6902 22.0459 14.5574 22.301 14.302C22.5564 14.0469 22.6892 13.6938 22.666 13.3335C22.666 12.9653 22.9644 12.667 23.3325 12.667C23.7007 12.667 23.9993 12.9653 23.9993 13.3335C23.9993 13.3335 24.21 14.667 27.9993 14.667C28.3674 14.667 28.666 14.9653 28.666 15.3335V16.667C28.6638 18.8752 26.8743 20.6648 24.666 20.667ZM21.9993 15.9163V16.667C21.9993 18.1396 23.1931 19.3335 24.666 19.3335C26.1387 19.3335 27.3325 18.1396 27.3325 16.667V15.9863C25.3394 15.9001 24.1992 15.4263 23.5413 14.9009C23.166 15.4138 22.6187 15.7744 21.9993 15.9163Z" fill="#92BA1F"/>
<path d="M28.666 15.333H27.3325V13.333C27.3325 11.8604 26.1387 10.6665 24.666 10.6665C23.1931 10.6665 21.9993 11.8604 21.9993 13.333V15.333H20.666V13.333C20.666 11.124 22.4568 9.33301 24.666 9.33301C26.875 9.33301 28.666 11.124 28.666 13.333V15.333Z" fill="#92BA1F"/>
<path d="M31.334 32.0002H18.0007C17.6326 32.0002 17.334 31.7017 17.334 31.3335V25.3335C17.3369 22.7576 19.4246 20.6699 22.0007 20.667H23.334V22.0002H22.0007C20.1606 22.0024 18.6697 23.4937 18.6675 25.3335V30.667H30.6675V25.3335C30.6653 23.4937 29.1741 22.0024 27.334 22.0002H26.0007V20.667H27.334C29.9102 20.6699 31.9978 22.7576 32.0007 25.3335V31.3335C32.0007 31.7017 31.7021 32.0002 31.334 32.0002Z" fill="#92BA1F"/>
<path d="M24.666 23.3333C23.5613 23.3333 22.666 22.438 22.666 21.3333V20H23.9993V21.3333C23.9993 21.7014 24.2979 22 24.666 22C25.0342 22 25.3325 21.7014 25.3325 21.3333V20H26.666V21.3333C26.666 22.438 25.7705 23.3333 24.666 23.3333Z" fill="#92BA1F"/>
<path d="M24 22.667H25.3333V28.667H24V22.667Z" fill="#92BA1F"/>
<path d="M16 32H3.33325C1.49341 31.9978 0.00219726 30.5066 0 28.6667V6C0 5.82324 0.0703125 5.65356 0.195312 5.52856L5.52856 0.195312C5.65356 0.0703125 5.82324 0 6 0H22C23.8401 0.00219726 25.3311 1.49341 25.3333 3.33325V8H24V3.33325C24 2.22876 23.1045 1.33325 22 1.33325H6.27588L1.33325 6.27588V28.6667C1.33325 29.7712 2.22876 30.6667 3.33325 30.6667H16V32Z" fill="#92BA1F"/>
<path d="M5.99927 6.66699H0.666016V5.3335H5.33252V0.666992H6.66602V6.00024C6.66602 6.36841 6.36743 6.66699 5.99927 6.66699Z" fill="#92BA1F"/>
<path d="M10.6661 23.9998C10.5628 24.001 10.4607 23.978 10.368 23.9331L5.76786 21.6345C5.0889 21.2962 4.66141 20.6011 4.66605 19.8425V11.333C4.66605 10.2285 5.56132 9.33301 6.66605 9.33301H14.6661C15.7705 9.33301 16.6661 10.2285 16.6661 11.333V19.8425C16.6687 20.6006 16.24 21.2944 15.5606 21.6311L10.9639 23.9331C10.8711 23.978 10.7691 24.001 10.6661 23.9998ZM6.66605 10.6665C6.29789 10.6665 5.99931 10.9648 5.99931 11.333V19.8425C5.99857 20.0952 6.14139 20.3264 6.36796 20.4385L10.6661 22.5877L14.9639 20.4385C15.1905 20.3264 15.3335 20.0952 15.3326 19.8425V11.333C15.3326 10.9648 15.0342 10.6665 14.6661 10.6665H6.66605Z" fill="#92BA1F"/>
<path d="M9.33398 18.6665C9.15723 18.6665 8.98779 18.5962 8.86279 18.4712L7.5293 17.1377L8.47217 16.1951L9.33398 17.0571L12.8628 13.5283L13.8054 14.4712L9.80542 18.4712C9.68042 18.5962 9.51074 18.6665 9.33398 18.6665Z" fill="#92BA1F"/>
<path d="M5.99927 29.3333H4.66602C3.56128 29.3333 2.66602 28.438 2.66602 27.3333V26H3.99927V27.3333C3.99927 27.7014 4.29785 28 4.66602 28H5.99927V29.3333Z" fill="#92BA1F"/>
<path d="M7.33398 28H8.66748V29.3333H7.33398V28Z" fill="#92BA1F"/>
</g>
<defs>
<clipPath id="clip0">
<rect width="32" height="32" fill="white"/>
</clipPath>
</defs>
</svg>
