<svg width="32" height="32" viewBox="0 0 32 32" fill="none" xmlns="http://www.w3.org/2000/svg">
<path d="M8.00147 7.3335H3.29948C2.93148 7.3335 2.63281 7.63216 2.63281 8.00017C2.63281 8.36817 2.93148 8.66683 3.29948 8.66683H8.00147C8.36947 8.66683 8.66814 8.36817 8.66814 8.00017C8.66814 7.63216 8.36947 7.3335 8.00147 7.3335Z" fill="#92BA1F"/>
<path d="M6.10564 11.9421C6.10564 11.5741 5.80697 11.2754 5.43897 11.2754H1.45964C1.09164 11.2754 0.792969 11.5741 0.792969 11.9421C0.792969 12.3101 1.09164 12.6087 1.45964 12.6087H5.43897C5.80697 12.6087 6.10564 12.3101 6.10564 11.9421Z" fill="#92BA1F"/>
<path d="M2.5319 15.3335C2.1639 15.3335 1.86523 15.6322 1.86523 16.0002C1.86523 16.3682 2.1639 16.6668 2.5319 16.6668H4.58523C4.95323 16.6668 5.2519 16.3682 5.2519 16.0002C5.2519 15.6322 4.95323 15.3335 4.58523 15.3335H2.5319Z" fill="#92BA1F"/>
<path d="M8.60882 16.6408C8.73482 16.7835 8.91682 16.8648 9.10749 16.8648H15.1075C15.1842 16.8648 15.2595 16.8495 15.3328 16.8228C15.3615 16.8121 15.3855 16.7948 15.4122 16.7808C15.4462 16.7628 15.4822 16.7508 15.5135 16.7268L18.4002 14.5068C18.5288 14.4075 18.5955 14.2668 18.6282 14.1195C18.6368 14.0875 18.6535 14.0595 18.6575 14.0255L19.3175 8.45213C19.3188 8.44013 19.3188 8.42746 19.3195 8.41546C19.3262 8.32746 19.3222 8.23813 19.2928 8.15079C19.2022 7.88079 18.9495 7.69879 18.6648 7.69746L12.6928 7.66946C12.5255 7.66813 12.4002 7.71746 12.2822 7.80813L9.36615 10.0581C9.36015 10.0628 9.35749 10.0701 9.35149 10.0748C9.30549 10.1128 9.26949 10.1601 9.23482 10.2095C9.22082 10.2295 9.20149 10.2455 9.18949 10.2668C9.16082 10.3195 9.14549 10.3801 9.13149 10.4408C9.12682 10.4621 9.11482 10.4821 9.11149 10.5041C9.11149 10.5055 9.11082 10.5061 9.11015 10.5075L8.44349 16.1208C8.42282 16.3088 8.48215 16.4988 8.60882 16.6408ZM17.3628 13.6228L15.9562 14.7041L16.4028 10.9421L17.8075 9.86146L17.3628 13.6228ZM12.9162 9.00279L16.7142 9.02079L15.5475 9.91813H11.7295L12.9162 9.00279ZM10.3662 11.2515H15.0235L14.5155 15.5315H9.85815L10.3662 11.2515Z" fill="#92BA1F"/>
<path d="M27.9219 10.1114C27.8139 9.87335 27.5766 9.72002 27.3146 9.72002H22.3279V6.34002C22.3279 5.06069 21.3413 4.02002 20.1279 4.02002H5.67461C4.65594 4.02002 3.75594 4.77802 3.53594 5.82269C3.45994 6.18269 3.68994 6.53602 4.04994 6.61202C4.41194 6.68802 4.76394 6.45802 4.83994 6.09735C4.93128 5.66669 5.28194 5.35335 5.67461 5.35335H20.1279C20.6059 5.35335 20.9946 5.79602 20.9946 6.34002V20.9934H11.2673C10.9573 19.474 9.61128 18.3267 8.00128 18.3267C6.39128 18.3267 5.04528 19.474 4.73528 20.9934H3.67461C3.19661 20.9934 2.80794 20.548 2.80461 20.0654L2.90461 19.0587C2.94128 18.6927 2.67328 18.366 2.30728 18.3294C1.94128 18.2894 1.61461 18.5607 1.57794 18.9267L1.47461 20C1.47461 21.2827 2.46128 22.3267 3.67461 22.3267H4.73528C5.04528 23.846 6.39128 24.9934 8.00128 24.9934C9.61128 24.9934 10.9573 23.846 11.2673 22.3267H21.6613H22.4953C22.8053 23.846 24.1513 24.9934 25.7613 24.9934C27.3713 24.9934 28.7173 23.846 29.0273 22.3267H29.8613C30.2293 22.3267 30.5279 22.028 30.5279 21.66V16C30.5279 15.9047 30.5079 15.8114 30.4686 15.7247L27.9219 10.1114ZM8.00128 23.66C6.89861 23.66 6.00128 22.7627 6.00128 21.66C6.00128 20.5574 6.89861 19.66 8.00128 19.66C9.10394 19.66 10.0013 20.5574 10.0013 21.66C10.0013 22.7627 9.10394 23.66 8.00128 23.66ZM26.8853 11.0534L28.7899 15.252C26.6773 14.8267 24.9766 13.17 24.5126 11.0534H26.8853ZM25.7613 23.66C24.6586 23.66 23.7613 22.7627 23.7613 21.66C23.7613 20.5574 24.6586 19.66 25.7613 19.66C26.8639 19.66 27.7613 20.5574 27.7613 21.66C27.7613 22.7627 26.8639 23.66 25.7613 23.66ZM29.1946 17.8754H28.8993C28.6386 17.8754 28.4279 18.174 28.4279 18.542V18.834C28.4279 19.202 28.6393 19.5007 28.8993 19.5007H29.1946V20.994H29.0273C28.7173 19.4747 27.3713 18.3274 25.7613 18.3274C24.1513 18.3274 22.8053 19.4747 22.4953 20.994H22.3279V11.0534H23.1493C23.6699 14.044 26.1693 16.36 29.1939 16.66V17.8754H29.1946Z" fill="#92BA1F"/>
<path d="M8.00065 22.3197C8.36885 22.3197 8.66732 22.0212 8.66732 21.653C8.66732 21.2848 8.36885 20.9863 8.00065 20.9863C7.63246 20.9863 7.33398 21.2848 7.33398 21.653C7.33398 22.0212 7.63246 22.3197 8.00065 22.3197Z" fill="#92BA1F"/>
<path d="M25.7604 22.3197C26.1286 22.3197 26.4271 22.0212 26.4271 21.653C26.4271 21.2848 26.1286 20.9863 25.7604 20.9863C25.3922 20.9863 25.0938 21.2848 25.0938 21.653C25.0938 22.0212 25.3922 22.3197 25.7604 22.3197Z" fill="#92BA1F"/>
</svg>
