<svg width="72" height="72" viewBox="0 0 72 72" fill="none" xmlns="http://www.w3.org/2000/svg">
<g clip-path="url(#clip0)">
<path d="M40.2833 10.0932C31.4688 7.73153 22.3736 12.9815 20.0113 21.7973C18.8669 26.0678 19.4543 30.5284 21.665 34.3572C23.8756 38.186 27.4449 40.9249 31.7154 42.0692C33.1415 42.4513 34.5887 42.6404 36.0264 42.6404C38.8945 42.6404 41.725 41.8881 44.2753 40.4157C48.1043 38.2051 50.8431 34.6358 51.9874 30.3653C54.3494 21.5496 49.0991 12.4555 40.2833 10.0932ZM49.8139 29.7831C48.8253 33.4731 46.4587 36.5573 43.1502 38.4672C39.8417 40.3775 35.9873 40.8847 32.2975 39.896C28.6075 38.9074 25.5233 36.5408 23.6133 33.2323C21.7032 29.924 21.1958 26.0696 22.1846 22.3796C23.8947 15.997 29.688 11.7776 36.0027 11.7776C37.2244 11.7776 38.4661 11.9357 39.701 12.2665C47.3183 14.3077 51.855 22.1656 49.8139 29.7831ZM59.2163 20.5089C58.9638 20.1282 58.8636 19.755 58.892 19.2989L59.1341 15.4171C59.2414 13.6943 58.3478 12.1466 56.8022 11.3782L53.3196 9.64698C52.9104 9.44349 52.637 9.17012 52.4336 8.7609L50.7025 5.2786C49.9341 3.73299 48.3889 2.83876 46.6634 2.94662L42.7819 3.18863C42.3257 3.2176 41.9526 3.11706 41.5717 2.86421L38.3311 0.713916C36.8927 -0.240506 35.1056 -0.240646 33.6676 0.713916L30.4269 2.86435C30.0462 3.11706 29.674 3.2176 29.2167 3.18863L25.3351 2.94676C23.614 2.83974 22.0645 3.73285 21.2961 5.27846L19.5649 8.76104C19.3614 9.17026 19.088 9.44364 18.6788 9.64712L15.1962 11.3784C13.6506 12.1467 12.7571 13.6944 12.8644 15.4174L13.1064 19.2989C13.1348 19.7551 13.0348 20.1283 12.7821 20.5091L10.6319 23.7494C9.67737 25.1879 9.67737 26.9751 10.6319 28.4132L12.7822 31.6538C13.0349 32.0346 13.1349 32.4078 13.1065 32.864L12.8646 36.7456C12.7571 38.4685 13.6507 40.0161 15.1963 40.7846L18.6789 42.5158C19.0881 42.7193 19.3615 42.9927 19.565 43.4019L21.2962 46.8845C21.5349 47.3643 21.8486 47.7811 22.219 48.1249L14.7333 64.1783C14.5292 64.6157 14.6271 65.1348 14.9764 65.4679C15.326 65.8012 15.849 65.8739 16.2763 65.6495L25.7268 60.6798L27.9943 71.1136C28.0969 71.5853 28.4891 71.9391 28.9689 71.9926C29.0109 71.9973 29.0527 71.9997 29.0942 71.9997C29.5273 71.9997 29.9272 71.7495 30.1133 71.3501L35.9993 58.7272L41.8853 71.35C42.0715 71.7494 42.4713 71.9995 42.9044 71.9995C42.9459 71.9995 42.9876 71.9973 43.0297 71.9925C43.5095 71.9389 43.9016 71.5853 44.0042 71.1135L46.2719 60.6796L55.7222 65.6493C56.1497 65.8743 56.6727 65.8011 57.0222 65.4678C57.3715 65.1347 57.4695 64.6156 57.2653 64.1781L49.7791 48.1238C50.1498 47.7804 50.4638 47.364 50.7023 46.8842L52.4336 43.4016C52.637 42.9924 52.9104 42.719 53.3196 42.5155L56.8022 40.7843C58.3478 40.0159 59.2414 38.4682 59.1341 36.7453L58.892 32.8637C58.8636 32.4076 58.9638 32.0343 59.2165 31.6535L61.3666 28.4131C62.3212 26.9746 62.3212 25.1874 61.3666 23.7493L59.2163 20.5089ZM29.4844 67.3748L27.6114 58.7566C27.5369 58.4133 27.306 58.1245 26.9875 57.976C26.669 57.8274 26.2995 57.8364 25.9885 57.9998L18.1825 62.1046L24.2269 49.1422C24.5836 49.2121 24.9545 49.2398 25.3351 49.2159L29.2167 48.9739C29.6738 48.9458 30.0461 49.0456 30.4269 49.2983L33.6674 51.4486C34.3867 51.9259 35.1929 52.1645 35.9993 52.1644C36.1991 52.1644 36.3991 52.1495 36.5976 52.1202L29.4844 67.3748ZM53.816 62.1047L46.0102 57.9999C45.699 57.8365 45.3296 57.8275 45.0112 57.9761C44.6927 58.1246 44.462 58.4133 44.3873 58.7567L42.5143 67.3749L37.2406 56.0655L39.8693 50.4282L41.5718 49.2984C41.9525 49.0459 42.3247 48.9446 42.7818 48.9742L46.6636 49.2162C47.0437 49.2394 47.4144 49.2113 47.771 49.1409L53.816 62.1047ZM59.4918 27.1693L57.3418 30.4097C56.8146 31.2038 56.5872 32.0525 56.6465 33.0039L56.8886 36.8855C56.9393 37.7015 56.5328 38.4059 55.8007 38.7697L52.3181 40.5011C51.4647 40.9255 50.8435 41.5466 50.419 42.4001L48.6876 45.8827C48.3238 46.6146 47.6198 47.0224 46.8036 46.9705L42.9218 46.7285C41.9698 46.6683 41.1217 46.8966 40.3279 47.4236L37.0873 49.5739C36.406 50.0258 35.5929 50.026 34.9115 49.5739L31.671 47.4238C30.9587 46.951 30.2027 46.7192 29.3678 46.7192C29.2718 46.7192 29.1749 46.7222 29.0767 46.7284L25.1952 46.9704C24.3792 47.0222 23.6748 46.6146 23.311 45.8825L21.5796 42.3999C21.1552 41.5465 20.534 40.9254 19.6806 40.5008L16.198 38.7694C15.4659 38.4056 15.0592 37.7012 15.1103 36.8853L15.3522 33.0037C15.4114 32.0523 15.1841 31.2038 14.6572 30.4097L12.5069 27.169C12.0548 26.4878 12.0548 25.6746 12.5069 24.9932L14.6572 21.7527C15.1841 20.9586 15.4114 20.1099 15.3522 19.1586L15.1101 15.277C15.0594 14.461 15.4659 13.7566 16.198 13.3928L19.6806 11.6614C20.534 11.237 21.1552 10.6159 21.5797 9.76243L23.3111 6.27971C23.675 5.5479 24.3787 5.14234 25.1952 5.19212L29.0769 5.43399C30.0282 5.49334 30.8766 5.26595 31.6708 4.73903L34.9117 2.58859C35.5927 2.13648 36.4062 2.13648 37.0873 2.58859L40.3279 4.73888C41.1221 5.26581 41.9701 5.49432 42.922 5.43399L46.8035 5.19198C47.6205 5.14037 48.3238 5.5479 48.6877 6.27985L50.4191 9.76243C50.8435 10.6159 51.4647 11.237 52.3181 11.6616L55.8007 13.3929C56.5328 13.7567 56.9395 14.4611 56.8886 15.2769L56.6465 19.1587C56.5872 20.1102 56.8146 20.9587 57.3417 21.7527L59.4918 24.9934C59.9438 25.6747 59.9438 26.4879 59.4918 27.1693ZM37.0174 15.0198C36.8321 14.6251 36.4352 14.3731 35.9993 14.3731C35.5633 14.3731 35.1665 14.6251 34.9812 15.0198L31.9915 21.3831L25.0159 22.2599C24.5833 22.3143 24.2211 22.6139 24.0864 23.0286C23.9517 23.4431 24.0687 23.8985 24.3868 24.1967L29.5146 29.0064L28.193 35.9117C28.1111 36.34 28.2839 36.7769 28.6367 37.0333C28.9893 37.2895 29.4584 37.319 29.8406 37.1087L35.9993 33.7176L42.1582 37.1084C42.3278 37.2017 42.5146 37.2479 42.7006 37.2479C42.9338 37.2479 43.166 37.1754 43.362 37.033C43.7148 36.7768 43.8876 36.3397 43.8057 35.9114L42.4841 29.0061L47.612 24.1965C47.93 23.8982 48.047 23.443 47.9123 23.0283C47.7776 22.6136 47.4154 22.3141 46.9828 22.2596L40.0072 21.3828L37.0174 15.0198ZM40.4931 27.7889C40.2118 28.0527 40.0853 28.4422 40.1577 28.8209L41.1456 33.9826L36.5418 31.4481C36.3729 31.3551 36.186 31.3086 35.9993 31.3086C35.8125 31.3086 35.6256 31.3551 35.4568 31.4481L30.853 33.9826L31.8409 28.8209C31.9134 28.4422 31.7867 28.0527 31.5055 27.7889L27.6723 24.1936L32.8867 23.5382C33.2693 23.4901 33.6005 23.2494 33.7645 22.9003L35.9993 18.1437L38.2341 22.9002C38.3981 23.2492 38.7292 23.49 39.1119 23.5381L44.3262 24.1935L40.4931 27.7889Z" fill="#92BA1F"/>
</g>
<defs>
<clipPath id="clip0">
<rect width="72" height="72" fill="white"/>
</clipPath>
</defs>
</svg>
