<svg width="32" height="32" viewBox="0 0 32 32" fill="none" xmlns="http://www.w3.org/2000/svg">
<g clip-path="url(#clip0)">
<path d="M28.3398 14.1401C28.3598 14.1601 28.3532 14.1535 28.3398 14.1401V14.1401Z" fill="#92BA1F"/>
<path d="M28.3409 14.1401C28.3543 14.1535 28.3609 14.1601 28.3409 14.1401V14.1401ZM14.9943 26.2201C15.1409 26.0935 15.2276 25.9068 15.2276 25.7135C15.2276 25.3468 14.9276 25.0468 14.5609 25.0468C14.2609 25.0468 14.2743 25.0868 13.1143 26.0601V26.0801C12.8343 26.3268 12.8009 26.7535 13.0476 27.0335C13.2943 27.3135 13.7209 27.3468 14.0009 27.1001L14.9943 26.2201ZM17.9943 26.1468C15.0143 23.7801 17.2009 24.8401 16.3943 26.5601L17.1143 27.1601L17.0876 27.1801C17.3743 27.4335 17.8076 27.4001 18.0543 27.1135C18.3076 26.8335 18.2809 26.4001 17.9943 26.1468ZM30.4276 12.4468L24.0009 4.78679L21.9343 6.48013C26.6743 12.1335 27.9676 13.6868 28.2743 14.0535C28.2743 14.0601 28.2809 14.0601 28.2876 14.0668C28.3009 14.0735 28.3209 14.1001 28.3609 14.1401L30.4276 12.4468ZM24.2943 19.3335C24.7209 19.0401 25.0143 18.5868 25.1143 18.0801C25.7943 15.1135 25.4809 15.7068 26.9009 14.5335L21.3343 7.86679C19.8943 9.07346 20.5209 8.84679 17.4743 9.01346C17.0609 9.04013 16.6676 9.19346 16.3409 9.44679C11.7743 13.2801 11.7743 13.0801 11.7743 13.7468C11.7809 14.2601 12.1676 14.6868 12.6809 14.7401C13.2343 14.7868 13.0543 14.8135 16.7343 11.7201C17.0209 11.4868 17.4409 11.5201 17.6743 11.8068C17.9076 12.0935 17.8743 12.5135 17.5876 12.7468L17.0343 13.2135C19.3343 15.1535 22.0009 17.3335 24.2943 19.3335ZM10.0743 6.50013L8.03426 4.78679L1.60759 12.4468L3.64759 14.1601C3.66759 14.1335 3.68759 14.1135 3.70093 14.1068C3.72093 14.0868 3.72759 14.0801 3.72759 14.0801C4.01426 13.7401 5.27426 12.2268 10.0743 6.50013ZM8.82093 20.9668C8.96759 20.8401 9.05426 20.6601 9.05426 20.4668C9.06093 20.1001 8.76093 19.8001 8.39426 19.7935C8.05426 19.7935 7.92759 19.9801 6.94759 20.8068C6.78759 20.9268 6.69426 21.1135 6.68759 21.3135C6.68093 21.6801 6.96759 21.9868 7.33426 22.0001C7.66759 22.0001 7.72093 21.9001 8.82093 20.9668ZM11.5609 26.9535C10.5076 27.0935 9.52759 26.3801 9.33426 25.3335C9.24759 25.3401 9.16093 25.3468 9.07426 25.3401C7.97426 25.3135 7.10093 24.3935 7.13426 23.2868C6.59426 23.2135 6.10759 22.9135 5.78759 22.4735C5.14093 21.5735 5.34759 20.3201 6.24759 19.6801C5.64759 18.9135 5.60093 18.2868 5.12759 16.2468L4.27426 15.5268C4.03426 15.8135 3.61426 15.8468 3.33426 15.6135L0.240927 13.0401C-0.0457397 12.8001 -0.0790731 12.3801 0.15426 12.1001L7.44093 3.42013C7.68093 3.13346 8.10093 3.10013 8.38093 3.33346L11.4476 5.90679C11.7276 6.14679 11.7676 6.56679 11.5276 6.84679L12.3743 7.56679C14.7343 7.68679 15.1876 7.63346 16.0076 8.08013C16.8809 7.60679 17.6276 7.67346 19.6276 7.56013L20.4743 6.84679C20.2343 6.56679 20.2743 6.14679 20.5543 5.90679L23.6209 3.33346C23.9076 3.10013 24.3276 3.14679 24.5609 3.43346L31.8476 12.1001C32.0943 12.3735 32.0676 12.7935 31.7943 13.0401C28.5409 15.7668 28.6209 15.8001 28.2476 15.7668C27.4743 15.7001 28.2476 15.1135 26.9143 16.2468C26.4209 18.3601 26.3743 19.2868 25.3343 20.1735C25.6009 20.3601 25.8209 20.6135 25.9676 20.9068C26.4676 21.8935 26.0743 23.0935 25.0876 23.5935C25.5609 24.3135 25.5209 25.2601 24.9809 25.9335C24.3009 26.8001 23.0409 26.9468 22.1743 26.2601C21.9609 26.1068 22.1943 26.2268 21.7343 26.7735C21.1543 27.4535 20.1876 27.6668 19.3743 27.2935C19.1009 28.1201 18.3276 28.6735 17.4543 28.6668C16.6009 28.6668 16.1209 28.1401 15.4543 27.5735C14.6876 28.2135 14.3276 28.5868 13.5143 28.5868C12.5543 28.5801 11.7343 27.8935 11.5609 26.9535ZM10.5409 23.0201C10.7809 22.7868 10.8143 22.4201 10.6209 22.1535C10.4876 21.9735 10.2809 21.8735 10.0743 21.8735C9.94093 21.8735 9.80759 21.9135 9.68759 22.0001L8.66759 22.8468C8.5476 22.9535 8.47426 23.1001 8.45426 23.2535C8.40759 23.6201 8.66759 23.9535 9.03426 24.0001C9.40093 24.0601 9.53426 23.8601 10.5409 23.0201ZM10.3743 20.5268C11.2276 20.6401 11.9076 21.2935 12.0476 22.1401C13.1009 22.0001 14.0809 22.7068 14.2743 23.7535C14.5743 23.7135 14.8743 23.7401 15.1609 23.8335C14.2343 23.0601 15.2609 22.1801 15.8809 22.7001C20.2143 26.3335 19.9343 26.1801 20.2876 26.1468C20.4676 26.1335 20.6276 26.0468 20.7476 25.9135C20.9809 25.6335 20.9476 25.2135 20.6676 24.9735L16.5209 21.4401C16.2809 21.2068 16.2476 20.8401 16.4409 20.5735C16.6609 20.2735 17.0743 20.2068 17.3743 20.4201C23.1743 25.2868 21.4943 23.8801 23.0943 25.2135C23.1209 25.2401 23.1543 25.2668 23.1876 25.2868C23.5009 25.4801 23.9143 25.3868 24.1076 25.0735C24.3009 24.7601 24.2076 24.3468 23.8943 24.1535L18.4476 19.5735C18.2076 19.3401 18.1743 18.9735 18.3676 18.7068C18.5876 18.4068 19.0009 18.3401 19.3009 18.5535L23.7809 22.3135L23.7609 22.3335C23.7743 22.3468 23.7943 22.3601 23.8076 22.3668C24.1076 22.5801 24.5276 22.5068 24.7343 22.2001C24.9476 21.9001 24.8676 21.4801 24.5676 21.2735C18.1876 15.9068 23.8876 20.6668 15.9943 14.0668C14.3609 15.4535 13.8076 16.1801 12.5609 16.0668C11.3609 15.9535 10.4476 14.9535 10.4409 13.7468C10.4409 12.3001 11.2876 11.9401 14.7476 9.04013C14.5076 9.00013 14.6609 9.02013 12.3076 8.89346C11.7743 8.86679 11.6009 8.65346 10.6676 7.86679L5.10093 14.5068L5.92759 15.2268C6.69426 15.8535 6.56093 17.8935 7.22759 18.8401C7.57426 18.5935 7.99426 18.4668 8.42093 18.4801C9.52759 18.5068 10.4009 19.4201 10.3743 20.5268ZM11.4009 24.0135L10.8876 24.4468C10.7543 24.5601 10.6676 24.7201 10.6543 24.9001C10.6209 25.2668 10.8943 25.5868 11.2609 25.6201V25.6401C11.2876 25.6401 11.3143 25.6468 11.3409 25.6468C11.6409 25.6468 11.7876 25.4401 12.7676 24.6068C13.0476 24.3668 13.0876 23.9468 12.8476 23.6668C12.6076 23.3868 12.1876 23.3468 11.9076 23.5868L11.4009 24.0135Z" fill="#92BA1F"/>
</g>
<defs>
<clipPath id="clip0">
<rect width="32" height="32" fill="white"/>
</clipPath>
</defs>
</svg>
