<svg width="72" height="72" viewBox="0 0 72 72" fill="none" xmlns="http://www.w3.org/2000/svg">
<g clip-path="url(#clip0)">
<path d="M67.7429 50.7825C67.6555 49.0522 67.3379 45.3691 66.1798 41.0007C64.1417 33.3125 60.407 27.097 55.3607 22.981L55.6218 21.0439C55.7764 19.8971 55.2392 18.7353 54.2642 18.1111C53.3005 17.4939 52.0307 17.4861 51.0595 18.091C50.5162 18.4294 50.0912 18.9388 49.8558 19.534C48.204 18.7624 46.4444 18.1412 44.5971 17.6837L44.7571 15.8412C44.9159 14.0161 43.4301 12.3965 41.5988 12.3965H30.4C28.5688 12.3965 27.0828 14.0159 27.2416 15.8412L27.4016 17.6837C25.5542 18.1412 23.7947 18.7624 22.143 19.534C21.6415 18.2657 20.3044 17.483 18.9529 17.6658C17.3115 17.8869 16.156 19.4023 16.377 21.0439L16.6382 22.9812C11.5919 27.0973 7.85714 33.3126 5.8192 41.0007C4.66116 45.3691 4.34348 49.0522 4.25616 50.7825C1.89563 50.8646 0 52.8096 0 55.1901C0 57.6226 1.97902 59.6016 4.41155 59.6016H17.1523C17.736 59.6016 18.2091 59.1284 18.2091 58.5448C18.2091 57.9612 17.736 57.488 17.1523 57.488H4.41155C3.14438 57.488 2.11359 56.4571 2.11359 55.1901C2.11359 53.9229 3.14452 52.8921 4.41155 52.8921H49.2792C49.863 52.8921 50.336 52.4189 50.336 51.8353C50.336 51.2517 49.863 50.7785 49.2792 50.7785H6.37537C6.46917 49.094 6.78867 45.5713 7.87655 41.4877C9.1492 36.711 11.7484 30.2384 16.9753 25.4825L18.8817 39.6271C19.0846 41.1331 20.3768 42.2299 21.8565 42.2298C23.6492 42.2298 25.0754 40.604 24.8355 38.8246L23.7628 30.8652C23.6849 30.2868 23.1526 29.881 22.5744 29.9591C21.996 30.037 21.5903 30.5692 21.6683 31.1476L22.741 39.1069C22.806 39.5883 22.4582 40.0434 21.9776 40.1082C21.491 40.1734 21.0417 39.8313 20.9763 39.3449L18.4718 20.7618C18.4122 20.3185 18.7047 19.8872 19.1388 19.7792C19.6467 19.6529 20.1666 20.006 20.2364 20.524L21.1002 26.9332C21.1781 27.5116 21.711 27.9174 22.2886 27.8392C22.867 27.7613 23.2727 27.2292 23.1947 26.6508L22.5264 21.6929C24.1041 20.9113 25.7998 20.2841 27.5874 19.8191L29.1137 37.3847C29.4263 40.984 32.3866 43.6982 35.9996 43.6982C39.6124 43.6982 42.5727 40.984 42.8854 37.3848L44.4118 19.8192C46.1991 20.2843 47.8948 20.9113 49.4726 21.6931L47.1637 38.825C46.9237 40.6049 48.3505 42.2302 50.1427 42.2302C51.6222 42.2302 52.9144 41.1333 53.1174 39.6275L55.0238 25.4826C60.2508 30.2386 62.8498 36.7112 64.1225 41.488C65.2105 45.5717 65.53 49.0944 65.6238 50.7788H53.5063C52.9225 50.7788 52.4495 51.252 52.4495 51.8356C52.4495 52.4192 52.9225 52.8924 53.5063 52.8924H67.5886C68.8558 52.8924 69.8866 53.9233 69.8866 55.1904C69.8866 56.4575 68.8556 57.4883 67.5886 57.4883H21.3792C20.7955 57.4883 20.3224 57.9614 20.3224 58.5451C20.3224 59.1287 20.7955 59.6019 21.3792 59.6019H67.5885C70.0208 59.6019 72 57.6229 72 55.1904C72 52.8093 70.104 50.8642 67.7429 50.7825ZM40.7798 37.2016C40.5627 39.7002 38.5075 41.5845 35.9996 41.5845C33.4914 41.5845 31.4363 39.7002 31.2193 37.2016L29.3473 15.6581C29.2946 15.049 29.7886 14.5099 30.4002 14.5099H41.599C42.2107 14.5099 42.7046 15.049 42.6517 15.6581L40.7798 37.2016ZM51.0228 39.3449C50.9573 39.8314 50.5077 40.1736 50.0216 40.1082C49.5418 40.04 49.193 39.5905 49.2581 39.1069L51.7627 20.5238C51.8265 20.0507 52.269 19.7049 52.7438 19.7581C53.2332 19.8129 53.5933 20.2723 53.5274 20.7616L51.0228 39.3449Z" fill="#92BA1F"/>
</g>
<defs>
<clipPath id="clip0">
<rect width="72" height="72" fill="white"/>
</clipPath>
</defs>
</svg>
