<svg width="68" height="146" viewBox="0 0 68 146" fill="none" xmlns="http://www.w3.org/2000/svg">
<path d="M9.31221 9.7336V138.375H7.33312H1V1.42139H67.1019V138.375H60.7688H58.7897V9.7336H9.31221Z" fill="#F4F4F4"/>
<path d="M1 1.42139V138.375H7.33312M1 1.42139L7.33312 7.7545M1 1.42139H67.1019M9.31221 9.7336V138.375H7.33312M9.31221 9.7336L7.33312 7.7545M9.31221 9.7336H58.7897M7.33312 138.375V7.7545M7.33312 7.7545H60.7688M67.1019 1.42139L60.7688 7.7545M67.1019 1.42139V138.375H60.7688M58.7897 9.7336L60.7688 7.7545M58.7897 9.7336V138.375H60.7688M60.7688 7.7545V138.375" stroke="#0C369C"/>
<path d="M58.7916 136.396L21.9803 145.104L18.418 143.916V6.17103L21.9803 5.37939L58.7916 10.1292V136.396Z" fill="#F4F4F4"/>
<path d="M21.9803 5.37939V145.104M21.9803 5.37939L58.7916 10.1292V136.396L21.9803 145.104M21.9803 5.37939L18.418 6.17103V143.916L21.9803 145.104" stroke="#0C369C"/>
</svg>
