<svg xmlns="http://www.w3.org/2000/svg" width="20" height="24" viewBox="0 0 20 24"><g><g><g/><g><path fill="#0c369c" d="M2.5 24A2.503 2.503 0 0 1 0 21.5v-19C0 1.122 1.122 0 2.5 0h15C18.878 0 20 1.122 20 2.5v19c0 1.378-1.122 2.5-2.5 2.5zm0-23C1.673 1 1 1.673 1 2.5v19c0 .827.673 1.5 1.5 1.5h15c.827 0 1.5-.673 1.5-1.5v-19c0-.827-.673-1.5-1.5-1.5z"/></g><g><path fill="#0c369c" d="M3.5 21a.5.5 0 0 1-.5-.5v-12a.5.5 0 0 1 .5-.5h13a.5.5 0 0 1 .5.5v12a.5.5 0 0 1-.5.5zm.5-1h12V9H4z"/></g><g><path fill="#0c369c" d="M7.5 21a.5.5 0 0 1-.5-.5v-12a.5.5 0 0 1 1 0v12a.5.5 0 0 1-.5.5z"/></g><g><path fill="#0c369c" d="M16.5 12h-13a.5.5 0 0 1 0-1h13a.5.5 0 0 1 0 1z"/></g><g><path fill="#0c369c" d="M16.5 15h-13a.5.5 0 0 1 0-1h13a.5.5 0 0 1 0 1z"/></g><g><path fill="#0c369c" d="M16.5 18h-13a.5.5 0 0 1 0-1h13a.5.5 0 0 1 0 1z"/></g></g></g></svg>